<?xml version="1.0" standalone="no"?><!DOCTYPE svg PUBLIC "-//W3C//DTD SVG 1.1//EN" "http://www.w3.org/Graphics/SVG/1.1/DTD/svg11.dtd" ><svg xmlns="http://www.w3.org/2000/svg"><metadata></metadata><defs><font id="Hanyi Alibaba-PuHuiTi-Regular v1.10" horiz-adv-x="984"><font-face font-family="Alibaba PuHuiTi" font-weight="400" font-stretch="normal" units-per-em="1000" panose-1="0 2 6 0 4 1 1 1 1 1" ascent="1050" descent="-322" x-height="1" bbox="-76 -200 960 824" underline-thickness="50" underline-position="-75" unicode-range="U+0026-ff1b" /><missing-glyph horiz-adv-x="575" d="M80 742 l415 0 l0 -742 l-415 0 l0 742 ZM426 66 l0 611 l-276 0 l0 -611 l276 0 Z" /><glyph glyph-name="ampersand" unicode="&amp;" d="M514 129 q24 -26 51.5 -39.5 q27.5 -13.5 74.5 -13.5 l0 -76 q-36 0 -62.5 2.5 q-26.5 2.5 -48 10 q-21.5 7.5 -40 21 q-18.5 13.5 -37.5 34.5 q-50 -42 -98.5 -60 q-48.5 -18 -100.5 -18 q-48 0 -87.5 13.5 q-39.5 13.5 -67.5 38.5 q-28 25 -43.5 60 q-15.5 35 -15.5 77 q0 61 34.5 113 q34.5 52 120.5 99 q-16 22 -26.5 41.5 q-10.5 19.5 -16.5 37 q-6 17.5 -8 34.5 q-2 17 -2 36 q0 37 13 67 q13 30 36 51.5 q23 21.5 54 33.5 q31 12 68 12 q38 0 67.5 -12 q29.5 -12 49.5 -32 q20 -20 30.5 -47 q10.5 -27 10.5 -58 q0 -62 -38.5 -104 q-38.5 -42 -116.5 -80 l146 -179 q28 42 42.5 85 q14.5 43 17.5 83 l87 0 q-9 -64 -29.5 -121 q-20.5 -57 -64.5 -110 ZM310 630 q-34 0 -56.5 -24 q-22.5 -24 -22.5 -62 q0 -28 8.5 -55 q8.5 -27 31.5 -61 q57 27 84 54 q27 27 27 69 q0 35 -19 57 q-19 22 -53 22 ZM130 189 q0 -57 37 -89.5 q37 -32.5 97 -32.5 q39 0 72 13.5 q33 13.5 69 45.5 l-166 207 q-60 -35 -84.5 -70 q-24.5 -35 -24.5 -74 Z" /><glyph glyph-name="comma" unicode="," d="M38 -136 q20 31 37.5 65.5 q17.5 34.5 30 69 q12.5 34.5 19.5 67.5 q7 33 7 61 l83 0 q0 -32 -10 -68.5 q-10 -36.5 -25 -71.5 q-15 -35 -34 -67 q-19 -32 -37 -56 l-71 0 Z" /><glyph glyph-name="hyphen" unicode="-" d="M72 343 l295 0 l0 -72 l-295 0 l0 72 Z" /><glyph glyph-name="period" unicode="." d="M151 -6 q-35 0 -49.5 11 q-14.5 11 -14.5 53 q0 40 14.5 51 q14.5 11 49.5 11 q34 0 49 -11 q15 -11 15 -51 q0 -42 -15 -53 q-15 -11 -49 -11 Z" /><glyph glyph-name="slash" unicode="/" d="M346 724 l77 0 l-269 -754 l-77 0 l269 754 Z" /><glyph glyph-name="zero" unicode="0" d="M287 -10 q-52 0 -95 15.5 q-43 15.5 -74 55.5 q-31 40 -48 109.5 q-17 69.5 -17 176.5 q0 107 17 176 q17 69 48 109.5 q31 40.5 74 56 q43 15.5 95 15.5 q52 0 95.5 -15.5 q43.5 -15.5 74.5 -56 q31 -40.5 48 -109.5 q17 -69 17 -176 q0 -107 -17 -176.5 q-17 -69.5 -48 -109.5 q-31 -40 -74.5 -55.5 q-43.5 -15.5 -95.5 -15.5 ZM287 65 q37 0 64 12.5 q27 12.5 45 44.5 q18 32 26.5 86.5 q8.5 54.5 8.5 138.5 q0 83 -8.5 137.5 q-8.5 54.5 -26.5 86.5 q-18 32 -45 44.5 q-27 12.5 -64 12.5 q-36 0 -63 -12.5 q-27 -12.5 -44.5 -44.5 q-17.5 -32 -26 -86.5 q-8.5 -54.5 -8.5 -137.5 q0 -84 8.5 -138.5 q8.5 -54.5 26 -86.5 q17.5 -32 44.5 -44.5 q27 -12.5 63 -12.5 Z" /><glyph glyph-name="one" unicode="1" d="M273 612 l-172 -33 l0 73 l203 42 l59 0 l0 -694 l-90 0 l0 612 Z" /><glyph glyph-name="two" unicode="2" d="M57 95 q111 87 178 148 q67 61 104 107 q37 46 49 82.5 q12 36.5 12 73.5 q0 37 -13.5 61 q-13.5 24 -34.5 38 q-21 14 -47.5 19 q-26.5 5 -51.5 5 q-33 0 -70 -3.5 q-37 -3.5 -78 -14.5 l0 77 q35 8 74.5 12 q39.5 4 83.5 4 q51 0 92 -11 q41 -11 70.5 -35 q29.5 -24 45 -62 q15.5 -38 15.5 -91 q0 -47 -14 -88.5 q-14 -41.5 -47 -86 q-33 -44.5 -89 -96 q-56 -51.5 -140 -118.5 l-40 -31 l0 -9 l358 0 l0 -76 l-457 0 l0 95 Z" /><glyph glyph-name="three" unicode="3" d="M226 -10 q-42 0 -81.5 3 q-39.5 3 -74.5 10 l0 79 q40 -10 77.5 -13.5 q37.5 -3.5 77.5 -3.5 q39 0 72.5 6 q33.5 6 57.5 21 q24 15 38 39.5 q14 24.5 14 60.5 q0 74 -50 103 q-50 29 -149 29 l-55 0 l0 69 l54 0 q91 0 138 33.5 q47 33.5 47 90.5 q0 61 -36.5 87 q-36.5 26 -111.5 26 q-30 0 -69 -5 q-39 -5 -72 -15 l0 74 q26 8 65.5 14 q39.5 6 79.5 6 q112 0 169.5 -43 q57.5 -43 57.5 -139 q0 -68 -33 -104.5 q-33 -36.5 -90 -53.5 l0 -6 q74 -13 107.5 -55.5 q33.5 -42.5 33.5 -111.5 q0 -96 -64.5 -148.5 q-64.5 -52.5 -202.5 -52.5 Z" /><glyph glyph-name="four" unicode="4" d="M529 171 l-82 0 l0 -171 l-84 0 l0 171 l-328 0 l0 97 l304 426 l108 0 l0 -447 l82 0 l0 -76 ZM363 247 l0 355 l-6 0 l-246 -349 l0 -6 l252 0 Z" /><glyph glyph-name="five" unicode="5" d="M229 -10 q-42 0 -75.5 3 q-33.5 3 -67.5 10 l0 79 q39 -10 70.5 -13.5 q31.5 -3.5 71.5 -3.5 q43 0 78.5 7.5 q35.5 7.5 60.5 25 q25 17.5 39 46 q14 28.5 14 71.5 q0 78 -45.5 113.5 q-45.5 35.5 -153.5 35.5 q-28 0 -64 -4.5 q-36 -4.5 -69 -10.5 l47 345 l324 0 l0 -78 l-256 0 l-29 -190 q19 3 38 4.5 q19 1.5 43 1.5 q121 0 186 -50 q65 -50 65 -161 q0 -62 -19.5 -105.5 q-19.5 -43.5 -55.5 -71.5 q-36 -28 -87.5 -41 q-51.5 -13 -114.5 -13 Z" /><glyph glyph-name="six" unicode="6" d="M287 -10 q-48 0 -89.5 13.5 q-41.5 13.5 -73 45.5 q-31.5 32 -49.5 85.5 q-18 53.5 -18 134.5 q0 97 21.5 177 q21.5 80 66.5 137.5 q45 57.5 115.5 89 q70.5 31.5 168.5 31.5 l-1 -76 q-64 0 -114 -18 q-50 -18 -85 -49.5 q-35 -31.5 -55 -74 q-20 -42.5 -24 -91.5 l3 0 q20 20 59 38.5 q39 18.5 90 18.5 q97 0 154 -55 q57 -55 57 -169 q0 -51 -13.5 -94.5 q-13.5 -43.5 -41 -75.5 q-27.5 -32 -70.5 -50 q-43 -18 -101 -18 ZM286 65 q71 0 108 40.5 q37 40.5 37 122.5 q0 78 -37 116.5 q-37 38.5 -96 38.5 q-81 0 -118 -38.5 q-37 -38.5 -37 -100.5 q0 -179 143 -179 Z" /><glyph glyph-name="seven" unicode="7" d="M435 616 l-381 0 l0 78 l458 0 l0 -88 l-285 -606 l-92 0 l300 616 Z" /><glyph glyph-name="eight" unicode="8" d="M287 -10 q-112 0 -174.5 47 q-62.5 47 -62.5 147 q0 40 11 69.5 q11 29.5 28.5 50 q17.5 20.5 39.5 33 q22 12.5 44 20.5 l0 4 q-44 20 -72 56.5 q-28 36.5 -28 101.5 q0 41 12.5 75 q12.5 34 38.5 58.5 q26 24.5 66.5 38 q40.5 13.5 96.5 13.5 q56 0 96.5 -13.5 q40.5 -13.5 66.5 -38 q26 -24.5 38.5 -58.5 q12.5 -34 12.5 -75 q0 -63 -24.5 -100.5 q-24.5 -37.5 -75.5 -57.5 l0 -4 q25 -8 47.5 -20.5 q22.5 -12.5 39.5 -33.5 q17 -21 26.5 -50.5 q9.5 -29.5 9.5 -69.5 q0 -100 -62 -146.5 q-62 -46.5 -175 -46.5 ZM287 390 q37 0 62.5 9.5 q25.5 9.5 41 26.5 q15.5 17 22.5 39 q7 22 7 48 q0 57 -33 88 q-33 31 -100 31 q-133 0 -133 -119 q0 -26 6 -48 q6 -22 21.5 -39 q15.5 -17 41 -26.5 q25.5 -9.5 64.5 -9.5 ZM287 63 q82 0 118 33.5 q36 33.5 36 90.5 q0 71 -38 104 q-38 33 -116 33 q-78 0 -115.5 -33 q-37.5 -33 -37.5 -104 q0 -57 35.5 -90.5 q35.5 -33.5 117.5 -33.5 Z" /><glyph glyph-name="nine" unicode="9" d="M144 63 q66 0 115.5 18 q49.5 18 84 50 q34.5 32 54 75 q19.5 43 24.5 93 l-4 0 q-19 -21 -58 -39 q-39 -18 -90 -18 q-48 0 -87.5 13 q-39.5 13 -67 39.5 q-27.5 26.5 -43 68 q-15.5 41.5 -15.5 98.5 q0 51 13.5 95.5 q13.5 44.5 41.5 77 q28 32.5 71 51.5 q43 19 101 19 q48 0 89.5 -14 q41.5 -14 72.5 -47 q31 -33 49 -87 q18 -54 18 -134 q0 -97 -21 -177 q-21 -80 -66 -137 q-45 -57 -115 -88.5 q-70 -31.5 -168 -31.5 l1 75 ZM273 310 q81 0 118.5 37.5 q37.5 37.5 37.5 100.5 q0 88 -37 135 q-37 47 -108 47 q-71 0 -107 -43.5 q-36 -43.5 -36 -125.5 q0 -78 37 -114.5 q37 -36.5 95 -36.5 Z" /><glyph glyph-name="semicolon" unicode=";" d="M189 420 q-35 0 -49.5 11 q-14.5 11 -14.5 52 q0 41 14.5 52 q14.5 11 49.5 11 q34 0 49 -11 q15 -11 15 -52 q0 -41 -15 -52 q-15 -11 -49 -11 ZM66 -136 q20 31 37 65.5 q17 34.5 30 69 q13 34.5 20 67.5 q7 33 7 61 l82 0 q0 -32 -10 -68.5 q-10 -36.5 -25 -71.5 q-15 -35 -34 -67 q-19 -32 -37 -56 l-70 0 Z" /><glyph glyph-name="question" unicode="?" d="M152 243 q0 19 4 36 q4 17 14 34 q10 17 27.5 35.5 q17.5 18.5 44.5 40.5 q23 18 37.5 32 q14.5 14 22.5 28.5 q8 14.5 11 30.5 q3 16 3 38 q0 31 -6.5 51.5 q-6.5 20.5 -21.5 32 q-15 11.5 -40 16 q-25 4.5 -62 4.5 q-35 0 -75 -5.5 q-40 -5.5 -69 -16.5 l0 80 q24 8 62.5 15 q38.5 7 90.5 7 q54 0 94 -8 q40 -8 67 -28 q27 -20 40 -54 q13 -34 13 -85 q0 -41 -7 -68.5 q-7 -27.5 -20 -48 q-13 -20.5 -31.5 -36.5 q-18.5 -16 -42.5 -33 q-22 -16 -37 -29.5 q-15 -13.5 -24 -26 q-9 -12.5 -12.5 -26 q-3.5 -13.5 -3.5 -30.5 l0 -30 l-79 0 l0 44 ZM192 -6 q-17 0 -29 2 q-12 2 -19.5 9 q-7.5 7 -11 19 q-3.5 12 -3.5 33 q0 20 3.5 32.5 q3.5 12.5 11 19 q7.5 6.5 19.5 9 q12 2.5 29 2.5 q34 0 49 -11.5 q15 -11.5 15 -51.5 q0 -41 -15 -52 q-15 -11 -49 -11 Z" /><glyph glyph-name="A" unicode="a" d="M486 207 l-307 0 l-76 -207 l-92 0 l263 694 l120 0 l262 -694 l-95 0 l-75 207 ZM457 287 l-117 323 l-12 0 l-119 -323 l248 0 Z" /><glyph glyph-name="B" unicode="b" d="M92 694 l200 0 q68 0 113 -11 q45 -11 71.5 -34 q26.5 -23 37.5 -57.5 q11 -34.5 11 -81.5 q0 -54 -23 -92 q-23 -38 -78 -55 l0 -4 q35 -7 59 -21.5 q24 -14.5 38.5 -35.5 q14.5 -21 20.5 -47 q6 -26 6 -57 q0 -47 -11 -84 q-11 -37 -38 -62.5 q-27 -25.5 -72.5 -38.5 q-45.5 -13 -114.5 -13 l-220 0 l0 694 ZM250 390 q50 0 85.5 5 q35.5 5 58 18 q22.5 13 33 35.5 q10.5 22.5 10.5 56.5 q0 38 -10.5 60.5 q-10.5 22.5 -33 34 q-22.5 11.5 -58 15 q-35.5 3.5 -85.5 3.5 l-68 0 l0 -228 l68 0 ZM275 77 q53 0 88.5 5 q35.5 5 56.5 18.5 q21 13.5 29.5 37.5 q8.5 24 8.5 61 q0 32 -9 54.5 q-9 22.5 -30 37 q-21 14.5 -56 21.5 q-35 7 -88 7 l-93 0 l0 -242 l93 0 Z" /><glyph glyph-name="C" unicode="c" d="M388 -10 q-72 0 -130 15 q-58 15 -99.5 54.5 q-41.5 39.5 -64 109 q-22.5 69.5 -22.5 178.5 q0 100 23 168.5 q23 68.5 65 110.5 q42 42 102.5 60 q60.5 18 135.5 18 q48 0 83.5 -5 q35.5 -5 66.5 -15 l0 -83 q-30 11 -66 17.5 q-36 6.5 -82 6.5 q-59 0 -103 -14 q-44 -14 -73 -46.5 q-29 -32.5 -43.5 -85 q-14.5 -52.5 -14.5 -130.5 q0 -83 13.5 -136.5 q13.5 -53.5 41 -85 q27.5 -31.5 70 -44 q42.5 -12.5 100.5 -12.5 q49 0 87 6.5 q38 6.5 78 20.5 l0 -78 q-29 -13 -72 -21.5 q-43 -8.5 -96 -8.5 Z" /><glyph glyph-name="D" unicode="d" d="M292 694 q75 0 136.5 -13.5 q61.5 -13.5 105.5 -51.5 q44 -38 68.5 -106 q24.5 -68 24.5 -176 q0 -101 -24.5 -167.5 q-24.5 -66.5 -68.5 -106.5 q-44 -40 -105.5 -56.5 q-61.5 -16.5 -136.5 -16.5 l-200 0 l0 694 l200 0 ZM290 79 q54 0 99 12.5 q45 12.5 77.5 43 q32.5 30.5 50 82.5 q17.5 52 17.5 130 q0 83 -18.5 135.5 q-18.5 52.5 -51 82 q-32.5 29.5 -77 40.5 q-44.5 11 -97.5 11 l-108 0 l0 -537 l108 0 Z" /><glyph glyph-name="E" unicode="e" d="M503 81 l0 -81 l-411 0 l0 694 l386 0 l0 -80 l-296 0 l0 -215 l276 0 l0 -76 l-276 0 l0 -242 l321 0 Z" /><glyph glyph-name="F" unicode="f" d="M182 614 l0 -225 l276 0 l0 -80 l-276 0 l0 -309 l-90 0 l0 694 l386 0 l0 -80 l-296 0 Z" /><glyph glyph-name="G" unicode="g" d="M397 -10 q-76 0 -136 15 q-60 15 -102 54.5 q-42 39.5 -64.5 109 q-22.5 69.5 -22.5 178.5 q0 100 23 168.5 q23 68.5 66 110.5 q43 42 105.5 60 q62.5 18 140.5 18 q24 0 49.5 -2 q25.5 -2 49.5 -5.5 q24 -3.5 45.5 -8.5 q21.5 -5 36.5 -11 l0 -80 q-35 14 -79.5 21 q-44.5 7 -97.5 7 q-58 0 -103.5 -12 q-45.5 -12 -77 -43 q-31.5 -31 -48 -85 q-16.5 -54 -16.5 -138 q0 -89 15.5 -143.5 q15.5 -54.5 46.5 -84.5 q31 -30 75.5 -40.5 q44.5 -10.5 103.5 -10.5 q24 0 56.5 3 q32.5 3 56.5 10 l0 215 l-139 0 l0 76 l225 0 l0 -353 q-38 -12 -90.5 -20.5 q-52.5 -8.5 -118.5 -8.5 Z" /><glyph glyph-name="H" unicode="h" d="M616 694 l0 -694 l-91 0 l0 336 l-343 0 l0 -336 l-90 0 l0 694 l90 0 l0 -283 l343 0 l0 283 l91 0 Z" /><glyph glyph-name="I" unicode="i" d="M92 694 l90 0 l0 -694 l-90 0 l0 694 Z" /><glyph glyph-name="J" unicode="j" d="M-6 -181 q-15 0 -35.5 1.5 q-20.5 1.5 -34.5 4.5 l0 80 q12 -2 27 -4.5 q15 -2.5 40 -2.5 q55 0 78.5 35 q23.5 35 23.5 92 l0 669 l90 0 l0 -678 q0 -91 -46 -144 q-46 -53 -143 -53 Z" /><glyph glyph-name="K" unicode="k" d="M595 0 l-116 0 l-248 326 l-49 0 l0 -326 l-90 0 l0 694 l90 0 l0 -289 l49 0 l243 289 l112 0 l-284 -323 l293 -371 Z" /><glyph glyph-name="L" unicode="l" d="M483 81 l0 -81 l-391 0 l0 694 l90 0 l0 -613 l301 0 Z" /><glyph glyph-name="M" unicode="m" d="M92 694 l144 0 l177 -447 l6 0 l177 447 l142 0 l0 -694 l-90 0 l0 603 l-6 0 l-178 -446 l-98 0 l-180 446 l-6 0 l0 -603 l-88 0 l0 694 Z" /><glyph glyph-name="N" unicode="n" d="M92 694 l141 0 l316 -576 l6 0 l0 576 l90 0 l0 -694 l-119 0 l-340 611 l-6 0 l0 -611 l-88 0 l0 694 Z" /><glyph glyph-name="O" unicode="o" d="M371 -10 q-74 0 -129.5 16.5 q-55.5 16.5 -93.5 57 q-38 40.5 -57 109.5 q-19 69 -19 174 q0 105 19 173.5 q19 68.5 57 109.5 q38 41 93.5 57.5 q55.5 16.5 129.5 16.5 q74 0 130 -16.5 q56 -16.5 93.5 -57.5 q37.5 -41 56.5 -109.5 q19 -68.5 19 -173.5 q0 -105 -19 -174 q-19 -69 -56.5 -109.5 q-37.5 -40.5 -93.5 -57 q-56 -16.5 -130 -16.5 ZM371 67 q64 0 104 16 q40 16 62.5 50 q22.5 34 31 87 q8.5 53 8.5 127 q0 72 -8.5 125 q-8.5 53 -31 87.5 q-22.5 34.5 -62.5 51.5 q-40 17 -104 17 q-63 0 -103 -17 q-40 -17 -62.5 -51.5 q-22.5 -34.5 -31 -87.5 q-8.5 -53 -8.5 -125 q0 -74 8.5 -127 q8.5 -53 31 -87 q22.5 -34 62.5 -50 q40 -16 103 -16 Z" /><glyph glyph-name="P" unicode="p" d="M92 694 l193 0 q73 0 122 -13 q49 -13 78.5 -40 q29.5 -27 41.5 -69 q12 -42 12 -100 q0 -61 -14.5 -104 q-14.5 -43 -45 -70 q-30.5 -27 -79 -39.5 q-48.5 -12.5 -115.5 -12.5 l-103 0 l0 -246 l-90 0 l0 694 ZM277 321 q48 0 81 7 q33 7 52.5 24.5 q19.5 17.5 28 46.5 q8.5 29 8.5 73 q0 40 -8.5 67.5 q-8.5 27.5 -28 44.5 q-19.5 17 -52.5 24.5 q-33 7.5 -81 7.5 l-95 0 l0 -295 l95 0 Z" /><glyph glyph-name="Q" unicode="q" d="M670 347 q0 -87 -13 -149 q-13 -62 -39 -103 q-26 -41 -64 -64.5 q-38 -23.5 -89 -32.5 l115 -143 l-107 0 l-97 135 l-5 0 q-74 0 -129.5 16.5 q-55.5 16.5 -93.5 57 q-38 40.5 -57 109.5 q-19 69 -19 174 q0 105 19 173.5 q19 68.5 57 109.5 q38 41 93.5 57.5 q55.5 16.5 129.5 16.5 q74 0 130 -16.5 q56 -16.5 93.5 -57.5 q37.5 -41 56.5 -109.5 q19 -68.5 19 -173.5 ZM371 67 q64 0 104 16 q40 16 62.5 50 q22.5 34 31 87 q8.5 53 8.5 127 q0 72 -8.5 125 q-8.5 53 -31 87.5 q-22.5 34.5 -62.5 51.5 q-40 17 -104 17 q-63 0 -103 -17 q-40 -17 -62.5 -51.5 q-22.5 -34.5 -31 -87.5 q-8.5 -53 -8.5 -125 q0 -74 8.5 -127 q8.5 -53 31 -87 q22.5 -34 62.5 -50 q40 -16 103 -16 Z" /><glyph glyph-name="R" unicode="r" d="M493 0 l-191 280 q-8 -1 -16.5 -1 q-8.5 0 -17.5 0 l-86 0 l0 -279 l-90 0 l0 694 l176 0 q73 0 123.5 -10.5 q50.5 -10.5 82 -34.5 q31.5 -24 45.5 -63.5 q14 -39.5 14 -96.5 q0 -90 -35 -136.5 q-35 -46.5 -107 -62.5 l208 -290 l-106 0 ZM260 354 q48 0 82.5 4.5 q34.5 4.5 56.5 18.5 q22 14 32.5 41 q10.5 27 10.5 71 q0 39 -10.5 64 q-10.5 25 -32.5 39 q-22 14 -56.5 19 q-34.5 5 -82.5 5 l-78 0 l0 -262 l78 0 Z" /><glyph glyph-name="S" unicode="s" d="M263 -10 q-32 0 -63.5 2.5 q-31.5 2.5 -59 6.5 q-27.5 4 -49 8.5 q-21.5 4.5 -34.5 9.5 l0 83 q15 -6 38 -11.5 q23 -5.5 50 -10 q27 -4.5 57 -7 q30 -2.5 61 -2.5 q78 0 118 26 q40 26 40 91 q0 32 -6.5 53.5 q-6.5 21.5 -24.5 36.5 q-18 15 -49 26 q-31 11 -80 23 q-53 13 -90 27 q-37 14 -60 35.5 q-23 21.5 -33.5 52.5 q-10.5 31 -10.5 77 q0 95 56.5 141.5 q56.5 46.5 174.5 46.5 q25 0 50.5 -2 q25.5 -2 49 -5.5 q23.5 -3.5 43 -8 q19.5 -4.5 31.5 -9.5 l0 -82 q-30 11 -78 19.5 q-48 8.5 -95 8.5 q-36 0 -63 -4.5 q-27 -4.5 -45 -16.5 q-18 -12 -26.5 -33 q-8.5 -21 -8.5 -55 q0 -24 4.5 -41.5 q4.5 -17.5 19.5 -30.5 q15 -13 43 -23.5 q28 -10.5 75 -21.5 q58 -14 98.5 -29.5 q40.5 -15.5 65.5 -39.5 q25 -24 36 -58.5 q11 -34.5 11 -85.5 q0 -102 -62.5 -149.5 q-62.5 -47.5 -183.5 -47.5 Z" /><glyph glyph-name="T" unicode="t" d="M511 614 l-202 0 l0 -614 l-90 0 l0 614 l-203 0 l0 80 l495 0 l0 -80 Z" /><glyph glyph-name="U" unicode="u" d="M350 -10 q-131 0 -196 53.5 q-65 53.5 -65 180.5 l0 470 l89 0 l0 -450 q0 -50 9 -83.5 q9 -33.5 29.5 -53.5 q20.5 -20 53.5 -29 q33 -9 81 -9 q50 0 83.5 9 q33.5 9 53.5 29 q20 20 28 53.5 q8 33.5 8 83.5 l0 450 l89 0 l0 -470 q0 -123 -66 -178.5 q-66 -55.5 -197 -55.5 Z" /><glyph glyph-name="V" unicode="v" d="M16 694 l96 0 l195 -599 l6 0 l198 599 l91 0 l-239 -694 l-112 0 l-235 694 Z" /><glyph glyph-name="W" unicode="w" d="M26 694 l94 0 l130 -589 l6 0 l141 508 l108 0 l141 -508 l6 0 l129 589 l91 0 l-165 -694 l-114 0 l-141 514 l-6 0 l-144 -514 l-114 0 l-162 694 Z" /><glyph glyph-name="X" unicode="x" d="M251 353 l-209 341 l105 0 l165 -285 l6 0 l176 285 l98 0 l-217 -335 l225 -359 l-105 0 l-178 298 l-6 0 l-187 -298 l-101 0 l228 353 Z" /><glyph glyph-name="Y" unicode="y" d="M251 298 l-245 396 l104 0 l187 -314 l6 0 l186 314 l99 0 l-247 -395 l0 -299 l-90 0 l0 298 Z" /><glyph glyph-name="Z" unicode="z" d="M58 92 l399 516 l-1 6 l-378 0 l0 80 l482 0 l0 -86 l-405 -521 l0 -6 l428 0 l0 -81 l-525 0 l0 92 Z" /><glyph glyph-name="a" unicode="a" d="M305 550 q64 0 105.5 -12.5 q41.5 -12.5 66 -34.5 q24.5 -22 34 -53 q9.5 -31 9.5 -67 l0 -383 l-73 0 l-13 82 q-12 -22 -32 -39 q-20 -17 -45.5 -29 q-25.5 -12 -55.5 -18 q-30 -6 -60 -6 q-97 0 -141.5 42 q-44.5 42 -44.5 119 q0 48 15.5 81 q15.5 33 43.5 53 q28 20 67.5 29 q39.5 9 87.5 9 l165 0 l0 45 q0 24 -5.5 44.5 q-5.5 20.5 -20 35 q-14.5 14.5 -40.5 22.5 q-26 8 -67 8 q-27 0 -58.5 -3 q-31.5 -3 -60.5 -9 l0 76 q30 4 62 6 q32 2 61 2 ZM249 62 q68 0 116 27.5 q48 27.5 69 75.5 l0 89 l-159 0 q-33 0 -58 -4 q-25 -4 -41 -15.5 q-16 -11.5 -24 -31.5 q-8 -20 -8 -51 q0 -45 24 -67.5 q24 -22.5 81 -22.5 Z" /><glyph glyph-name="b" unicode="b" d="M352 550 q68 0 111.5 -20.5 q43.5 -20.5 68 -57.5 q24.5 -37 34 -88.5 q9.5 -51.5 9.5 -113.5 q0 -56 -9.5 -106.5 q-9.5 -50.5 -34 -89 q-24.5 -38.5 -68 -61.5 q-43.5 -23 -111.5 -23 q-79 0 -118.5 28 q-39.5 28 -56.5 76 l-11 -94 l-75 0 l0 760 l86 0 l0 -317 q17 48 57 77.5 q40 29.5 118 29.5 ZM341 63 q48 0 76.5 17.5 q28.5 17.5 43.5 46.5 q15 29 19.5 66.5 q4.5 37.5 4.5 76.5 q0 42 -5 80 q-5 38 -20 66.5 q-15 28.5 -43.5 45 q-28.5 16.5 -75.5 16.5 q-49 0 -81 -14.5 q-32 -14.5 -51.5 -41.5 q-19.5 -27 -27.5 -65.5 q-8 -38.5 -8 -86.5 q0 -47 8 -85 q8 -38 27.5 -65 q19.5 -27 51.5 -42 q32 -15 81 -15 Z" /><glyph glyph-name="c" unicode="c" d="M309 -10 q-60 0 -106.5 13.5 q-46.5 13.5 -78.5 46 q-32 32.5 -48.5 86 q-16.5 53.5 -16.5 134.5 q0 81 16.5 134.5 q16.5 53.5 48.5 86 q32 32.5 78.5 46 q46.5 13.5 106.5 13.5 q45 0 81.5 -6 q36.5 -6 59.5 -14 l0 -79 q-30 11 -64 17.5 q-34 6.5 -76 6.5 q-45 0 -75 -10 q-30 -10 -49 -33.5 q-19 -23.5 -27 -63 q-8 -39.5 -8 -99.5 q0 -59 8 -98 q8 -39 27 -62.5 q19 -23.5 49.5 -33 q30.5 -9.5 75.5 -9.5 q38 0 75 5.5 q37 5.5 66 17.5 l0 -79 q-11 -4 -27.5 -7.5 q-16.5 -3.5 -36 -6.5 q-19.5 -3 -40 -4.5 q-20.5 -1.5 -39.5 -1.5 Z" /><glyph glyph-name="d" unicode="d" d="M545 760 l0 -760 l-73 0 l-13 89 q-16 -43 -59 -71 q-43 -28 -117 -28 q-67 0 -110.5 20.5 q-43.5 20.5 -68.5 57.5 q-25 37 -34.5 88.5 q-9.5 51.5 -9.5 113.5 q0 55 9.5 106 q9.5 51 34.5 89.5 q25 38.5 68.5 61.5 q43.5 23 110.5 23 q40 0 69 -7.5 q29 -7.5 50 -21 q21 -13.5 35 -32.5 q14 -19 22 -43 l0 314 l86 0 ZM296 63 q49 0 81 14 q32 14 51 41 q19 27 26.5 65.5 q7.5 38.5 7.5 86.5 q0 46 -7.5 84.5 q-7.5 38.5 -26.5 66 q-19 27.5 -51 42.5 q-32 15 -81 15 q-49 0 -77.5 -17.5 q-28.5 -17.5 -43.5 -47 q-15 -29.5 -19 -67 q-4 -37.5 -4 -76.5 q0 -42 4.5 -80 q4.5 -38 19.5 -66 q15 -28 43.5 -44.5 q28.5 -16.5 76.5 -16.5 Z" /><glyph glyph-name="e" unicode="e" d="M520 324 q0 -11 -1.5 -27.5 q-1.5 -16.5 -3.5 -35.5 l-366 -23 q0 -44 9 -76.5 q9 -32.5 29 -53.5 q20 -21 53 -31.5 q33 -10.5 82 -10.5 q45 0 91.5 10 q46.5 10 77.5 25 l0 -79 q-12 -6 -31 -12 q-19 -6 -43 -10.5 q-24 -4.5 -51.5 -7 q-27.5 -2.5 -56.5 -2.5 q-60 0 -106.5 13.5 q-46.5 13.5 -78.5 46 q-32 32.5 -48.5 86 q-16.5 53.5 -16.5 134.5 q0 81 16.5 134.5 q16.5 53.5 48 86 q31.5 32.5 77 46 q45.5 13.5 103.5 13.5 q69 0 111.5 -20.5 q42.5 -20.5 65.5 -53 q23 -32.5 31 -73 q8 -40.5 8 -79.5 ZM435 323 q0 31 -4 59.5 q-4 28.5 -17.5 50 q-13.5 21.5 -39.5 34 q-26 12.5 -70 12.5 q-47 0 -76.5 -12 q-29.5 -12 -46.5 -35 q-17 -23 -24 -56 q-7 -33 -8 -74 l286 21 Z" /><glyph glyph-name="f" unicode="f" d="M290 695 q-28 0 -46 -7 q-18 -7 -29 -24.5 q-11 -17.5 -16 -47.5 q-5 -30 -5 -76 l127 0 l0 -71 l-127 0 l0 -469 l-86 0 l0 469 l-90 0 l0 71 l90 0 l0 5 q0 70 13 113 q13 43 37 66.5 q24 23.5 57.5 31.5 q33.5 8 74.5 8 q15 0 30.5 -1.5 q15.5 -1.5 29.5 -3.5 l0 -69 q-25 5 -60 5 Z" /><glyph glyph-name="g" unicode="g" d="M545 540 l0 -502 q0 -112 -63.5 -175 q-63.5 -63 -200.5 -63 q-35 0 -70 4 q-35 4 -61 9 l0 73 q61 -12 132 -12 q90 0 133.5 40 q43.5 40 43.5 133 l0 54 q-17 -48 -57 -74.5 q-40 -26.5 -118 -26.5 q-68 0 -111 20 q-43 20 -68.5 56 q-25.5 36 -35 86.5 q-9.5 50.5 -9.5 112.5 q0 56 9.5 106 q9.5 50 35 87.5 q25.5 37.5 68.5 59.5 q43 22 111 22 q41 0 70.5 -8.5 q29.5 -8.5 50 -23 q20.5 -14.5 33.5 -35 q13 -20.5 21 -44.5 l0 101 l86 0 ZM296 72 q49 0 81 13.5 q32 13.5 51 39.5 q19 26 26.5 64 q7.5 38 7.5 86 q0 46 -7.5 84 q-7.5 38 -26.5 64 q-19 26 -51 40.5 q-32 14.5 -81 14.5 q-49 0 -77.5 -17 q-28.5 -17 -43.5 -45 q-15 -28 -19 -65 q-4 -37 -4 -76 q0 -42 4.5 -79 q4.5 -37 19.5 -64.5 q15 -27.5 43.5 -43.5 q28.5 -16 76.5 -16 Z" /><glyph glyph-name="h" unicode="h" d="M350 550 q53 0 88 -13 q35 -13 55.5 -36.5 q20.5 -23.5 29 -55.5 q8.5 -32 8.5 -71 l0 -374 l-86 0 l0 342 q0 31 -4 55.5 q-4 24.5 -15.5 41 q-11.5 16.5 -32 25.5 q-20.5 9 -52.5 9 q-26 0 -50.5 -3.5 q-24.5 -3.5 -46 -15 q-21.5 -11.5 -39 -32.5 q-17.5 -21 -28.5 -57 l0 -365 l-86 0 l0 760 l86 0 l0 -297 q12 26 31.5 43 q19.5 17 42.5 26.5 q23 9.5 48.5 13.5 q25.5 4 50.5 4 Z" /><glyph glyph-name="i" unicode="i" d="M135 639 q-29 0 -40.5 9 q-11.5 9 -11.5 42 q0 34 11.5 42.5 q11.5 8.5 40.5 8.5 q27 0 39 -8.5 q12 -8.5 12 -42.5 q0 -33 -12 -42 q-12 -9 -39 -9 ZM91 540 l86 0 l0 -540 l-86 0 l0 540 Z" /><glyph glyph-name="j" unicode="j" d="M135 639 q-29 0 -40.5 9 q-11.5 9 -11.5 42 q0 34 11.5 42.5 q11.5 8.5 40.5 8.5 q27 0 39 -8.5 q12 -8.5 12 -42.5 q0 -33 -12 -42 q-12 -9 -39 -9 ZM-7 -200 q-16 0 -31.5 1.5 q-15.5 1.5 -31.5 3.5 l0 71 q14 -2 32 -3.5 q18 -1.5 37 -1.5 q29 0 47 7 q18 7 28 24 q10 17 13.5 45 q3.5 28 3.5 69 l0 524 l86 0 l0 -533 q0 -65 -11.5 -105.5 q-11.5 -40.5 -34.5 -63 q-23 -22.5 -57.5 -30.5 q-34.5 -8 -80.5 -8 Z" /><glyph glyph-name="k" unicode="k" d="M514 0 l-111 0 l-197 252 l-29 0 l0 -252 l-86 0 l0 760 l86 0 l0 -441 l31 0 l187 221 l107 0 l-227 -251 l239 -289 Z" /><glyph glyph-name="l" unicode="l" d="M211 -6 q-60 0 -90 27 q-30 27 -30 88 l0 651 l86 0 l0 -629 q0 -41 12 -53 q12 -12 38 -12 q9 0 19.5 1 q10.5 1 21.5 4 l0 -71 q-12 -3 -25.5 -4.5 q-13.5 -1.5 -31.5 -1.5 Z" /><glyph glyph-name="m" unicode="m" d="M658 550 q47 0 80.5 -13 q33.5 -13 55 -36.5 q21.5 -23.5 31.5 -56 q10 -32.5 10 -71.5 l0 -373 l-86 0 l0 342 q0 63 -21.5 97 q-21.5 34 -82.5 34 q-24 0 -45.5 -4 q-21.5 -4 -39.5 -14.5 q-18 -10.5 -32 -29 q-14 -18.5 -23 -47.5 l0 -4 l0 -374 l-86 0 l0 342 q0 62 -20 96.5 q-20 34.5 -79 34.5 q-25 0 -47 -3.5 q-22 -3.5 -40 -14 q-18 -10.5 -32 -30 q-14 -19.5 -24 -50.5 l0 -375 l-86 0 l0 540 l86 0 l0 -71 q25 48 66 64.5 q41 16.5 90 16.5 q64 0 102 -23.5 q38 -23.5 55 -64.5 q12 26 30.5 43 q18.5 17 41 27 q22.5 10 47 14 q24.5 4 49.5 4 Z" /><glyph glyph-name="n" unicode="n" d="M350 550 q53 0 88 -13 q35 -13 55.5 -36.5 q20.5 -23.5 29 -55.5 q8.5 -32 8.5 -71 l0 -374 l-87 0 l0 342 q0 31 -4 55.5 q-4 24.5 -15.5 41 q-11.5 16.5 -31.5 25.5 q-20 9 -52 9 q-26 0 -50.5 -3.5 q-24.5 -3.5 -46 -15 q-21.5 -11.5 -39 -32.5 q-17.5 -21 -28.5 -57 l0 -365 l-86 0 l0 540 l86 0 l0 -77 q12 26 31.5 43 q19.5 17 42.5 26.5 q23 9.5 48.5 13.5 q25.5 4 50.5 4 Z" /><glyph glyph-name="o" unicode="o" d="M309 -10 q-60 0 -106.5 13.5 q-46.5 13.5 -78.5 46 q-32 32.5 -48.5 86 q-16.5 53.5 -16.5 134.5 q0 81 16.5 134.5 q16.5 53.5 48.5 86 q32 32.5 78.5 46 q46.5 13.5 106.5 13.5 q60 0 106.5 -13.5 q46.5 -13.5 78 -46 q31.5 -32.5 48 -86 q16.5 -53.5 16.5 -134.5 q0 -81 -16.5 -134.5 q-16.5 -53.5 -48 -86 q-31.5 -32.5 -78 -46 q-46.5 -13.5 -106.5 -13.5 ZM309 63 q46 0 76.5 10 q30.5 10 48.5 34 q18 24 25.5 64 q7.5 40 7.5 99 q0 59 -8 99 q-8 40 -26.5 64 q-18.5 24 -49 34.5 q-30.5 10.5 -74.5 10.5 q-45 0 -75.5 -10.5 q-30.5 -10.5 -49 -34.5 q-18.5 -24 -26 -64 q-7.5 -40 -7.5 -99 q0 -59 8 -99 q8 -40 27 -64 q19 -24 49 -34 q30 -10 74 -10 Z" /><glyph glyph-name="p" unicode="p" d="M352 550 q68 0 111.5 -20.5 q43.5 -20.5 68 -57.5 q24.5 -37 34 -88.5 q9.5 -51.5 9.5 -113.5 q0 -56 -9.5 -106.5 q-9.5 -50.5 -34 -89 q-24.5 -38.5 -68 -61.5 q-43.5 -23 -111.5 -23 q-79 0 -118.5 28 q-39.5 28 -56.5 76 l0 -294 l-86 0 l0 740 l86 0 l0 -97 q17 48 57 77.5 q40 29.5 118 29.5 ZM341 63 q48 0 76.5 17.5 q28.5 17.5 43.5 46.5 q15 29 19.5 66.5 q4.5 37.5 4.5 76.5 q0 43 -5 80.5 q-5 37.5 -20 66 q-15 28.5 -43.5 45 q-28.5 16.5 -75.5 16.5 q-49 0 -81 -14.5 q-32 -14.5 -51.5 -41.5 q-19.5 -27 -27.5 -65.5 q-8 -38.5 -8 -86.5 q0 -47 8 -85 q8 -38 27.5 -65 q19.5 -27 51.5 -42 q32 -15 81 -15 Z" /><glyph glyph-name="q" unicode="q" d="M546 540 l0 -740 l-86 0 l0 302 q-8 -25 -21.5 -45.5 q-13.5 -20.5 -34.5 -35.5 q-21 -15 -51 -23 q-30 -8 -70 -8 q-67 0 -110.5 20.5 q-43.5 20.5 -68.5 57.5 q-25 37 -34.5 88.5 q-9.5 51.5 -9.5 113.5 q0 55 9.5 106 q9.5 51 34.5 89.5 q25 38.5 68.5 61.5 q43.5 23 110.5 23 q40 0 70 -7.5 q30 -7.5 51 -21.5 q21 -14 34.5 -34 q13.5 -20 21.5 -44 l0 97 l86 0 ZM296 63 q49 0 81 14 q32 14 51 41 q19 27 26.5 65.5 q7.5 38.5 7.5 86.5 q0 46 -7.5 84.5 q-7.5 38.5 -26.5 66 q-19 27.5 -51 42.5 q-32 15 -81 15 q-49 0 -77.5 -17.5 q-28.5 -17.5 -43.5 -47 q-15 -29.5 -19 -67 q-4 -37.5 -4 -76.5 q0 -42 4.5 -80 q4.5 -38 19.5 -66 q15 -28 43.5 -44.5 q28.5 -16.5 76.5 -16.5 Z" /><glyph glyph-name="r" unicode="r" d="M359 550 l-3 -78 l-12 0 q-26 0 -51 -5 q-25 -5 -47 -18.5 q-22 -13.5 -40 -36.5 q-18 -23 -29 -59 l0 -353 l-86 0 l0 540 l86 0 l0 -98 q13 34 32 55 q19 21 42 33 q23 12 48.5 16 q25.5 4 49.5 4 l10 0 Z" /><glyph glyph-name="s" unicode="s" d="M216 -6 q-20 0 -42.5 1.5 q-22.5 1.5 -44.5 3.5 q-22 2 -40.5 5.5 q-18.5 3.5 -29.5 6.5 l0 74 q14 -4 33.5 -8 q19.5 -4 40.5 -7 q21 -3 42.5 -4.5 q21.5 -1.5 39.5 -1.5 q62 0 93.5 17.5 q31.5 17.5 31.5 65.5 q0 24 -4.5 39.5 q-4.5 15.5 -17.5 26 q-13 10.5 -36.5 18.5 q-23.5 8 -62.5 17 q-45 10 -74 23 q-29 13 -46 31 q-17 18 -24 43 q-7 25 -7 59 q0 66 48.5 106 q48.5 40 145.5 40 q39 0 77.5 -5 q38.5 -5 58.5 -13 l-6 -73 q-23 9 -57 15 q-34 6 -72 6 q-57 0 -85.5 -16 q-28.5 -16 -28.5 -62 q0 -21 4.5 -34 q4.5 -13 15.5 -22.5 q11 -9.5 31 -16 q20 -6.5 52 -13.5 q46 -11 78.5 -23.5 q32.5 -12.5 52.5 -31 q20 -18.5 29 -45.5 q9 -27 9 -66 q0 -81 -52.5 -118.5 q-52.5 -37.5 -152.5 -37.5 Z" /><glyph glyph-name="t" unicode="t" d="M259 66 q18 0 31.5 1.5 q13.5 1.5 27.5 4.5 l0 -73 q-16 -2 -30 -3.5 q-14 -1.5 -31 -1.5 q-45 0 -75.5 6.5 q-30.5 6.5 -50 25.5 q-19.5 19 -28 52.5 q-8.5 33.5 -8.5 86.5 l0 303 l-80 0 l0 72 l80 0 l0 128 l86 0 l0 -128 l134 0 l0 -72 l-134 0 l0 -298 q0 -32 3 -52 q3 -20 11.5 -31.5 q8.5 -11.5 23.5 -16 q15 -4.5 40 -4.5 Z" /><glyph glyph-name="u" unicode="u" d="M522 540 l0 -540 l-73 0 l-11 78 q-12 -27 -31 -44 q-19 -17 -41.5 -26.5 q-22.5 -9.5 -47.5 -13.5 q-25 -4 -50 -4 q-53 0 -88 13 q-35 13 -55.5 36 q-20.5 23 -29 55.5 q-8.5 32.5 -8.5 71.5 l0 374 l86 0 l0 -342 q0 -31 4 -55.5 q4 -24.5 15.5 -41.5 q11.5 -17 32 -26 q20.5 -9 52.5 -9 q25 0 49 3.5 q24 3.5 44.5 15 q20.5 11.5 37 32.5 q16.5 21 28.5 56 l0 367 l86 0 Z" /><glyph glyph-name="v" unicode="v" d="M10 540 l87 0 l164 -454 l6 0 l158 454 l91 0 l-202 -540 l-102 0 l-202 540 Z" /><glyph glyph-name="w" unicode="w" d="M22 540 l86 0 l114 -453 l6 0 l134 453 l102 0 l138 -453 l6 0 l114 453 l85 0 l-150 -540 l-107 0 l-134 443 l-6 0 l-135 -443 l-107 0 l-146 540 Z" /><glyph glyph-name="x" unicode="x" d="M200 275 l-175 265 l96 0 l136 -213 l6 0 l134 213 l95 0 l-174 -263 l184 -277 l-98 0 l-142 223 l-6 0 l-146 -223 l-96 0 l186 275 Z" /><glyph glyph-name="y" unicode="y" d="M67 -126 q70 0 104.5 31 q34.5 31 54.5 96 l-216 539 l93 0 l165 -448 l6 0 l156 448 l87 0 l-194 -522 q-19 -51 -39 -91 q-20 -40 -48.5 -68.5 q-28.5 -28.5 -68.5 -43.5 q-40 -15 -100 -15 l0 74 Z" /><glyph glyph-name="z" unicode="z" d="M44 70 l304 393 l0 6 l-280 0 l0 71 l385 0 l0 -65 l-306 -395 l0 -6 l323 0 l0 -74 l-426 0 l0 70 Z" /><glyph glyph-name="copyright" unicode="©" d="M402 -13 q-80 0 -146 26 q-66 26 -113 73.5 q-47 47.5 -73.5 113 q-26.5 65.5 -26.5 145.5 q0 79 26.5 145.5 q26.5 66.5 74 115 q47.5 48.5 114 75.5 q66.5 27 147.5 27 q78 0 144 -26.5 q66 -26.5 113.5 -73.5 q47.5 -47 74 -113 q26.5 -66 26.5 -144 q0 -80 -27 -147 q-27 -67 -75 -115 q-48 -48 -114.5 -75 q-66.5 -27 -144.5 -27 ZM403 49 q66 0 120 22.5 q54 22.5 93 62 q39 39.5 60 94.5 q21 55 21 121 q0 67 -21 122 q-21 55 -59.5 94 q-38.5 39 -92.5 60 q-54 21 -121 21 q-66 0 -120.5 -22.5 q-54.5 -22.5 -93.5 -62 q-39 -39.5 -60 -94.5 q-21 -55 -21 -119 q0 -68 21 -123 q21 -55 59.5 -94 q38.5 -39 93 -60.5 q54.5 -21.5 121.5 -21.5 ZM429 149 q-48 0 -86 9.5 q-38 9.5 -64 32.5 q-26 23 -39.5 60.5 q-13.5 37.5 -13.5 94.5 q0 57 13.5 95.5 q13.5 38.5 39.5 61.5 q26 23 63.5 32.5 q37.5 9.5 86.5 9.5 q32 0 58.5 -5.5 q26.5 -5.5 43.5 -11.5 l0 -68 q-46 20 -101 20 q-35 0 -59 -6.5 q-24 -6.5 -38.5 -22 q-14.5 -15.5 -21 -41.5 q-6.5 -26 -6.5 -65 q0 -38 6.5 -63 q6.5 -25 21 -40 q14.5 -15 38.5 -21 q24 -6 59 -6 q29 0 56.5 4 q27.5 4 49.5 15 l0 -67 q-17 -8 -47.5 -13 q-30.5 -5 -59.5 -5 Z" /><glyph glyph-name="periodcentered" unicode="·" d="M151 267 q-35 0 -49.5 11 q-14.5 11 -14.5 52 q0 41 14.5 52 q14.5 11 49.5 11 q34 0 49 -11 q15 -11 15 -52 q0 -41 -15 -52 q-15 -11 -49 -11 Z" /><glyph glyph-name="uniFF0C" unicode="&#xff0c;" d="M136 -136 q20 31 37.5 65.5 q17.5 34.5 30 69 q12.5 34.5 19.5 67.5 q7 33 7 61 l83 0 q0 -32 -10 -68.5 q-10 -36.5 -25 -71.5 q-15 -35 -34 -67 q-19 -32 -37 -56 l-71 0 Z" /><glyph glyph-name="uniFF01" unicode="&#xff01;" d="M308 694 l-15 -492 l-68 0 l-15 492 l98 0 ZM258 -6 q-17 0 -29 2 q-12 2 -19.5 9 q-7.5 7 -11 19 q-3.5 12 -3.5 33 q0 20 3.5 32.5 q3.5 12.5 11 19 q7.5 6.5 19.5 9 q12 2.5 29 2.5 q34 0 49 -11.5 q15 -11.5 15 -51.5 q0 -41 -15 -52 q-15 -11 -49 -11 Z" /><glyph glyph-name="uniFF1B" unicode="&#xff1b;" d="M259 420 q-35 0 -49.5 11 q-14.5 11 -14.5 52 q0 41 14.5 52 q14.5 11 49.5 11 q34 0 49 -11 q15 -11 15 -52 q0 -41 -15 -52 q-15 -11 -49 -11 ZM136 -136 q20 31 37 65.5 q17 34.5 30 69 q13 34.5 20 67.5 q7 33 7 61 l82 0 q0 -32 -10 -68.5 q-10 -36.5 -25 -71.5 q-15 -35 -34 -67 q-19 -32 -37 -56 l-70 0 Z" /><glyph glyph-name="uniFF08" unicode="&#xff08;" d="M719 -110 q-78 103 -113 211 q-35 108 -35 223 q0 122 36.5 231.5 q36.5 109.5 114.5 214.5 l82 0 q-41 -58 -69 -113.5 q-28 -55.5 -45.5 -109.5 q-17.5 -54 -25 -107.5 q-7.5 -53.5 -7.5 -108.5 q0 -114 32.5 -221.5 q32.5 -107.5 111.5 -219.5 l-82 0 Z" /><glyph glyph-name="uniFF09" unicode="&#xff09;" d="M183 -110 q79 112 111.5 219.5 q32.5 107.5 32.5 221.5 q0 55 -7.5 108.5 q-7.5 53.5 -25 107.5 q-17.5 54 -45.5 109.5 q-28 55.5 -69 113.5 l82 0 q78 -105 114.5 -214.5 q36.5 -109.5 36.5 -231.5 q0 -115 -35 -223 q-35 -108 -113 -211 l-82 0 Z" /><glyph glyph-name="uni3002" unicode="&#x3002;" d="M253 -111 q-27 0 -51 8 q-24 8 -42.5 23.5 q-18.5 15.5 -29 39 q-10.5 23.5 -10.5 55.5 q0 31 10.5 55 q10.5 24 29 39.5 q18.5 15.5 42.5 23.5 q24 8 51 8 q27 0 51 -8 q24 -8 42.5 -23.5 q18.5 -15.5 29 -39.5 q10.5 -24 10.5 -55 q0 -32 -11 -55.5 q-11 -23.5 -29 -39 q-18 -15.5 -42 -23.5 q-24 -8 -51 -8 ZM253 -58 q32 0 53.5 18.5 q21.5 18.5 21.5 54.5 q0 36 -21.5 54.5 q-21.5 18.5 -53.5 18.5 q-32 0 -53.5 -18.5 q-21.5 -18.5 -21.5 -54.5 q0 -36 21.5 -54.5 q21.5 -18.5 53.5 -18.5 Z" /><glyph glyph-name="uni4E0D" unicode="&#x4e0d;" d="M594 661 q-52 -96 -114 -182 l51 -3 l0 -576 l-77 0 l0 544 q-70 -91 -156.5 -174 q-86.5 -83 -194.5 -161 l-56 63 q159 108 270 230 q111 122 186 259 l-404 0 l0 76 l790 0 l0 -76 l-295 0 ZM620 463 q35 -27 77 -62.5 q42 -35.5 84.5 -73.5 q42.5 -38 81 -75.5 q38.5 -37.5 66.5 -69.5 l-56 -68 q-29 35 -68 75.5 q-39 40.5 -80 80.5 q-41 40 -81.5 75.5 q-40.5 35.5 -73.5 61.5 l50 56 Z" /><glyph glyph-name="uni4E16" unicode="&#x4e16;" d="M421 180 l0 316 l-164 0 l0 -469 l649 0 l0 -73 l-726 0 l0 542 l-138 0 l0 74 l138 0 l0 208 l77 -3 l0 -205 l164 0 l0 232 l74 -3 l0 -229 l208 0 l0 233 l76 -3 l0 -230 l162 0 l0 -74 l-162 0 l0 -316 l-358 0 ZM495 496 l0 -244 l208 0 l0 244 l-208 0 Z" /><glyph glyph-name="uni4E1A" unicode="&#x4e1a;" d="M933 24 l0 -70 l-878 0 l0 70 l294 0 l0 769 l78 -3 l0 -766 l135 0 l0 771 l81 -3 l0 -768 l290 0 ZM894 609 q-14 -47 -31 -100.5 q-17 -53.5 -36.5 -108.5 q-19.5 -55 -41 -108.5 q-21.5 -53.5 -44.5 -101.5 l-74 29 q23 44 45.5 96.5 q22.5 52.5 42.5 107.5 q20 55 36.5 108.5 q16.5 53.5 28.5 100.5 l74 -23 ZM239 193 q-14 49 -32 104 q-18 55 -38.5 109.5 q-20.5 54.5 -42 103.5 q-21.5 49 -40.5 86 l71 29 q16 -32 38.5 -82.5 q22.5 -50.5 45 -107 q22.5 -56.5 42.5 -112 q20 -55.5 32 -96.5 l-76 -34 Z" /><glyph glyph-name="uni4E2D" unicode="&#x4e2d;" d="M866 194 l-336 0 l0 -294 l-80 0 l0 294 l-333 0 l0 423 l333 0 l0 194 l80 -4 l0 -190 l336 0 l0 -423 ZM450 268 l0 275 l-255 0 l0 -275 l255 0 ZM789 543 l-259 0 l0 -275 l259 0 l0 275 Z" /><glyph glyph-name="uni4E3B" unicode="&#x4e3b;" d="M934 21 l0 -73 l-884 0 l0 73 l402 0 l0 250 l-319 0 l0 75 l319 0 l0 213 l-360 0 l0 74 l368 0 q-6 19 -13 42.5 q-7 23.5 -14.5 45.5 q-7.5 22 -13.5 39.5 q-6 17.5 -10 26.5 l75 19 q5 -11 13 -33 q8 -22 16 -48 q8 -26 15 -51 q7 -25 12 -41 l352 0 l0 -74 l-361 0 l0 -213 l320 0 l0 -75 l-320 0 l0 -250 l403 0 Z" /><glyph glyph-name="uni4E4B" unicode="&#x4e4b;" d="M533 31 q105 -4 204.5 -3.5 q99.5 0.5 204.5 5.5 l-22 -74 q-190 -11 -380 -3 q-62 3 -106 7 q-44 4 -77 13 q-33 9 -58.5 25 q-25.5 16 -50.5 43 q-17 20 -28 29 q-11 9 -18 9 q-8 0 -16 -7 q-8 -7 -25 -27 q-15 -18 -35.5 -43.5 q-20.5 -25.5 -35.5 -46.5 l-61 57 q26 29 52.5 62 q26.5 33 47.5 61 q19 26 35 32 q16 6 33 6 q14 0 24 -5 q75 40 149.5 89.5 q74.5 49.5 142 101 q67.5 51.5 125.5 101.5 q58 50 100 92 l-602 0 l0 75 l337 0 q-4 19 -9 41 q-5 22 -11 43.5 q-6 21.5 -12 41 q-6 19.5 -10 33.5 l74 15 q4 -14 11 -36 q7 -22 13.5 -47 q6.5 -25 13 -49 q6.5 -24 9.5 -42 l296 0 l0 -75 q-47 -51 -111.5 -110 q-64.5 -59 -139 -117.5 q-74.5 -58.5 -155 -113.5 q-80.5 -55 -159.5 -98 q24 -27 46.5 -42.5 q22.5 -15.5 50.5 -24.5 q28 -9 64.5 -12.5 q36.5 -3.5 88.5 -5.5 Z" /><glyph glyph-name="uni4E92" unicode="&#x4e92;" d="M939 28 l0 -73 l-895 0 l0 73 l618 0 l12 151 l-474 0 l77 482 l-184 0 l0 74 l800 0 l0 -74 l-537 0 l-24 -145 l445 0 l-36 -488 l198 0 ZM680 254 l15 187 l-376 0 l-31 -187 l392 0 Z" /><glyph glyph-name="uni4EBA" unicode="&#x4eba;" d="M522 639 q10 -108 40.5 -201 q30.5 -93 81.5 -175 q51 -82 121.5 -154.5 q70.5 -72.5 159.5 -138.5 l-56 -68 q-142 115 -237 245 q-95 130 -140 283 q-39 -149 -132 -276 q-93 -127 -247 -244 l-55 65 q105 76 178.5 153.5 q73.5 77.5 120 164 q46.5 86.5 68 185.5 q21.5 99 23.5 218 q0 6 0.5 20.5 q0.5 14.5 1 30 q0.5 15.5 0.5 28.5 q0 13 0 17 l75 -3 q0 -4 0 -20 q0 -16 -0.5 -35.5 q-0.5 -19.5 -1 -38.5 q-0.5 -19 -0.5 -28 q0 -8 0 -14.5 q0 -6.5 -1 -13.5 Z" /><glyph glyph-name="uni4EEA" unicode="&#x4eea;" d="M328 781 q-18 -56 -37 -106.5 q-19 -50.5 -39 -98.5 l0 -672 l-74 0 l0 525 q-44 -76 -102 -151 l-59 53 q73 93 133.5 213.5 q60.5 120.5 98.5 249.5 l79 -13 ZM624 525 q-12 29 -27 62.5 q-15 33.5 -30.5 65.5 q-15.5 32 -31.5 60 q-16 28 -29 48 l57 33 q13 -19 30.5 -48 q17.5 -29 34.5 -60.5 q17 -31.5 31.5 -62 q14.5 -30.5 22.5 -52.5 l-58 -46 ZM671 177 q56 -59 124.5 -111 q68.5 -52 152.5 -100 l-40 -73 q-86 53 -157 108.5 q-71 55.5 -130 118.5 q-57 -58 -131 -111 q-74 -53 -170 -109 l-43 69 q95 55 166.5 105.5 q71.5 50.5 125.5 105.5 q-81 101 -135.5 223 q-54.5 122 -86.5 278 l69 24 q28 -142 77 -256.5 q49 -114.5 126 -211.5 q35 45 62 95 q27 50 48 110 q21 60 37.5 130.5 q16.5 70.5 30.5 155.5 l73 -18 q-16 -93 -34.5 -170 q-18.5 -77 -42.5 -141.5 q-24 -64.5 -54 -119 q-30 -54.5 -68 -102.5 Z" /><glyph glyph-name="uni4EF6" unicode="&#x4ef6;" d="M943 214 l-265 0 l0 -314 l-76 0 l0 314 l-295 0 l0 72 l295 0 l0 236 l-147 0 q-28 -90 -65 -170 l-75 27 q19 40 37 86.5 q18 46.5 33 95.5 q15 49 27.5 99 q12.5 50 21.5 97 l75 -16 q-14 -75 -33 -147 l126 0 l0 213 l76 -4 l0 -209 l223 0 l0 -72 l-223 0 l0 -236 l265 0 l0 -72 ZM323 773 q-33 -107 -71 -190 l0 -681 l-73 0 l0 541 q-46 -78 -102 -151 l-58 49 q71 94 129.5 205.5 q58.5 111.5 96.5 242.5 l78 -16 Z" /><glyph glyph-name="uni4EFD" unicode="&#x4efd;" d="M698 805 q36 -125 98 -221 q62 -96 155 -178 l-61 -54 q-37 36 -75 82.5 q-38 46.5 -73.5 101.5 q-35.5 55 -65 118 q-29.5 63 -49.5 133 l71 18 ZM324 781 q-34 -116 -77 -213 l0 -668 l-70 0 l0 532 q-23 -37 -47.5 -73.5 q-24.5 -36.5 -53.5 -72.5 l-56 51 q35 44 69 98.5 q34 54.5 64.5 114.5 q30.5 60 56 123 q25.5 63 43.5 124 l71 -16 ZM574 761 q-37 -97 -89 -183.5 q-52 -86.5 -112 -159.5 l445 0 q0 -8 -1.5 -34 q-1.5 -26 -3 -61.5 q-1.5 -35.5 -3.5 -76 q-2 -40.5 -4 -77.5 q-2 -37 -3.5 -65.5 q-1.5 -28.5 -2.5 -39.5 q-3 -41 -13 -67 q-10 -26 -29.5 -42 q-19.5 -16 -49 -23.5 q-29.5 -7.5 -70.5 -10.5 l-52 -4 l-28 77 l74 5 q28 2 45 7.5 q17 5.5 27 17 q10 11.5 14 30 q4 18.5 7 47.5 q1 8 2 27 q1 19 2.5 44 q1.5 25 3 52.5 q1.5 27.5 3 51.5 q1.5 24 2.5 42.5 q1 18.5 1 25.5 l-196 0 q0 -6 -0.5 -12 q-0.5 -6 -0.5 -11 q-4 -76 -16 -133.5 q-12 -57.5 -36.5 -106.5 q-24.5 -49 -63 -94 q-38.5 -45 -95.5 -95 l-64 55 q56 42 93 80 q37 38 59.5 80.5 q22.5 42.5 33.5 94 q11 51.5 16 121.5 q1 5 1 10 q0 5 1 11 l-98 0 l0 74 q-13 -15 -25.5 -29.5 q-12.5 -14.5 -25.5 -28.5 l-56 49 q80 76 137.5 170 q57.5 94 93.5 199 l77 -17 Z" /><glyph glyph-name="uni4F01" unicode="&#x4f01;" d="M493 723 q-32 -44 -78 -90.5 q-46 -46.5 -101 -92.5 q-55 -46 -116.5 -89.5 q-61.5 -43.5 -123.5 -79.5 l-47 68 q70 37 134 80.5 q64 43.5 119.5 90 q55.5 46.5 100.5 94.5 q45 48 77 95 l70 0 q69 -99 178 -191.5 q109 -92.5 249 -167.5 l-48 -69 q-147 90 -247.5 175 q-100.5 85 -166.5 177 ZM545 18 l369 0 l0 -71 l-857 0 l0 71 l142 0 l0 365 l74 -3 l0 -362 l196 0 l0 517 l76 -3 l0 -213 l279 0 l0 -74 l-279 0 l0 -227 Z" /><glyph glyph-name="uni4F1A" unicode="&#x4f1a;" d="M530 802 q65 -93 172 -176.5 q107 -83.5 247 -150.5 l-39 -69 q-52 28 -111 65.5 q-59 37.5 -115.5 80 q-56.5 42.5 -106.5 88 q-50 45.5 -83 90.5 q-66 -90 -175 -174.5 q-109 -84.5 -242 -153.5 l-41 65 q143 68 250 154.5 q107 86.5 173 180.5 l71 0 ZM746 491 l0 -68 l-505 0 l0 68 l505 0 ZM84 293 l817 0 l0 -70 l-430 0 q-41 -56 -88 -109.5 q-47 -53.5 -89 -92.5 q23 0 71 1.5 q48 1.5 105 4 q57 2.5 115.5 4.5 q58.5 2 102.5 4 q-28 34 -55 63 q-27 29 -48 49 l55 44 q21 -20 50 -50.5 q29 -30.5 58 -64.5 q29 -34 55.5 -67.5 q26.5 -33.5 43.5 -58.5 l-55 -59 q-10 17 -23 36.5 q-13 19.5 -29 40.5 q-28 -1 -69.5 -2.5 q-41.5 -1.5 -89.5 -3 q-48 -1.5 -98 -3.5 q-50 -2 -93.5 -4 q-43.5 -2 -77.5 -4 q-34 -2 -50 -3 q-29 -2 -53 -4.5 q-24 -2.5 -45 -6.5 l-15 69 q23 8 34.5 15.5 q11.5 7.5 28.5 19.5 q19 16 40.5 37.5 q21.5 21.5 43 45.5 q21.5 24 42.5 49.5 q21 25.5 39 49.5 l-293 0 l0 70 Z" /><glyph glyph-name="uni4F5C" unicode="&#x4f5c;" d="M608 580 l0 -157 l257 0 l0 -72 l-257 0 l0 -162 l275 0 l0 -73 l-275 0 l0 -218 l-77 0 l0 682 l-45 0 q-28 -51 -64 -106 q-36 -55 -86 -118 l-55 53 q43 52 76 101 q33 49 59.5 97.5 q26.5 48.5 47 96.5 q20.5 48 37.5 98 l70 -29 q-10 -28 -21.5 -56.5 q-11.5 -28.5 -25.5 -60.5 l396 0 l0 -76 l-312 0 ZM336 757 q-17 -42 -37.5 -90.5 q-20.5 -48.5 -47.5 -102.5 l0 -662 l-76 0 l0 528 q-45 -69 -101 -136 l-54 56 q48 55 85.5 112 q37.5 57 67 112.5 q29.5 55.5 51 109 q21.5 53.5 38.5 102.5 l74 -29 Z" /><glyph glyph-name="uni4F60" unicode="&#x4f60;" d="M298 435 q27 38 52.5 82.5 q25.5 44.5 49 92.5 q23.5 48 42.5 97 q19 49 33 95 l76 -10 q-10 -31 -21.5 -61.5 q-11.5 -30.5 -24.5 -60.5 l397 0 l0 -72 q-35 -87 -80 -166 l-68 25 q20 33 37 68.5 q17 35.5 33 72.5 l-351 0 q-26 -54 -54.5 -105.5 q-28.5 -51.5 -59.5 -97.5 l-61 40 ZM316 782 q-18 -58 -37.5 -109 q-19.5 -51 -40.5 -99 l0 -668 l-71 0 l0 529 q-20 -34 -41.5 -67 q-21.5 -33 -44.5 -65 l-53 47 q28 40 58.5 91.5 q30.5 51.5 59 109 q28.5 57.5 52.5 119.5 q24 62 41 124 l77 -12 ZM581 518 l73 -2 l0 -496 q0 -28 -6 -47.5 q-6 -19.5 -20.5 -32 q-14.5 -12.5 -39 -19 q-24.5 -6.5 -62.5 -8.5 l-50 -4 l-26 75 l60 4 q22 1 36 4.5 q14 3.5 22 10 q8 6.5 10.5 17 q2.5 10.5 2.5 26.5 l0 472 ZM491 355 q-29 -94 -72.5 -189 q-43.5 -95 -90.5 -175 l-64 29 q22 36 45.5 79 q23.5 43 45 89.5 q21.5 46.5 40.5 94 q19 47.5 32 90.5 l64 -18 ZM785 373 q19 -31 42 -77 q23 -46 45.5 -96 q22.5 -50 42 -98 q19.5 -48 30.5 -83 l-62 -39 q-11 37 -30 87 q-19 50 -41 101 q-22 51 -45 98 q-23 47 -41 78 l59 29 Z" /><glyph glyph-name="uni4FE1" unicode="&#x4fe1;" d="M938 689 l0 -69 l-627 0 l0 69 l274 0 q-8 27 -17 54.5 q-9 27.5 -16 44.5 l74 14 q8 -19 18.5 -52 q10.5 -33 19.5 -61 l274 0 ZM319 782 q-13 -42 -31.5 -95.5 q-18.5 -53.5 -46.5 -115.5 l0 -669 l-73 0 l0 523 q-36 -63 -81 -129 l-61 48 q40 55 75 114 q35 59 64 117.5 q29 58.5 50.5 115 q21.5 56.5 35.5 106.5 l68 -15 ZM365 530 l501 0 l0 -64 l-501 0 l0 64 ZM365 385 l501 0 l0 -65 l-501 0 l0 65 ZM366 233 l498 0 l0 -331 l-77 0 l0 56 l-348 0 l0 -56 l-73 0 l0 331 ZM439 166 l0 -141 l348 0 l0 141 l-348 0 Z" /><glyph glyph-name="uni50CF" unicode="&#x50cf;" d="M766 250 q16 -41 34.5 -74.5 q18.5 -33.5 41 -63 q22.5 -29.5 49.5 -56 q27 -26.5 60 -52.5 l-48 -51 q-33 31 -60 60 q-27 29 -49.5 60 q-22.5 31 -41.5 67 q-19 36 -37 81 l-53 -27 q16 -61 16 -137 q0 -39 -7.5 -66 q-7.5 -27 -25 -43.5 q-17.5 -16.5 -45 -24.5 q-27.5 -8 -67.5 -10 l-54 -3 l-21 62 l67 4 q25 1 42 6 q17 5 27.5 16.5 q10.5 11.5 14.5 30.5 q4 19 4 48 q0 30 -3 57 q-69 -66 -153 -115 q-84 -49 -177 -87 l-28 58 q96 35 185.5 85 q89.5 50 159.5 118 q-4 11 -8 21 q-4 10 -9 21 q-64 -52 -135.5 -90.5 q-71.5 -38.5 -156.5 -73.5 l-25 55 q93 35 165.5 74.5 q72.5 39.5 125.5 81.5 q-6 8 -12 16.5 q-6 8.5 -12 17.5 q-42 -29 -101 -52.5 q-59 -23.5 -137 -48.5 l-24 58 q98 28 160.5 55 q62.5 27 97.5 64 l-178 0 l0 153 q-12 -9 -24 -18 q-12 -9 -24 -17 l-32 62 q69 48 130 110 q61 62 102 132 l65 -25 q-8 -15 -17 -29 q-9 -14 -18 -28 l252 0 l0 -55 q-18 -23 -36 -44.5 q-18 -21.5 -38 -41.5 l163 0 l0 -199 l-269 0 q-6 -10 -12 -19 q-6 -9 -14 -17 q22 -28 38 -54.5 q16 -26.5 28 -52.5 q24 12 51.5 28 q27.5 16 54.5 33 q27 17 51.5 34.5 q24.5 17.5 41.5 31.5 l35 -52 q-20 -16 -49 -35 q-29 -19 -61 -39 ZM301 784 q-14 -54 -32 -106 q-18 -52 -38 -103 l0 -674 l-69 0 l0 524 q-21 -40 -43.5 -77 q-22.5 -37 -47.5 -71 l-58 50 q37 47 69 103 q32 56 59 117 q27 61 48.5 124 q21.5 63 38.5 125 l73 -12 ZM487 675 q-19 -23 -39.5 -43.5 q-20.5 -20.5 -42.5 -40.5 l224 0 q20 19 38 40 q18 21 35 44 l-215 0 ZM563 446 q17 39 21 92 l-170 0 l0 -92 l149 0 ZM806 538 l-163 0 q-2 -26 -6 -49 q-4 -23 -11 -43 l180 0 l0 92 Z" /><glyph glyph-name="uni5149" unicode="&#x5149;" d="M921 136 q-3 -36 -6 -71.5 q-3 -35.5 -9 -69.5 q-6 -33 -35 -49 q-29 -16 -97 -20 q-54 -3 -108 0 q-33 2 -56.5 8 q-23.5 6 -37.5 20.5 q-14 14.5 -20.5 38 q-6.5 23.5 -6.5 59.5 l0 301 l-155 0 q0 -7 -0.5 -13 q-0.5 -6 -0.5 -11 q-5 -85 -22 -148.5 q-17 -63.5 -51 -113 q-34 -49.5 -88 -90.5 q-54 -41 -133 -81 l-54 68 q76 37 126.5 71 q50.5 34 82 74.5 q31.5 40.5 45.5 93.5 q14 53 17 128 q0 4 0.5 10 q0.5 6 0.5 12 l-239 0 l0 75 l377 0 l0 370 l78 -3 l0 -367 l378 0 l0 -75 l-284 0 l0 -278 q0 -20 3.5 -32.5 q3.5 -12.5 11.5 -19.5 q8 -7 21 -10.5 q13 -3.5 33 -4.5 q36 -3 72 0 q20 1 34 3.5 q14 2.5 23 7.5 q9 5 14 13 q5 8 7 21 q5 25 6.5 52.5 q1.5 27.5 2.5 54.5 l70 -24 ZM837 704 q-25 -48 -62.5 -112.5 q-37.5 -64.5 -88.5 -127.5 l-64 45 q19 20 40.5 50 q21.5 30 42 63 q20.5 33 38.5 65 q18 32 29 56 l65 -39 ZM297 461 q-14 26 -34.5 59 q-20.5 33 -43 65.5 q-22.5 32.5 -44.5 62 q-22 29.5 -37 48.5 l60 43 q17 -19 39.5 -48 q22.5 -29 45.5 -61 q23 -32 44 -63 q21 -31 34 -53 l-64 -53 Z" /><glyph glyph-name="uni5168" unicode="&#x5168;" d="M532 398 l0 -146 l284 0 l0 -72 l-284 0 l0 -166 l369 0 l0 -70 l-818 0 l0 70 l370 0 l0 166 l-285 0 l0 72 l285 0 l0 146 l-259 0 l0 59 q-28 -17 -57.5 -34 q-29.5 -17 -61.5 -34 l-40 72 q78 37 141.5 76 q63.5 39 115 80 q51.5 41 92.5 85.5 q41 44.5 73 93.5 l70 0 q65 -100 172.5 -184.5 q107.5 -84.5 251.5 -153.5 l-40 -68 q-30 17 -60.5 34.5 q-30.5 17.5 -60.5 37.5 l0 -64 l-258 0 ZM492 722 q-50 -69 -117.5 -130.5 q-67.5 -61.5 -158.5 -120.5 l560 0 q-85 56 -160 119.5 q-75 63.5 -124 131.5 Z" /><glyph glyph-name="uni516C" unicode="&#x516c;" d="M621 788 q28 -71 58.5 -132 q30.5 -61 69.5 -113.5 q39 -52.5 88 -98.5 q49 -46 114 -88 l-61 -69 q-63 46 -113.5 99.5 q-50.5 53.5 -91 113 q-40.5 59.5 -73 125 q-32.5 65.5 -60.5 136.5 l69 27 ZM427 756 q-27 -61 -58.5 -121.5 q-31.5 -60.5 -72 -119 q-40.5 -58.5 -91 -114.5 q-50.5 -56 -114.5 -109 l-58 59 q60 45 110 96.5 q50 51.5 90 107 q40 55.5 70.5 112.5 q30.5 57 50.5 113 l73 -24 ZM627 287 q26 -38 53 -81 q27 -43 52.5 -87.5 q25.5 -44.5 49.5 -90 q24 -45.5 44 -89.5 l-75 -43 q-19 49 -44 100 q-58 -3 -126 -8.5 q-68 -5.5 -131 -11 q-63 -5.5 -113.5 -10.5 q-50.5 -5 -73.5 -8 q-23 -3 -49.5 -8 q-26.5 -5 -49.5 -11 l-22 76 q15 3 25.5 6.5 q10.5 3.5 18 7.5 q7.5 4 12.5 9 q5 5 11 12 q32 36 65 87 q33 51 64 108 q31 57 59 116.5 q28 59.5 49 112.5 l74 -31 q-21 -52 -48 -108 q-27 -56 -56.5 -110 q-29.5 -54 -61 -103 q-31.5 -49 -62.5 -87 q13 1 39 3.5 q26 2.5 60 5 q34 2.5 72.5 5.5 q38.5 3 76.5 6 q38 3 72.5 5.5 q34.5 2.5 59.5 4.5 q-26 51 -54 96.5 q-28 45.5 -56 87.5 l65 38 Z" /><glyph glyph-name="uni51B5" unicode="&#x51b5;" d="M201 461 q-9 28 -24.5 65.5 q-15.5 37.5 -34 76 q-18.5 38.5 -37 74 q-18.5 35.5 -33.5 58.5 l61 33 q16 -23 35.5 -57.5 q19.5 -34.5 39 -72 q19.5 -37.5 36 -74 q16.5 -36.5 25.5 -62.5 l-68 -41 ZM948 123 q-2 -35 -5 -66 q-3 -31 -11 -66 q-3 -17 -9.5 -28 q-6.5 -11 -19 -18.5 q-12.5 -7.5 -31.5 -11 q-19 -3.5 -48 -4.5 q-37 -1 -74 0 q-26 1 -45 6 q-19 5 -31 15.5 q-12 10.5 -17.5 28 q-5.5 17.5 -5.5 43.5 l0 316 l-132 0 q0 -14 -0.5 -27.5 q-0.5 -13.5 -1.5 -21.5 q-3 -77 -18 -134 q-15 -57 -44 -102 q-29 -45 -74.5 -82.5 q-45.5 -37.5 -111.5 -77.5 l-48 59 q63 35 105 68 q42 33 68.5 72 q26.5 39 38.5 87 q12 48 15 114 q1 8 1.5 20.5 q0.5 12.5 0.5 24.5 l-110 0 l0 400 l514 0 l0 -400 l-130 0 l0 -292 q0 -27 10.5 -35.5 q10.5 -8.5 39.5 -10.5 q17 -1 35 0 q32 3 43 10 q11 7 16 31 q5 30 7 54.5 q2 24.5 3 49.5 l70 -22 ZM414 409 l366 0 l0 259 l-366 0 l0 -259 ZM271 338 q-29 -97 -63 -197 q-34 -100 -82 -200 l-69 39 q47 89 83.5 189 q36.5 100 62.5 200 l68 -31 Z" /><glyph glyph-name="uni51ED" unicode="&#x51ed;" d="M184 557 q-25 -29 -52 -57 q-27 -28 -56 -55 l-46 58 q32 26 65 61.5 q33 35.5 64 75.5 q31 40 57 83.5 q26 43.5 45 86.5 l68 -18 q-32 -73 -74 -138 l0 -362 l-71 0 l0 265 ZM567 677 q-64 -7 -123 -11.5 q-59 -4.5 -102 -6.5 l-12 62 q50 1 119 7 q69 6 141.5 14 q72.5 8 140.5 17 q68 9 116 18 l7 -62 q-41 -8 -96 -15.5 q-55 -7.5 -116 -14.5 l0 -119 l276 0 l0 -65 l-276 0 l0 -115 l241 0 l0 -63 l-548 0 l0 63 l232 0 l0 115 l-268 0 l0 65 l268 0 l0 111 ZM925 108 q-5 -63 -18 -120 q-7 -29 -32 -44 q-25 -15 -85 -17 q-43 -2 -85 0 q-30 1 -51 6 q-21 5 -33.5 16 q-12.5 11 -18.5 30 q-6 19 -6 48 l0 143 l-254 0 l0 -22 q0 -44 -10 -78 q-10 -34 -37 -63.5 q-27 -29.5 -73.5 -57 q-46.5 -27.5 -119.5 -59.5 l-39 66 q64 25 104 46.5 q40 21.5 62.5 45.5 q22.5 24 30.5 55 q8 31 8 76 l0 59 l403 0 l0 -186 q0 -17 2 -28 q2 -11 8 -17 q6 -6 16.5 -8 q10.5 -2 27.5 -3 q27 -2 55 0 q33 2 48 9.5 q15 7.5 20 30.5 q5 23 7.5 47.5 q2.5 24.5 3.5 48.5 l66 -24 Z" /><glyph glyph-name="uni51FA" unicode="&#x51fa;" d="M865 299 l0 -400 l-79 0 l0 48 l-664 0 l0 353 l78 -4 l0 -274 l254 0 l0 357 l-291 0 l0 338 l77 -3 l0 -261 l214 0 l0 352 l75 -2 l0 -350 l216 0 l0 264 l77 -3 l0 -335 l-293 0 l0 -357 l257 0 l0 280 l79 -3 Z" /><glyph glyph-name="uni5206" unicode="&#x5206;" d="M607 808 q25 -67 57.5 -123 q32.5 -56 74.5 -104 q42 -48 94.5 -90.5 q52.5 -42.5 119.5 -82.5 l-46 -69 q-68 42 -121 84.5 q-53 42.5 -95.5 93.5 q-42.5 51 -79 115 q-36.5 64 -71.5 148 l67 28 ZM438 763 q-29 -64 -63 -119 q-34 -55 -76 -105 q-42 -50 -94 -96.5 q-52 -46.5 -117 -94.5 l-54 63 q121 74 202.5 170.5 q81.5 96.5 129.5 209.5 l72 -28 ZM211 421 l544 0 q-1 -19 -3 -48.5 q-2 -29.5 -4 -64.5 q-2 -35 -4.5 -73 q-2.5 -38 -5.5 -73 q-3 -35 -5.5 -65 q-2.5 -30 -4.5 -49 q-4 -35 -10.5 -56 q-6.5 -21 -19.5 -33 q-13 -12 -34 -17.5 q-21 -5.5 -54 -8.5 q-17 -2 -30.5 -3 q-13.5 -1 -24.5 -2 q-12 -1 -22 -1 l-29 75 l78 5 q20 1 32.5 5 q12.5 4 19.5 12 q7 8 10.5 21.5 q3.5 13.5 6.5 33.5 q3 21 6 60.5 q3 39.5 6 80.5 q3 41 5 77 q2 36 3 50 l-266 0 q-1 -13 -2 -29.5 q-1 -16.5 -3 -34.5 q-7 -65 -21 -117 q-14 -52 -44.5 -98 q-30.5 -46 -82.5 -88.5 q-52 -42.5 -134 -88.5 l-50 61 q77 40 123.5 75 q46.5 35 73 72.5 q26.5 37.5 38.5 81.5 q12 44 21 103 q3 18 4 34.5 q1 16.5 2 28.5 l-119 0 l0 74 Z" /><glyph glyph-name="uni521B" unicode="&#x521b;" d="M366 745 q28 -21 60.5 -48.5 q32.5 -27.5 64.5 -56 q32 -28.5 60.5 -55.5 q28.5 -27 48.5 -48 l-51 -64 q-18 23 -44.5 51 q-26.5 28 -57 56.5 q-30.5 28.5 -62 56 q-31.5 27.5 -58.5 49.5 q-51 -73 -115.5 -138.5 q-64.5 -65.5 -139.5 -119.5 l-44 57 q46 32 90 72 q44 40 82 83.5 q38 43.5 68.5 88.5 q30.5 45 49.5 87 l76 -22 q-7 -13 -13.5 -25 q-6.5 -12 -14.5 -24 ZM882 795 l0 -772 q0 -29 -4.5 -47 q-4.5 -18 -16.5 -29 q-12 -11 -33.5 -16.5 q-21.5 -5.5 -56.5 -9.5 l-77 -8 l-26 76 l86 8 q18 1 28.5 4 q10.5 3 16 9 q5.5 6 7.5 17 q2 11 2 29 l0 743 l74 -4 ZM697 144 l-71 0 l0 582 l71 -4 l0 -578 ZM477 42 q5 30 8 56 q2 14 2 27 l70 -31 q-1 -9 -3 -20 q-2 -10 -3.5 -24.5 q-1.5 -14.5 -4.5 -34.5 q-8 -50 -34 -66.5 q-26 -16.5 -69 -18.5 q-27 -2 -50 -2.5 q-23 -0.5 -47 -0.5 q-24 0 -51.5 1.5 q-27.5 1.5 -61.5 3.5 q-48 3 -67 26 q-19 23 -19 69 l0 455 l343 0 l-1 -65 q0 -5 -0.5 -25.5 q-0.5 -20.5 -1.5 -46 q-1 -25.5 -2 -49.5 q-1 -24 -1 -34 q-2 -56 -25.5 -77 q-23.5 -21 -74.5 -26 l-55 -6 l-25 65 l56 4 q35 3 45.5 13.5 q10.5 10.5 12.5 37.5 q1 11 1.5 30.5 q0.5 19.5 1.5 41 q1 21.5 1.5 41 q0.5 19.5 0.5 29.5 l-205 0 l0 -377 q0 -17 7 -26 q7 -9 39 -12 q27 -2 47.5 -3.5 q20.5 -1.5 39.5 -1.5 q19 0 38 1.5 q19 1.5 42 3.5 q26 2 34 12 q8 10 12 30 Z" /><glyph glyph-name="uni5236" unicode="&#x5236;" d="M371 471 l213 0 l0 -68 l-213 0 l0 -102 l183 0 l0 -249 q0 -22 -5 -36 q-5 -14 -16 -23 q-11 -9 -28 -14 q-17 -5 -41 -8 l-35 -5 l-24 66 l35 4 q28 4 37.5 10.5 q9.5 6.5 9.5 32.5 l0 154 l-116 0 l1 -340 l-71 0 l0 340 l-122 0 l0 -272 l-64 0 l0 340 l186 0 l0 102 l-250 0 l0 68 l250 0 l0 122 l-124 0 q-10 -28 -20 -53.5 q-10 -25.5 -21 -47.5 l-64 22 q26 58 47.5 123 q21.5 65 35.5 129 l66 -11 q-5 -23 -10.5 -47 q-5.5 -24 -12.5 -48 l103 0 l0 139 l69 -3 l0 -136 l194 0 l0 -67 l-194 0 l1 -122 ZM886 784 l0 -755 q0 -32 -5.5 -52.5 q-5.5 -20.5 -19 -33 q-13.5 -12.5 -36.5 -19.5 q-23 -7 -59 -11 l-63 -7 l-26 72 l67 7 q22 2 36 5.5 q14 3.5 22 10.5 q8 7 11 18.5 q3 11.5 3 31.5 l0 736 l70 -3 ZM716 110 l-69 0 l0 595 l69 -3 l0 -592 Z" /><glyph glyph-name="uni529B" unicode="&#x529b;" d="M846 604 q-1 -18 -2.5 -58.5 q-1.5 -40.5 -3.5 -93 q-2 -52.5 -4.5 -111 q-2.5 -58.5 -4.5 -111.5 q-2 -53 -4 -96 q-2 -43 -3 -63 q-2 -41 -12 -68.5 q-10 -27.5 -32.5 -45 q-22.5 -17.5 -59.5 -26.5 q-37 -9 -93 -13 l-79 -6 l-26 80 l97 7 q37 3 61 8 q24 5 38.5 17 q14.5 12 20 32 q5.5 20 7.5 52 q1 15 2.5 48 q1.5 33 3 74 q1.5 41 3.5 86.5 q2 45.5 3.5 86.5 q1.5 41 2.5 73.5 q1 32.5 1 48.5 l-311 0 q-3 -84 -12 -151.5 q-9 -67.5 -26 -122.5 q-17 -55 -43.5 -101.5 q-26.5 -46.5 -64.5 -89 q-38 -42.5 -88.5 -84.5 q-50.5 -42 -115.5 -88 l-56 65 q61 42 108 79.5 q47 37.5 82.5 75.5 q35.5 38 60 79 q24.5 41 40.5 91 q16 50 24.5 110 q8.5 60 12.5 137 l-282 0 l0 79 l284 0 q1 25 2 54 q1 29 2 56 q1 27 1.5 50.5 q0.5 23.5 1.5 38.5 l79 -3 q0 -10 -1 -32 q-1 -22 -2 -50 q-1 -28 -2 -58.5 q-1 -30.5 -2 -55.5 l392 0 Z" /><glyph glyph-name="uni529E" unicode="&#x529e;" d="M746 628 q-9 -130 -16 -243 q-3 -48 -6 -97 q-3 -49 -6 -92.5 q-3 -43.5 -5.5 -78.5 q-2.5 -35 -3.5 -55 q-3 -40 -12 -65.5 q-9 -25.5 -30 -42 q-21 -16.5 -56.5 -25.5 q-35.5 -9 -91.5 -15 l-54 -6 l-25 79 l70 6 q36 3 58.5 8.5 q22.5 5.5 35.5 16.5 q13 11 18.5 29.5 q5.5 18.5 7.5 48.5 q1 19 4 57.5 q3 38.5 6.5 85.5 q3.5 47 7 98.5 q3.5 51.5 7 96.5 q3.5 45 5.5 77.5 q2 32.5 2 43.5 l-216 0 q-5 -90 -15.5 -160.5 q-10.5 -70.5 -28 -127.5 q-17.5 -57 -43.5 -103.5 q-26 -46.5 -63 -90.5 q-37 -44 -85.5 -87.5 q-48.5 -43.5 -111.5 -93.5 l-58 59 q60 43 105.5 83 q45.5 40 80 81.5 q34.5 41.5 58.5 86.5 q24 45 40.5 98 q16.5 53 26.5 115.5 q10 62.5 17 139.5 l-280 0 l0 73 l285 0 q1 26 2 57 q1 31 2 57 q1 31 2 62 l77 -6 l-8 -170 l297 0 ZM241 439 q-30 -83 -68 -160.5 q-38 -77.5 -73 -137.5 l-73 40 q43 63 78.5 134.5 q35.5 71.5 61.5 146.5 l74 -23 ZM795 439 q17 -21 39 -53.5 q22 -32.5 44 -68 q22 -35.5 42 -70 q20 -34.5 32 -59.5 l-67 -49 q-12 28 -30.5 64.5 q-18.5 36.5 -40 73.5 q-21.5 37 -43 70 q-21.5 33 -38.5 55 l62 37 Z" /><glyph glyph-name="uni52A1" unicode="&#x52a1;" d="M564 473 q72 -32 165 -56.5 q93 -24.5 218 -44.5 l-27 -71 q-72 16 -133 30.5 q-61 14.5 -114 29.5 q-53 15 -98.5 31.5 q-45.5 16.5 -86.5 37.5 q-83 -42 -186 -78 q-103 -36 -239 -67 l-33 68 q121 25 215 54.5 q94 29.5 169 64.5 q-76 51 -150 129 q-33 -32 -69.5 -63 q-36.5 -31 -76.5 -60 l-46 46 q41 30 81 67 q40 37 76 75.5 q36 38.5 66.5 77 q30.5 38.5 51.5 72.5 l68 -28 q-11 -18 -23 -36 q-12 -18 -26 -35 l431 0 l0 -61 q-55 -52 -111 -97 q-56 -45 -122 -86 ZM313 653 q40 -42 82.5 -77.5 q42.5 -35.5 93.5 -64.5 q59 32 107 68.5 q48 36.5 90 75.5 l-371 0 l-2 -2 ZM465 350 q-2 -11 -4.5 -34 q-2.5 -23 -7.5 -52 l352 0 q-1 -12 -5 -44.5 q-4 -32.5 -8.5 -69 q-4.5 -36.5 -8.5 -69 q-4 -32.5 -6 -44.5 q-5 -34 -13 -55 q-8 -21 -21.5 -33 q-13.5 -12 -32.5 -17 q-19 -5 -47 -8 l-108 -10 l-23 67 l105 9 q31 3 45.5 18 q14.5 15 21.5 54 q2 10 4.5 30.5 q2.5 20.5 5.5 41.5 q3 21 5 39.5 q2 18.5 3 25.5 l-281 0 q-14 -59 -39 -104.5 q-25 -45.5 -65.5 -82.5 q-40.5 -37 -99 -66 q-58.5 -29 -139.5 -54 l-37 63 q70 21 121 44.5 q51 23.5 87 52.5 q36 29 58.5 65 q22.5 36 34.5 82 l-225 0 l0 65 l238 0 q5 29 7.5 55.5 q2.5 26.5 3.5 37.5 l79 -7 Z" /><glyph glyph-name="uni52A9" unicode="&#x52a9;" d="M884 618 q-2 -110 -6 -214 q-2 -44 -3.5 -91.5 q-1.5 -47.5 -3 -93 q-1.5 -45.5 -3.5 -86.5 q-2 -41 -3 -74 q-2 -32 -7.5 -53 q-5.5 -21 -17 -34.5 q-11.5 -13.5 -30.5 -20 q-19 -6.5 -48 -9.5 l-82 -8 l-25 74 l86 8 q26 2 37 14.5 q11 12.5 13 51.5 q3 52 6 116 q3 64 5.5 127.5 q2.5 63.5 4 122 q1.5 58.5 2.5 100.5 l-138 0 q0 -13 -0.5 -26 q-0.5 -13 -1.5 -26 q-4 -79 -9.5 -156.5 q-5.5 -77.5 -27.5 -153 q-22 -75.5 -68 -149.5 q-46 -74 -131 -145 l-60 48 q38 30 67.5 60.5 q29.5 30.5 52.5 62.5 q-46 -9 -101 -19 q-55 -10 -113.5 -20 q-58.5 -10 -118.5 -20 q-60 -10 -117 -20 l-12 75 q23 4 46.5 7 q23.5 3 47.5 8 l0 666 l318 0 l0 -612 q13 3 25 5.5 q12 2.5 23 4.5 l5 -70 q29 42 47 87.5 q18 45.5 29 97 q11 51.5 16 109.5 q5 58 7 125 q0 11 0.5 26.5 q0.5 15.5 0.5 34.5 l-111 0 l0 70 l112 0 q1 33 1 66 q0 33 1 59 q0 31 1 58 l75 -4 l0 -52 q0 -24 0 -56.5 q0 -32.5 -1 -70.5 l210 0 ZM196 671 l0 -147 l176 0 l0 147 l-176 0 ZM372 457 l-176 0 l0 -136 l176 0 l0 136 ZM196 85 q46 8 90.5 15 q44.5 7 85.5 15 l0 140 l-176 0 l0 -170 Z" /><glyph glyph-name="uni5316" unicode="&#x5316;" d="M375 774 q-21 -61 -46 -116.5 q-25 -55.5 -54 -107.5 l0 -645 l-78 0 l0 520 q-28 -40 -58 -77.5 q-30 -37.5 -62 -74.5 l-50 56 q42 49 82 105 q40 56 75.5 116 q35.5 60 65 122.5 q29.5 62.5 51.5 125.5 l74 -24 ZM927 180 q-1 -30 -4.5 -65.5 q-3.5 -35.5 -9.5 -64.5 q-6 -31 -14.5 -52 q-8.5 -21 -23.5 -34 q-15 -13 -39.5 -19.5 q-24.5 -6.5 -61.5 -7.5 q-74 -3 -148 0 q-38 1 -63.5 7.5 q-25.5 6.5 -42 21 q-16.5 14.5 -23.5 39 q-7 24.5 -7 62.5 l0 173 q-38 -26 -76.5 -50.5 q-38.5 -24.5 -80.5 -47.5 l-40 66 q101 58 197 128 l0 462 l79 -5 l0 -397 q148 120 277 271 l57 -56 q-78 -88 -159.5 -166 q-81.5 -78 -174.5 -148 l0 -212 q0 -21 4 -34.5 q4 -13.5 13 -21.5 q9 -8 23.5 -11.5 q14.5 -3.5 35.5 -4.5 q57 -3 115 0 q23 1 37 4 q14 3 22.5 10.5 q8.5 7.5 13 19.5 q4.5 12 8.5 31 q5 26 7.5 59 q2.5 33 4.5 68 l74 -25 Z" /><glyph glyph-name="uni533B" unicode="&#x533b;" d="M926 14 l0 -70 l-789 0 l0 807 l778 0 l0 -70 l-706 0 l0 -667 l717 0 ZM603 308 q-2 -11 -4.5 -21.5 q-2.5 -10.5 -5.5 -21.5 q29 -14 67 -33.5 q38 -19.5 77 -41 q39 -21.5 75.5 -43.5 q36.5 -22 63.5 -40 l-35 -70 q-28 21 -63.5 44 q-35.5 23 -73 46 q-37.5 23 -74 43 q-36.5 20 -66.5 35 q-35 -54 -101.5 -95.5 q-66.5 -41.5 -175.5 -79.5 l-37 64 q67 21 115 44 q48 23 81 48.5 q33 25.5 52.5 55.5 q19.5 30 28.5 66 l-281 0 l0 67 l290 0 l0 4 q0 7 0.5 22.5 q0.5 15.5 1 33.5 q0.5 18 1 36 q0.5 18 0.5 32 l-136 0 q-19 -29 -39 -56.5 q-20 -27.5 -42 -51.5 l-55 40 q22 25 43.5 54.5 q21.5 29.5 40.5 60.5 q19 31 34.5 62 q15.5 31 26.5 59 l62 -27 q-8 -19 -16 -37.5 q-8 -18.5 -18 -38.5 l414 0 l0 -65 l-242 0 q0 -14 -0.5 -33 q-0.5 -19 -1 -37.5 q-0.5 -18.5 -1 -34 q-0.5 -15.5 -0.5 -22.5 l0 -1 l300 0 l0 -67 l-306 0 Z" /><glyph glyph-name="uni53CB" unicode="&#x53cb;" d="M905 -99 q-106 39 -188 80.5 q-82 41.5 -148 91.5 q-66 -48 -149 -89.5 q-83 -41.5 -191 -83.5 l-41 70 q100 35 179 72.5 q79 37.5 142 81.5 q-55 52 -97 114 q-42 62 -77 140 q-38 -119 -98 -231 q-60 -112 -151 -217 l-64 49 q63 72 110.5 147.5 q47.5 75.5 81 154.5 q33.5 79 56 159 q22.5 80 36.5 161 l-235 0 l0 74 l246 0 q5 34 8 67.5 q3 33.5 5 66.5 l81 -6 q-4 -62 -12 -128 l530 0 l0 -74 l-541 0 q-11 -66 -27 -132 l459 0 l0 -71 q-36 -86 -82 -153 q-46 -67 -109 -123 q61 -44 137.5 -79.5 q76.5 -35.5 175.5 -66.5 l-37 -75 ZM402 398 q34 -69 74.5 -125.5 q40.5 -56.5 92.5 -103.5 q59 50 101 106.5 q42 56.5 72 122.5 l-340 0 Z" /><glyph glyph-name="uni53D1" unicode="&#x53d1;" d="M765 635 q-15 14 -37.5 30 q-22.5 16 -46.5 31 q-24 15 -47.5 28 q-23.5 13 -40.5 21 l38 61 q16 -8 39 -20.5 q23 -12.5 47 -26.5 q24 -14 46 -28 q22 -14 37 -25 l-35 -71 ZM901 -108 q-103 32 -189.5 71 q-86.5 39 -157.5 90 q-66 -44 -150 -80.5 q-84 -36.5 -196 -75.5 l-34 70 q103 32 181.5 64 q78.5 32 138.5 69 q-47 42 -84 91 q-37 49 -66 108 q-45 -96 -109.5 -183 q-64.5 -87 -153.5 -177 l-59 52 q61 61 111.5 123.5 q50.5 62.5 90 129.5 q39.5 67 70 140 q30.5 73 51.5 154 l-223 0 l0 63 q5 18 11.5 42.5 q6.5 24.5 13 50.5 q6.5 26 12.5 50 q6 24 9 41 l75 -16 q-3 -15 -8.5 -36.5 q-5.5 -21.5 -11 -44.5 q-5.5 -23 -10.5 -44.5 q-5 -21.5 -9 -36.5 l158 0 q20 90 30 193 l77 -7 q-6 -51 -13 -97 q-7 -46 -15 -89 l469 0 l0 -69 l-484 0 q-8 -32 -16.5 -63 q-8.5 -31 -18.5 -60 l410 0 l0 -70 q-38 -78 -81 -136 q-43 -58 -98 -106 q63 -42 140 -75.5 q77 -33.5 174 -62.5 l-35 -73 ZM406 344 q30 -58 68.5 -106.5 q38.5 -48.5 88.5 -89.5 q51 42 88 89.5 q37 47.5 66 106.5 l-311 0 Z" /><glyph glyph-name="uni53F7" unicode="&#x53f7;" d="M791 497 l-603 0 l0 257 l603 0 l0 -257 ZM716 690 l-452 0 l0 -129 l452 0 l0 129 ZM319 342 l-20 -104 l480 0 q-1 -11 -2.5 -36.5 q-1.5 -25.5 -4 -54 q-2.5 -28.5 -4.5 -54 q-2 -25.5 -3 -35.5 q-4 -44 -14.5 -71 q-10.5 -27 -34.5 -43 q-24 -16 -66 -23 q-42 -7 -109 -11 l-87 -5 l-24 76 l108 4 q46 2 73.5 6 q27.5 4 42.5 13.5 q15 9.5 21 26.5 q6 17 8 44 q1 8 2.5 21 q1.5 13 3 26.5 q1.5 13.5 3 26.5 q1.5 13 1.5 22 l-492 0 l34 171 l-184 0 l0 66 l879 0 l0 -66 l-611 0 Z" /><glyph glyph-name="uni53F8" unicode="&#x53f8;" d="M864 36 q0 -33 -6.5 -54 q-6.5 -21 -22 -34.5 q-15.5 -13.5 -41 -20 q-25.5 -6.5 -62.5 -9.5 l-107 -9 l-25 77 l100 6 q26 1 42 4.5 q16 3.5 25 11.5 q9 8 12 22 q3 14 3 37 l0 609 l-643 0 l0 74 l725 0 l0 -714 ZM726 559 l0 -70 l-651 0 l0 70 l651 0 ZM170 375 l450 0 l0 -337 l-450 0 l0 337 ZM541 110 l0 193 l-292 0 l0 -193 l292 0 Z" /><glyph glyph-name="uni5408" unicode="&#x5408;" d="M527 793 q41 -60 92 -109.5 q51 -49.5 107.5 -89 q56.5 -39.5 115.5 -71.5 q59 -32 115 -58 l-41 -75 q-150 72 -255 157.5 q-105 85.5 -171 172.5 q-69 -95 -179.5 -178.5 q-110.5 -83.5 -246.5 -150.5 l-41 75 q162 74 265.5 155 q103.5 81 165.5 172 l73 0 ZM729 488 l0 -70 l-477 0 l0 70 l477 0 ZM185 291 l613 0 l0 -383 l-77 0 l0 52 l-459 0 l0 -52 l-77 0 l0 383 ZM262 224 l0 -194 l459 0 l0 194 l-459 0 Z" /><glyph glyph-name="uni540C" unicode="&#x540c;" d="M862 37 q0 -36 -6.5 -59 q-6.5 -23 -22.5 -37 q-16 -14 -43.5 -20.5 q-27.5 -6.5 -69.5 -8.5 l-56 -3 l-27 72 l70 4 q26 1 41.5 4.5 q15.5 3.5 24 11.5 q8.5 8 11 21 q2.5 13 2.5 34 l0 619 l-604 0 l0 -764 l-72 0 l0 834 l752 0 l0 -708 ZM728 557 l0 -67 l-483 0 l0 67 l483 0 ZM668 381 l0 -311 l-365 0 l0 311 l365 0 ZM371 134 l229 0 l0 182 l-229 0 l0 -182 Z" /><glyph glyph-name="uni5546" unicode="&#x5546;" d="M703 637 q-5 -16 -10.5 -34 q-5.5 -18 -11 -34.5 q-5.5 -16.5 -10.5 -31 q-5 -14.5 -8 -23.5 l193 0 l0 -499 q-1 -29 -5 -46.5 q-4 -17.5 -15 -28.5 q-11 -11 -32 -16 q-21 -5 -55 -8 l-69 -6 l-22 67 l80 7 q15 1 24.5 3.5 q9.5 2.5 14.5 8.5 q5 6 7 16.5 q2 10.5 2 28.5 l0 407 l-588 0 l0 -535 l-69 0 l0 601 l191 0 q-8 30 -18.5 64.5 q-10.5 34.5 -18.5 58.5 l-228 0 l0 68 l413 0 q-8 25 -16 48.5 q-8 23.5 -14 39.5 l74 14 q7 -17 17 -46 q10 -29 19 -56 l387 0 l0 -68 l-232 0 ZM590 514 q11 27 23 62.5 q12 35.5 19 60.5 l-276 0 q8 -26 18.5 -61 q10.5 -35 17.5 -62 l198 0 ZM321 17 l0 256 q-13 -11 -27 -22.5 q-14 -11.5 -31 -24.5 l-48 48 q27 19 49 36.5 q22 17.5 42 36.5 q20 19 38 39 q18 20 37 43 l51 -44 q-24 -31 -49 -56 q-25 -25 -57 -52 l340 0 l0 -260 l-345 0 ZM723 223 q-15 17 -37.5 39.5 q-22.5 22.5 -47 45 q-24.5 22.5 -47.5 42.5 q-23 20 -38 32 l45 44 q13 -11 36 -30.5 q23 -19.5 48 -41 q25 -21.5 47.5 -42.5 q22.5 -21 35.5 -35 l-42 -54 ZM390 81 l208 0 l0 130 l-208 0 l0 -130 Z" /><glyph glyph-name="uni55E8" unicode="&#x55e8;" d="M861 268 q-1 -42 -1.5 -81.5 q-0.5 -39.5 -2.5 -71.5 l64 0 l0 -65 l-65 0 q-1 -9 -1 -15 q0 -6 0 -8 q-1 -33 -7 -53.5 q-6 -20.5 -20.5 -32.5 q-14.5 -12 -38.5 -17.5 q-24 -5.5 -60 -8.5 l-56 -5 l-22 62 l78 6 q22 1 34.5 5.5 q12.5 4.5 19.5 12.5 q7 8 9 20.5 q2 12.5 3 30.5 l0 3 l-297 0 l16 218 l-59 0 l0 61 l64 0 l15 202 l-25 -39 l-55 40 q24 30 45.5 64.5 q21.5 34.5 39.5 70.5 q18 36 32.5 72 q14.5 36 25.5 68 l61 -18 q-8 -22 -16 -43.5 q-8 -21.5 -18 -43.5 l286 0 l0 -64 l-316 0 q-25 -48 -50 -91 l325 0 q0 -5 -0.5 -24 q-0.5 -19 -1.5 -49 q-1 -30 -2 -67.5 q-1 -37.5 -2 -77.5 l79 0 l0 -61 l-81 0 ZM450 583 q-10 14 -26 33 q-16 19 -34 38 q-18 19 -36 36.5 q-18 17.5 -31 28.5 l45 50 q13 -11 30.5 -27.5 q17.5 -16.5 35 -35 q17.5 -18.5 34 -36.5 q16.5 -18 28.5 -33 l-46 -54 ZM302 65 l-209 0 l0 635 l209 0 l0 -199 l36 40 q13 -11 30.5 -27.5 q17.5 -16.5 35 -35 q17.5 -18.5 34 -36.5 q16.5 -18 28.5 -33 l-46 -54 q-9 13 -23.5 30 q-14.5 17 -31 34.5 q-16.5 17.5 -33 34.5 q-16.5 17 -30.5 29 l0 -418 ZM244 629 l-91 0 l0 -491 l91 0 l0 491 ZM579 329 l224 0 q1 57 2 101 q1 44 1 54 l-215 0 l-12 -155 ZM666 471 q10 -7 23 -17.5 q13 -10.5 26 -22.5 q13 -12 24.5 -24 q11.5 -12 20.5 -22 l-40 -49 q-17 26 -44 53.5 q-27 27.5 -48 42.5 l38 39 ZM413 261 l29 -11 q-7 -33 -18 -79 q-11 -46 -25 -95.5 q-14 -49.5 -30 -96.5 q-16 -47 -31 -81 l-64 27 q16 33 32.5 78.5 q16.5 45.5 30.5 94 q14 48.5 25.5 95 q11.5 46.5 17.5 80.5 l33 -12 ZM797 115 q1 32 2 71.5 q1 39.5 2 81.5 l-226 0 l-12 -153 l234 0 ZM711 120 q-17 26 -44 53.5 q-27 27.5 -48 42.5 l38 39 q10 -7 23 -17.5 q13 -10.5 26 -22.5 q13 -12 24.5 -24 q11.5 -12 20.5 -22 l-40 -49 Z" /><glyph glyph-name="uni5668" unicode="&#x5668;" d="M921 172 q-19 4 -37 7.5 q-18 3.5 -35 8.5 l0 -277 l-67 0 l0 50 l-184 0 l0 -50 l-67 0 l0 302 l230 0 q-80 26 -143 62.5 q-63 36.5 -111 84.5 l-40 0 q-17 -24 -39 -44 q-22 -20 -52 -37.5 q-30 -17.5 -68.5 -33.5 q-38.5 -16 -89.5 -32 l229 0 l0 -302 l-67 0 l0 50 l-179 0 l0 -50 l-67 0 l0 278 q-17 -4 -34 -8 q-17 -4 -36 -9 l-29 67 q136 23 216 51.5 q80 28.5 124 69.5 l-299 0 l0 64 l347 0 q9 18 16 38.5 q7 20.5 13 43.5 l75 -16 q-12 -36 -24 -66 l181 0 q-17 16 -35.5 32.5 q-18.5 16.5 -31.5 24.5 l34 38 l-117 0 l0 244 l317 0 l0 -244 l-185 0 q20 -15 40.5 -33 q20.5 -18 40.5 -35 l-19 -27 l177 0 l0 -64 l-305 0 q55 -48 137.5 -76 q82.5 -28 208.5 -46 l-25 -66 ZM444 519 l-315 0 l0 244 l315 0 l0 -244 ZM377 703 l-181 0 l0 -123 l181 0 l0 123 ZM601 580 l184 0 l0 123 l-184 0 l0 -123 ZM380 153 l-179 0 l0 -133 l179 0 l0 133 ZM782 20 l0 133 l-184 0 l0 -133 l184 0 Z" /><glyph glyph-name="uni56FD" unicode="&#x56fd;" d="M182 -44 l0 -56 l-74 0 l0 857 l770 0 l0 -857 l-74 0 l0 56 l-622 0 ZM182 25 l622 0 l0 665 l-622 0 l0 -665 ZM451 174 l0 173 l-191 0 l0 64 l191 0 l0 124 l-208 0 l0 64 l497 0 l0 -64 l-216 0 l0 -124 l202 0 l0 -64 l-202 0 l0 -173 l233 0 l0 -65 l-531 0 l0 65 l225 0 ZM630 339 q20 -23 42.5 -55 q22.5 -32 38.5 -62 l-50 -37 q-19 36 -39.5 67.5 q-20.5 31.5 -40.5 55.5 l49 31 Z" /><glyph glyph-name="uni56FE" unicode="&#x56fe;" d="M872 755 l0 -860 l-70 0 l0 56 l-622 0 l0 -56 l-70 0 l0 860 l762 0 ZM802 16 l0 673 l-622 0 l0 -673 l622 0 ZM548 407 q55 -24 117 -41.5 q62 -17.5 133 -33.5 l-28 -62 q-88 24 -156 49 q-68 25 -124 55 q-56 -29 -124 -55.5 q-68 -26.5 -155 -52.5 l-27 56 q75 21 136 42.5 q61 21.5 112 44.5 q-57 38 -108 92 q-20 -22 -42 -41.5 q-22 -19.5 -45 -38.5 l-34 44 q27 22 53.5 49 q26.5 27 50 55.5 q23.5 28.5 43.5 57 q20 28.5 35 54.5 l55 -23 q-19 -33 -43 -68 l311 0 l0 -53 q-38 -38 -76.5 -70 q-38.5 -32 -83.5 -60 ZM362 537 q57 -61 127 -100 q81 44 134 100 l-261 0 ZM352 310 q25 -3 62.5 -10.5 q37.5 -7.5 77 -16 q39.5 -8.5 77 -18 q37.5 -9.5 64.5 -17.5 l-9 -61 q-26 10 -63 21 q-37 11 -76.5 20.5 q-39.5 9.5 -77 16.5 q-37.5 7 -63.5 10 l8 55 ZM281 186 q37 -3 90.5 -12 q53.5 -9 109.5 -20.5 q56 -11.5 108 -24.5 q52 -13 88 -25 l-11 -62 q-36 14 -88 28.5 q-52 14.5 -107.5 26.5 q-55.5 12 -108 21 q-52.5 9 -89.5 12 l8 56 Z" /><glyph glyph-name="uni5728" unicode="&#x5728;" d="M392 613 q-52 -117 -125 -216 l0 -494 l-74 0 l0 401 q-28 -32 -58 -62 q-30 -30 -63 -60 l-52 59 q94 77 166 171 q72 94 124 201 l-251 0 l0 72 l284 0 q28 66 47 133 l72 -18 q-17 -58 -39 -115 l486 0 l0 -72 l-517 0 ZM918 42 l0 -71 l-619 0 l0 71 l265 0 l0 259 l-223 0 l0 72 l223 0 l0 168 l75 -3 l0 -165 l233 0 l0 -72 l-233 0 l0 -259 l279 0 Z" /><glyph glyph-name="uni5730" unicode="&#x5730;" d="M937 120 q-1 -33 -6 -65.5 q-5 -32.5 -12 -63.5 q-3 -15 -11 -26.5 q-8 -11.5 -23.5 -19 q-15.5 -7.5 -39 -12.5 q-23.5 -5 -58.5 -6 q-127 -6 -254 0 q-35 1 -60 7 q-25 6 -40.5 19.5 q-15.5 13.5 -22.5 37 q-7 23.5 -7 61.5 l0 348 l-87 -30 l-17 70 l104 35 l0 238 l71 -5 l0 -209 l118 39 l0 262 l72 -5 l0 -233 l208 70 l-13 -351 q-1 -28 -6 -46.5 q-5 -18.5 -16.5 -30 q-11.5 -11.5 -30.5 -17.5 q-19 -6 -49 -9 l-40 -4 l-24 72 l42 4 q16 1 26 4.5 q10 3.5 15.5 10.5 q5.5 7 8 19 q2.5 12 3.5 31 q1 9 2 41 q1 32 2.5 69 q1.5 37 3 69 q1.5 32 1.5 41 l-133 -46 l0 -397 l-72 0 l0 373 l-118 -41 l0 -341 q0 -26 2 -41.5 q2 -15.5 9.5 -24.5 q7.5 -9 21.5 -13 q14 -4 37 -5 q107 -6 214 0 q49 3 69.5 10.5 q20.5 7.5 26.5 31.5 q6 25 9 52 q3 27 4 51 l70 -24 ZM366 130 l5 -31 q-29 -13 -70 -30 q-41 -17 -85.5 -34.5 q-44.5 -17.5 -86 -32.5 q-41.5 -15 -69.5 -24 l-27 69 q28 8 64.5 20.5 q36.5 12.5 75.5 26.5 l0 363 l-112 0 l0 70 l112 0 l0 253 l69 -3 l0 -250 l105 0 l0 -70 l-105 0 l0 -337 q35 14 65 26.5 q30 12.5 53 22.5 l6 -39 Z" /><glyph glyph-name="uni5733" unicode="&#x5733;" d="M354 120 q-30 -10 -69 -22 q-39 -12 -79.5 -23 q-40.5 -11 -79.5 -20.5 q-39 -9.5 -69 -14.5 l-14 74 q28 5 62.5 12.5 q34.5 7.5 71.5 17.5 l0 335 l-108 0 l0 73 l108 0 l0 248 l72 -3 l0 -245 l104 0 l0 -73 l-104 0 l0 -315 q26 8 50.5 15 q24.5 7 44.5 14 l4 -30 l6 -43 ZM869 788 l0 -882 l-74 0 l0 885 l74 -3 ZM405 790 l71 -3 l0 -332 q0 -77 -2.5 -138.5 q-2.5 -61.5 -8.5 -111.5 q-6 -50 -16 -92 q-10 -42 -25 -79.5 q-15 -37.5 -35.5 -74 q-20.5 -36.5 -47.5 -75.5 l-67 43 q30 42 51.5 77 q21.5 35 36 68.5 q14.5 33.5 23 69.5 q8.5 36 13 80.5 q4.5 44.5 6 100 q1.5 55.5 1.5 129.5 l0 338 ZM597 746 l73 -3 l0 -780 l-73 0 l0 783 Z" /><glyph glyph-name="uni5904" unicode="&#x5904;" d="M721 10 q54 -2 110 -1.5 q56 0.5 110 3.5 l-16 -80 q-52 -3 -109.5 -3.5 q-57.5 -0.5 -109.5 1.5 q-62 2 -118.5 10.5 q-56.5 8.5 -107 26.5 q-50.5 18 -95 48 q-44.5 30 -83.5 75 q-41 -50 -90.5 -97.5 q-49.5 -47.5 -109.5 -95.5 l-59 54 q66 51 118.5 100.5 q52.5 49.5 94.5 102.5 q-29 46 -53 103.5 q-24 57.5 -44 129.5 q-15 -28 -31 -55.5 q-16 -27.5 -34 -56.5 l-59 40 q70 100 118 224 q48 124 75 256 l73 -9 q-8 -37 -17 -72 q-9 -35 -20 -69 l242 0 l0 -78 q-20 -121 -57 -221.5 q-37 -100.5 -99 -191.5 q34 -40 73.5 -66.5 q39.5 -26.5 86 -43 q46.5 -16.5 99 -24.5 q52.5 -8 112.5 -10 ZM680 50 l-78 0 l0 742 l78 -3 l0 -739 ZM206 485 q20 -85 44 -150 q24 -65 53 -116 q51 78 82.5 164 q31.5 86 48.5 186 l-195 0 q-15 -44 -33 -84 ZM895 306 q-47 51 -98 94 q-51 43 -106 74 l35 59 q114 -67 202 -146 l-33 -81 Z" /><glyph glyph-name="uni5907" unicode="&#x5907;" d="M568 483 q72 -28 164 -49 q92 -21 217 -38 l-26 -72 q-153 25 -258.5 53.5 q-105.5 28.5 -181.5 64.5 q-90 -39 -194.5 -69.5 q-104.5 -30.5 -232.5 -53.5 l-24 66 q113 19 204.5 44 q91.5 25 168.5 56 q-38 25 -71.5 53 q-33.5 28 -67.5 62 q-35 -32 -73 -63 q-38 -31 -81 -60 l-52 56 q51 30 95.5 66 q44.5 36 81.5 73.5 q37 37.5 66 74 q29 36.5 48 67.5 l80 -21 q-11 -17 -24 -35 q-13 -18 -27 -36 l430 0 l0 -73 q-56 -48 -115 -89 q-59 -41 -127 -77 ZM315 649 q39 -38 80 -70 q41 -32 91 -58 q62 30 114 63.5 q52 33.5 99 70.5 l-378 0 l-6 -6 ZM172 326 l629 0 l0 -439 l-76 0 l0 52 l-478 0 l0 -52 l-75 0 l0 439 ZM247 259 l0 -95 l207 0 l0 95 l-207 0 ZM725 259 l-198 0 l0 -95 l198 0 l0 95 ZM454 6 l0 95 l-207 0 l0 -95 l207 0 ZM725 6 l0 95 l-198 0 l0 -95 l198 0 Z" /><glyph glyph-name="uni5916" unicode="&#x5916;" d="M333 789 q-10 -36 -21 -72 q-11 -36 -23 -72 l230 0 l0 -74 q-18 -107 -50.5 -196 q-32.5 -89 -81.5 -168.5 q-49 -79.5 -116 -153.5 q-67 -74 -154 -152 l-60 60 q87 73 151.5 142 q64.5 69 111 141 q46.5 72 77 152 q30.5 80 49.5 175 l-185 0 q-14 -35 -30 -70 q-16 -35 -33 -68 q18 -11 38 -24.5 q20 -13.5 39.5 -27.5 q19.5 -14 37 -28 q17.5 -14 29.5 -25 l-43 -77 q-11 13 -27.5 28.5 q-16.5 15.5 -35 30.5 q-18.5 15 -38 29.5 q-19.5 14.5 -36.5 25.5 q-16 -26 -32 -51.5 q-16 -25.5 -33 -49.5 l-58 55 q36 51 68 109 q32 58 59.5 120.5 q27.5 62.5 50 126.5 q22.5 64 37.5 127 l79 -13 ZM678 798 l0 -895 l-73 0 l0 897 l73 -2 ZM720 494 q54 -35 113.5 -77 q59.5 -42 108.5 -86 l-44 -76 q-46 52 -104 97.5 q-58 45.5 -116 80.5 l42 61 Z" /><glyph glyph-name="uni597D" unicode="&#x597d;" d="M330 166 q39 -33 74 -65 q35 -32 59 -57 l-52 -72 q-22 26 -54 58.5 q-32 32.5 -68 65.5 q-35 -49 -81.5 -95 q-46.5 -46 -111.5 -99 l-57 55 q65 50 112 94 q47 44 82 95 q-38 32 -72.5 59.5 q-34.5 27.5 -60.5 46.5 q17 69 32.5 143 q15.5 74 27.5 155 l-102 0 l0 75 l113 0 q6 44 10.5 89 q4.5 45 8.5 92 l72 -6 q-5 -48 -9.5 -91 q-4.5 -43 -9.5 -84 l179 0 l0 -71 q-15 -132 -35.5 -224.5 q-20.5 -92.5 -56.5 -163.5 ZM939 317 l-225 0 l0 -285 q0 -33 -6 -55.5 q-6 -22.5 -22 -36 q-16 -13.5 -42.5 -20.5 q-26.5 -7 -66.5 -9 l-53 -4 l-24 78 l64 4 q24 1 38.5 5 q14.5 4 22.5 12 q8 8 11 21 q3 13 3 33 l0 257 l-214 0 l0 74 l214 0 l0 119 q43 34 83.5 71.5 q40.5 37.5 78.5 79.5 l-335 0 l0 75 l431 0 l0 -74 q-44 -50 -88 -94.5 q-44 -44.5 -95 -84.5 l0 -92 l225 0 l0 -74 ZM178 285 q20 -13 44 -31 q24 -18 51 -40 q30 63 49 143 q19 80 33 193 l-123 0 q-11 -70 -24 -134.5 q-13 -64.5 -30 -130.5 Z" /><glyph glyph-name="uni59CB" unicode="&#x59cb;" d="M476 419 q-23 -1 -60 -7 l-15 69 q20 8 28 14 q8 6 16 17 q18 23 40.5 58.5 q22.5 35.5 45 76.5 q22.5 41 44 83.5 q21.5 42.5 37.5 80.5 l68 -28 q-15 -34 -35 -73.5 q-20 -39.5 -42.5 -79 q-22.5 -39.5 -45 -75.5 q-22.5 -36 -42.5 -62 q16 1 52.5 2.5 q36.5 1.5 79.5 4 q43 2.5 86 4.5 q43 2 72 4 q-24 45 -48.5 87 q-24.5 42 -43.5 69 l58 33 q18 -24 40.5 -60.5 q22.5 -36.5 45 -76 q22.5 -39.5 42.5 -78 q20 -38.5 31 -66.5 l-63 -44 q-5 14 -12.5 30.5 q-7.5 16.5 -15.5 34.5 q-18 -1 -49 -2.5 q-31 -1.5 -67.5 -3 q-36.5 -1.5 -76 -3.5 q-39.5 -2 -74 -3.5 q-34.5 -1.5 -60.5 -3 q-26 -1.5 -36 -2.5 ZM301 146 q35 -31 65.5 -61.5 q30.5 -30.5 51.5 -53.5 l-45 -68 q-20 25 -48.5 55 q-28.5 30 -61.5 61 q-29 -46 -68.5 -92 q-39.5 -46 -93.5 -100 l-50 50 q55 53 94 98 q39 45 67 91 q-35 32 -68.5 59.5 q-33.5 27.5 -59.5 44.5 q19 76 33.5 155.5 q14.5 79.5 25.5 160.5 l-90 0 l0 73 l100 0 q5 46 9.5 91.5 q4.5 45.5 7.5 90.5 l69 -5 q-8 -92 -18 -177 l164 0 l0 -73 q-6 -70 -13.5 -127 q-7.5 -57 -17.5 -105.5 q-10 -48.5 -23 -89.5 q-13 -41 -30 -78 ZM159 260 q18 -12 40.5 -29.5 q22.5 -17.5 46.5 -37.5 q15 34 25.5 71 q10.5 37 18.5 80 q8 43 14 93 q6 50 12 109 l-104 0 q-11 -76 -23.5 -147 q-12.5 -71 -29.5 -139 ZM450 309 l420 0 l0 -408 l-73 0 l0 58 l-275 0 l0 -57 l-72 0 l0 407 ZM522 239 l0 -211 l275 0 l0 211 l-275 0 Z" /><glyph glyph-name="uni5B66" unicode="&#x5b66;" d="M168 433 l-75 0 l0 193 l158 0 q-6 14 -15 32 q-9 18 -19 36.5 q-10 18.5 -20.5 35 q-10.5 16.5 -19.5 27.5 l69 29 q7 -10 18.5 -28.5 q11.5 -18.5 23.5 -39.5 q12 -21 22.5 -40.5 q10.5 -19.5 15.5 -31.5 l-42 -20 l193 0 q-5 16 -13 37 q-8 21 -17.5 43 q-9.5 22 -19.5 42.5 q-10 20.5 -17 34.5 l70 23 q6 -9 16 -31 q10 -22 21 -47.5 q11 -25.5 20.5 -49 q9.5 -23.5 13.5 -35.5 l-47 -17 l135 0 q13 19 27 42 q14 23 26.5 46.5 q12.5 23.5 23.5 45.5 q11 22 19 40 l73 -29 q-16 -30 -39 -70.5 q-23 -40.5 -44 -74.5 l166 0 l0 -193 l-75 0 l0 122 l-648 0 l0 -122 ZM924 156 l-377 0 l0 -126 q0 -34 -6.5 -55 q-6.5 -21 -22.5 -33.5 q-16 -12.5 -42 -17.5 q-26 -5 -66 -8 l-78 -5 l-22 72 l83 6 q24 2 38.5 4.5 q14.5 2.5 23 9 q8.5 6.5 11 18 q2.5 11.5 2.5 32.5 l0 103 l-408 0 l0 73 l408 0 l0 48 l167 105 l-413 0 l0 72 l540 0 l0 -69 l-215 -138 l0 -18 l377 0 l0 -73 Z" /><glyph glyph-name="uni5B89" unicode="&#x5b89;" d="M189 497 l-76 0 l0 187 l349 0 q-8 29 -17.5 57 q-9.5 28 -17.5 48 l75 21 q10 -24 22 -59 q12 -35 20 -67 l333 0 l0 -187 l-75 0 l0 117 l-613 0 l0 -117 ZM741 351 q-29 -75 -59 -132.5 q-30 -57.5 -73 -102.5 q78 -35 150.5 -71.5 q72.5 -36.5 126.5 -68.5 l-33 -76 q-59 38 -139 80 q-80 42 -167 81 q-35 -25 -79 -47 q-44 -22 -99.5 -41.5 q-55.5 -19.5 -124 -37 q-68.5 -17.5 -153.5 -35.5 l-28 73 q148 25 245.5 54.5 q97.5 29.5 160.5 68.5 q-75 32 -144 58 q-69 26 -124 43 q24 35 48 73.5 q24 38.5 47 80.5 l-251 0 l0 71 l289 0 q21 42 40 82 q19 40 35 76 l77 -26 q-14 -30 -29.5 -63.5 q-15.5 -33.5 -33.5 -68.5 l516 0 l0 -71 l-198 0 ZM535 147 q41 40 67.5 90 q26.5 50 49.5 114 l-266 0 q-37 -69 -72 -121 q47 -14 103.5 -35.5 q56.5 -21.5 117.5 -47.5 Z" /><glyph glyph-name="uni5B9E" unicode="&#x5b9e;" d="M177 493 l-73 0 l0 196 l364 0 q-8 29 -18 60 q-10 31 -18 50 l74 14 q4 -10 9.5 -25.5 q5.5 -15.5 11.5 -33 q6 -17.5 11.5 -34.5 q5.5 -17 10.5 -31 l333 0 l0 -198 l-75 0 l0 130 l-630 0 l0 -128 ZM887 -97 q-38 23 -84.5 47 q-46.5 24 -95.5 46.5 q-49 22.5 -97.5 41.5 q-48.5 19 -88.5 33 q-59 -60 -160 -100 q-101 -40 -260 -72 l-33 74 q94 18 164.5 37 q70.5 19 121.5 41.5 q51 22.5 85 50 q34 27.5 55 60.5 l-429 0 l0 68 l459 0 q11 35 15.5 75 q4.5 40 7.5 88 q1 14 2 39.5 q1 25.5 1.5 53.5 q0.5 28 1.5 53.5 q1 25.5 1 39.5 l77 -3 q0 -12 -0.5 -38.5 q-0.5 -26.5 -1.5 -56.5 q-1 -30 -2 -57 q-1 -27 -2 -41 q-2 -44 -6 -81.5 q-4 -37.5 -12 -71.5 l312 0 l0 -68 l-335 0 q-4 -9 -8 -17.5 q-4 -8.5 -9 -16.5 q40 -13 89 -32 q49 -19 97.5 -40 q48.5 -21 92.5 -42 q44 -21 74 -38 l-32 -73 ZM469 386 q-19 16 -48 35 q-29 19 -60.5 37 q-31.5 18 -62 34 q-30.5 16 -51.5 27 l30 60 q23 -9 53.5 -24 q30.5 -15 62 -32 q31.5 -17 60 -34 q28.5 -17 46.5 -30 l-30 -73 ZM198 439 q25 -12 58 -29 q33 -17 65.5 -36 q32.5 -19 61.5 -37 q29 -18 48 -32 l-34 -66 q-22 18 -53.5 38.5 q-31.5 20.5 -64 40.5 q-32.5 20 -62.5 36.5 q-30 16.5 -50 26.5 l31 58 Z" /><glyph glyph-name="uni5BA1" unicode="&#x5ba1;" d="M885 708 l0 -172 l-75 0 l0 103 l-638 0 l0 -103 l-75 0 l0 172 l367 0 q-8 25 -16 48.5 q-8 23.5 -14 39.5 l74 14 q7 -17 17 -46 q10 -29 19 -56 l341 0 ZM529 510 l293 0 l0 -444 l-293 0 l0 -168 l-73 0 l0 168 l-296 0 l0 444 l296 0 l0 96 l73 -3 l0 -93 ZM233 444 l0 -126 l223 0 l0 126 l-223 0 ZM529 444 l0 -126 l221 0 l0 126 l-221 0 ZM456 131 l0 123 l-223 0 l0 -123 l223 0 ZM750 131 l0 123 l-221 0 l0 -123 l221 0 Z" /><glyph glyph-name="uni5DDE" unicode="&#x5dde;" d="M71 -59 q56 56 91.5 105.5 q35.5 49.5 55.5 108 q20 58.5 27 134 q7 75.5 7 182.5 l0 327 l72 -3 l0 -327 q0 -114 -8 -196 q-8 -82 -29.5 -147 q-21.5 -65 -58.5 -119.5 q-37 -54.5 -95 -112.5 l-62 48 ZM854 795 l0 -885 l-74 0 l0 888 l74 -3 ZM584 771 l0 -843 l-74 0 l0 846 l74 -3 ZM49 265 q14 31 27.5 70.5 q13.5 39.5 25 80.5 q11.5 41 21 81.5 q9.5 40.5 15.5 74.5 l63 -15 q-6 -33 -16 -74.5 q-10 -41.5 -22.5 -84.5 q-12.5 -43 -25.5 -84 q-13 -41 -25 -71 l-63 22 ZM659 569 q15 -28 31.5 -63.5 q16.5 -35.5 32 -72.5 q15.5 -37 28.5 -73 q13 -36 22 -66 l-64 -28 q-9 31 -22 66.5 q-13 35.5 -27.5 72 q-14.5 36.5 -30.5 71.5 q-16 35 -31 64 l61 29 ZM390 568 q14 -29 29.5 -65 q15.5 -36 30.5 -73 q15 -37 28.5 -72.5 q13.5 -35.5 23.5 -63.5 l-64 -29 q-10 31 -23 67.5 q-13 36.5 -27.5 73.5 q-14.5 37 -29.5 71.5 q-15 34.5 -28 62.5 l60 28 Z" /><glyph glyph-name="uni5DE5" unicode="&#x5de5;" d="M927 43 l0 -76 l-868 0 l0 76 l392 0 l0 599 l-324 0 l0 79 l733 0 l0 -79 l-324 0 l0 -599 l391 0 Z" /><glyph glyph-name="uni5E08" unicode="&#x5e08;" d="M268 798 l68 -2 l0 -375 q0 -105 -8 -179.5 q-8 -74.5 -30 -133.5 q-22 -59 -60.5 -109.5 q-38.5 -50.5 -99.5 -105.5 l-55 51 q40 35 69.5 65.5 q29.5 30.5 50.5 61.5 q21 31 33.5 64.5 q12.5 33.5 19.5 74 q7 40.5 9.5 91 q2.5 50.5 2.5 114.5 l0 383 ZM679 677 l0 -136 l199 0 l0 -397 q0 -30 -4.5 -48.5 q-4.5 -18.5 -15.5 -30 q-11 -11.5 -30 -17.5 q-19 -6 -48 -9 l-44 -5 l-22 73 l44 4 q17 1 27 4 q10 3 15.5 9 q5.5 6 7 17.5 q1.5 11.5 1.5 29.5 l0 300 l-130 0 l0 -567 l-69 0 l0 567 l-120 0 l0 -428 l-69 0 l0 498 l189 0 l0 136 l-222 0 l0 67 l539 0 l0 -67 l-248 0 ZM170 133 l-69 0 l0 600 l69 -2 l0 -598 Z" /><glyph glyph-name="uni5E38" unicode="&#x5e38;" d="M896 645 l0 -192 l-74 0 l0 126 l-658 0 l0 -125 l-73 0 l0 191 l196 0 q-10 15 -22.5 30.5 q-12.5 15.5 -25.5 30.5 q-13 15 -25 28 q-12 13 -22 22 l57 44 q10 -10 24.5 -25.5 q14.5 -15.5 29.5 -33.5 q15 -18 29.5 -36 q14.5 -18 25.5 -32 l-31 -28 l130 0 l0 161 l73 -2 l0 -159 l131 0 l-36 25 q15 14 30 31 q15 17 29 35 q14 18 26.5 35 q12.5 17 22.5 32 l58 -37 q-8 -12 -20 -28 q-12 -16 -24.5 -32.5 q-12.5 -16.5 -26 -32.5 q-13.5 -16 -24.5 -28 l200 0 ZM530 228 l304 0 l0 -175 q0 -29 -5 -46.5 q-5 -17.5 -18.5 -28.5 q-13.5 -11 -38.5 -16.5 q-25 -5.5 -65 -10.5 l-50 -6 l-25 71 l56 5 q25 2 39 5 q14 3 21 9 q7 6 9 16 q2 10 2 26 l0 84 l-229 0 l0 -271 l-73 -1 l0 272 l-230 0 l0 -211 l-71 0 l0 278 l301 0 l0 79 l-234 0 l0 200 l540 0 l0 -200 l-233 0 l0 -79 ZM293 365 l400 0 l0 83 l-400 0 l0 -83 Z" /><glyph glyph-name="uni5EFA" unicode="&#x5efa;" d="M560 529 l-225 0 l0 58 l225 0 l0 81 l-187 0 l0 57 l187 0 l0 84 l67 -2 l0 -82 l212 0 l0 -138 l84 0 l0 -58 l-84 0 l0 -139 l-212 0 l0 -79 l238 0 l0 -58 l-238 0 l0 -78 l273 0 l0 -58 l-273 0 l0 -92 l-67 0 l0 92 l-241 0 l0 58 l241 0 l0 78 l-194 0 l0 58 l194 0 l0 79 l-188 0 l0 58 l188 0 l0 81 ZM526 -1 q100 -2 202.5 -2 q102.5 0 205.5 4 l-12 -68 q-97 -2 -199 -2 q-102 0 -199 2 q-100 2 -180.5 27 q-80.5 25 -142.5 93 q-24 -38 -54.5 -76 q-30.5 -38 -68.5 -80 l-53 54 q41 38 73.5 77.5 q32.5 39.5 58.5 81.5 q-26 40 -47.5 91 q-21.5 51 -39.5 116 l54 19 q15 -51 31.5 -92 q16.5 -41 34.5 -73 q23 50 39 104.5 q16 54.5 27 116.5 l-173 0 l0 63 q44 48 84.5 102 q40.5 54 78.5 111 l-180 0 l0 63 l259 0 l0 -64 q-37 -57 -77.5 -110 q-40.5 -53 -85.5 -101 l161 0 l0 -61 q-14 -87 -35 -156 q-21 -69 -55 -132 q27 -32 58 -52.5 q31 -20.5 67.5 -32.5 q36.5 -12 78 -17 q41.5 -5 89.5 -6 ZM627 587 l149 0 l0 81 l-149 0 l0 -81 ZM776 529 l-149 0 l0 -81 l149 0 l0 81 Z" /><glyph glyph-name="uni5F62" unicode="&#x5f62;" d="M541 561 q34 21 71 48.5 q37 27.5 73 58 q36 30.5 69.5 63 q33.5 32.5 60.5 63.5 l50 -50 q-28 -33 -62 -66 q-34 -33 -71 -65 q-37 -32 -75.5 -60.5 q-38.5 -28.5 -74.5 -52.5 l-41 61 ZM459 338 l0 -427 l-70 0 l0 427 l-141 0 q-2 -81 -8.5 -139 q-6.5 -58 -21.5 -106 q-15 -48 -39 -92.5 q-24 -44.5 -61 -98.5 l-65 39 q37 50 60.5 90 q23.5 40 37.5 83 q14 43 19.5 96 q5.5 53 7.5 128 l-132 0 l0 70 l133 0 l0 12 l0 250 l-92 0 l0 71 l470 0 l0 -71 l-98 0 l0 -262 l132 0 l0 -70 l-132 0 ZM389 408 l0 262 l-140 0 l0 -248 l0 -14 l140 0 ZM539 272 q80 51 158 118.5 q78 67.5 137 136.5 l51 -52 q-62 -71 -141 -139.5 q-79 -68.5 -163 -125.5 l-42 62 ZM919 221 q-64 -77 -156 -161 q-92 -84 -222 -157 l-44 64 q63 33 117 71 q54 38 100.5 77.5 q46.5 39.5 85 79.5 q38.5 40 70.5 77 l49 -51 Z" /><glyph glyph-name="uni606F" unicode="&#x606f;" d="M481 241 l-314 0 l0 474 l221 0 q9 25 17.5 50.5 q8.5 25.5 14.5 43.5 l80 -16 q-5 -14 -12.5 -35 q-7.5 -21 -15.5 -43 l321 0 l0 -474 l-305 0 q13 -16 28.5 -35.5 q15.5 -19.5 30 -39.5 q14.5 -20 27 -39 q12.5 -19 20.5 -34 l-58 -45 q-9 19 -22 41 q-13 22 -27.5 44 q-14.5 22 -29 41.5 q-14.5 19.5 -26.5 33.5 l50 33 ZM241 653 l0 -71 l478 0 l0 71 l-478 0 ZM719 520 l-478 0 l0 -75 l478 0 l0 75 ZM241 303 l478 0 l0 80 l-478 0 l0 -80 ZM779 206 q18 -20 38.5 -45 q20.5 -25 40.5 -53 q20 -28 39.5 -56.5 q19.5 -28.5 35.5 -54.5 l-57 -50 q-14 27 -33.5 58 q-19.5 31 -40 61 q-20.5 30 -41 56.5 q-20.5 26.5 -35.5 45.5 l53 38 ZM633 48 q4 32 6 67 l71 -29 q-3 -35 -9 -67 q-5 -29 -12.5 -47 q-7.5 -18 -21 -27.5 q-13.5 -9.5 -34 -13.5 q-20.5 -4 -52.5 -6 q-99 -6 -198 0 q-31 2 -51 7.5 q-20 5.5 -32 18 q-12 12.5 -16.5 34 q-4.5 21.5 -4.5 55.5 l0 157 l75 -4 l0 -138 q0 -18 2 -30 q2 -12 8 -19 q6 -7 17 -10 q11 -3 30 -4 q76 -4 152 0 q21 1 34 3.5 q13 2.5 20 8.5 q7 6 10.5 16.5 q3.5 10.5 5.5 27.5 ZM34 -34 q32 48 58.5 110 q26.5 62 42.5 120 l68 -23 q-9 -30 -20.5 -61.5 q-11.5 -31.5 -25.5 -62.5 q-14 -31 -29.5 -59.5 q-15.5 -28.5 -31.5 -53.5 l-62 30 Z" /><glyph glyph-name="uni6210" unicode="&#x6210;" d="M935 112 q-8 -39 -16.5 -70.5 q-8.5 -31.5 -21.5 -63.5 q-9 -22 -19 -35 q-10 -13 -21.5 -20.5 q-11.5 -7.5 -25.5 -10 q-14 -2.5 -30 -2.5 q-35 0 -69 25.5 q-34 25.5 -71 88.5 q-8 13 -15 26.5 q-7 13.5 -13 29.5 q-35 -37 -75.5 -74 q-40.5 -37 -91.5 -75 l-50 54 q115 84 188 169 q-26 81 -45 188 q-19 107 -32 242 l-310 0 l0 -144 l245 0 q0 -9 -1 -32.5 q-1 -23.5 -2 -54 q-1 -30.5 -2.5 -65 q-1.5 -34.5 -3 -65.5 q-1.5 -31 -3 -55 q-1.5 -24 -2.5 -34 q-3 -35 -9.5 -57.5 q-6.5 -22.5 -20 -37 q-13.5 -14.5 -37 -22.5 q-23.5 -8 -60.5 -12 l-56 -6 l-21 74 l66 6 q21 2 33.5 5.5 q12.5 3.5 19 11.5 q6.5 8 9.5 21.5 q3 13.5 5 36.5 q1 12 3 43.5 q2 31.5 3.5 66.5 q1.5 35 2.5 65.5 q1 30.5 1 39.5 l-170 0 q-1 -81 -8 -145.5 q-7 -64.5 -21 -120 q-14 -55.5 -35.5 -106 q-21.5 -50.5 -51.5 -104.5 l-74 36 q34 52 57 99 q23 47 37 99.5 q14 52.5 20.5 116.5 q6.5 64 6.5 150 l0 259 l373 0 q-2 26 -4 52 q-2 26 -4 49 q-2 26 -4 51 l74 0 l11 -152 l167 0 q-12 14 -26.5 30.5 q-14.5 16.5 -29 31.5 q-14.5 15 -28 28.5 q-13.5 13.5 -22.5 21.5 l45 47 q12 -10 29 -25 q17 -15 34 -31.5 q17 -16.5 32.5 -32.5 q15.5 -16 24.5 -28 l-40 -42 l123 0 l0 -69 l-303 0 q10 -109 24 -199 q14 -90 34 -162 q44 64 75 134 q31 70 58 154 l68 -24 q-37 -104 -76.5 -187.5 q-39.5 -83.5 -97.5 -158.5 q10 -26 21 -48.5 q11 -22.5 23 -42.5 q21 -34 38 -47 q17 -13 30 -13 q20 0 30 11.5 q10 11.5 19 37.5 q9 26 14 52 q5 26 10 58 l65 -37 Z" /><glyph glyph-name="uni6211" unicode="&#x6211;" d="M614 454 q6 -72 13.5 -130 q7.5 -58 17.5 -106 q103 88 173 200 l58 -38 q-45 -67 -96.5 -126 q-51.5 -59 -114.5 -112 q19 -56 48 -101 q19 -28 35 -39 q16 -11 32 -11 q17 0 26.5 7.5 q9.5 7.5 20.5 33.5 q11 26 17 53.5 q6 27.5 11 59.5 l63 -40 q-8 -34 -17 -63 q-9 -29 -26 -67 q-14 -31 -38.5 -48 q-24.5 -17 -56.5 -17 q-36 0 -69 22.5 q-33 22.5 -62 72.5 q-11 19 -21.5 41.5 q-10.5 22.5 -19.5 50.5 q-94 -69 -212 -128 l-44 68 q135 61 234 134 q-14 55 -25 125 q-11 70 -19 158 l-211 0 l0 -156 q44 9 83.5 18.5 q39.5 9.5 71.5 17.5 l5 -37 l3 -31 q-32 -8 -74 -18 q-42 -10 -89 -21 l0 -193 q0 -31 -6 -51 q-6 -20 -21.5 -33 q-15.5 -13 -41.5 -20 q-26 -7 -65 -11 l-52 -6 l-22 73 l65 6 q25 2 39.5 6 q14.5 4 21.5 11 q7 7 8.5 18.5 q1.5 11.5 1.5 28.5 l0 156 q-51 -11 -98 -20 q-47 -9 -85 -14 l-19 70 q42 6 94.5 15 q52.5 9 107.5 20 l0 171 l-203 0 l0 68 l203 0 l0 134 q-43 -7 -85 -12 q-42 -5 -79 -8 l-5 65 q43 4 92 10.5 q49 6.5 98 15 q49 8.5 94 18.5 q45 10 79 21 l12 -66 q-27 -8 -61.5 -16 q-34.5 -8 -72.5 -15 l0 -147 l206 0 q-1 19 -2 39 q-1 20 -2 40 l-8 201 l71 -2 q0 -23 2 -75 q2 -52 6 -120 q2 -22 2.5 -42.5 q0.5 -20.5 2.5 -40.5 l312 0 l0 -68 l-307 0 ZM807 557 q-13 19 -33 43 q-20 24 -42 47.5 q-22 23.5 -44 44 q-22 20.5 -38 33.5 l46 47 q16 -13 38.5 -33 q22.5 -20 45 -42.5 q22.5 -22.5 43 -44.5 q20.5 -22 34.5 -38 l-50 -57 Z" /><glyph glyph-name="uni6280" unicode="&#x6280;" d="M901 -109 q-85 32 -153.5 74.5 q-68.5 42.5 -125.5 96.5 q-55 -47 -126 -89 q-71 -42 -162 -77 l-49 68 q87 29 158 67.5 q71 38.5 128 84.5 q-44 51 -78.5 109.5 q-34.5 58.5 -60.5 125.5 l61 27 q50 -126 130 -216 q54 51 90.5 108 q36.5 57 57.5 117 l-378 0 l0 67 l197 0 l0 141 l-212 0 l0 69 l212 0 l0 140 l73 -3 l0 -137 l234 0 l0 -69 l-234 0 l0 -141 l189 0 l0 -67 q-26 -66 -67.5 -136.5 q-41.5 -70.5 -109.5 -139.5 q107 -95 268 -149 l-42 -71 ZM359 335 q-18 -8 -45.5 -19 q-27.5 -11 -59.5 -23 l0 -278 q0 -29 -4 -46.5 q-4 -17.5 -16 -28 q-12 -10.5 -33.5 -16 q-21.5 -5.5 -55.5 -8.5 l-49 -5 l-23 73 l61 6 q16 1 25.5 4 q9.5 3 15 9.5 q5.5 6.5 7.5 17.5 q2 11 2 29 l0 218 q-41 -14 -79 -26.5 q-38 -12.5 -64 -20.5 l-22 69 q30 8 74 21.5 q44 13.5 91 29.5 l0 208 l-115 0 l0 70 l115 0 l0 178 l70 -3 l0 -175 l95 0 l0 -70 l-95 0 l0 -184 q26 10 50 18.5 q24 8.5 42 16.5 l13 -65 Z" /><glyph glyph-name="uni62A4" unicode="&#x62a4;" d="M890 304 l-397 0 q-3 -70 -11 -124 q-8 -54 -22.5 -101 q-14.5 -47 -37 -91 q-22.5 -44 -53.5 -94 l-69 40 q37 54 61 100.5 q24 46.5 38 99.5 q14 53 19 119 q5 66 5 158 l0 259 l205 0 q-9 31 -21 61.5 q-12 30.5 -21 49.5 l70 22 q11 -23 25 -61 q14 -38 24 -72 l185 0 l0 -366 ZM377 347 q-22 -10 -51.5 -21.5 q-29.5 -11.5 -62.5 -24.5 l0 -292 q0 -28 -5 -46 q-5 -18 -18.5 -29.5 q-13.5 -11.5 -36 -17 q-22.5 -5.5 -56.5 -7.5 l-45 -4 l-23 73 l50 4 q38 3 50.5 13.5 q12.5 10.5 12.5 39.5 l0 241 q-42 -15 -80 -27 q-38 -12 -65 -20 l-16 73 q30 8 72.5 22 q42.5 14 88.5 31 l0 195 l-122 0 l0 72 l122 0 l0 176 l71 -2 l0 -174 l113 0 l0 -72 l-113 0 l0 -169 q63 23 104 42 l6 -46 l4 -30 ZM818 600 l-323 0 l0 -174 l0 -50 l323 0 l0 224 Z" /><glyph glyph-name="uni62A5" unicode="&#x62a5;" d="M271 615 l113 0 l0 -68 l-113 0 l0 -175 q32 10 59.5 19 q27.5 9 47.5 17 l3 -37 l2 -32 q-21 -8 -50 -17.5 q-29 -9.5 -62 -20.5 l0 -274 q0 -33 -5 -54 q-5 -21 -18.5 -34 q-13.5 -13 -36.5 -19 q-23 -6 -59 -9 l-47 -4 l-23 72 l52 4 q40 3 53.5 15.5 q13.5 12.5 13.5 49.5 l0 230 q-45 -14 -85 -26 q-40 -12 -68 -20 l-22 71 q33 8 79.5 20.5 q46.5 12.5 95.5 27.5 l0 196 l-141 0 l0 68 l141 0 l0 182 l70 -3 l0 -179 ZM741 104 q39 -38 87 -70 q48 -32 109 -66 l-43 -63 q-56 32 -105.5 68.5 q-49.5 36.5 -92.5 79.5 q-33 -35 -74.5 -70 q-41.5 -35 -93.5 -72 l-45 52 l0 -53 l-72 0 l0 840 l446 0 q0 -5 -1 -27 q-1 -22 -2 -48 q-1 -26 -2 -49.5 q-1 -23.5 -2 -31.5 q-1 -28 -8 -45.5 q-7 -17.5 -25.5 -28.5 q-18.5 -11 -50.5 -16.5 q-32 -5.5 -84 -9.5 l-62 -5 l-24 66 l76 4 q33 2 53.5 5.5 q20.5 3.5 31.5 9.5 q11 6 15.5 15.5 q4.5 9.5 5.5 23.5 q1 10 2.5 31 q1.5 21 2.5 37 l-300 0 l0 -249 l384 0 l0 -67 q-19 -69 -47 -133 q-28 -64 -79 -128 ZM483 -34 q105 74 167 139 q-37 46 -66.5 100.5 q-29.5 54.5 -52.5 120.5 l62 24 q21 -61 45.5 -108 q24.5 -47 54.5 -86 q38 50 60 101 q22 51 39 109 l-309 0 l0 -400 Z" /><glyph glyph-name="uni636E" unicode="&#x636e;" d="M348 353 q-19 -9 -44.5 -20.5 q-25.5 -11.5 -54.5 -23.5 l0 -290 q0 -31 -5 -50.5 q-5 -19.5 -18 -31.5 q-13 -12 -35 -17.5 q-22 -5.5 -56 -7.5 l-44 -4 l-19 68 l49 4 q18 1 29.5 4 q11.5 3 18 9 q6.5 6 9 17 q2.5 11 2.5 28 l0 243 q-38 -15 -73.5 -28 q-35.5 -13 -60.5 -21 l-15 71 q27 8 66.5 22.5 q39.5 14.5 82.5 31.5 l0 189 l-116 0 l0 69 l116 0 l0 181 l69 -2 l0 -179 l94 0 l0 -69 l-94 0 l0 -162 q26 11 47.5 21 q21.5 10 38.5 18 l7 -40 l6 -30 ZM717 335 l0 -111 l156 0 l0 -325 l-67 0 l0 52 l-245 0 l0 -53 l-67 0 l0 326 l155 0 l0 111 l-195 0 q-3 -71 -11 -128.5 q-8 -57.5 -22 -108 q-14 -50.5 -35 -96.5 q-21 -46 -51 -95 l-64 38 q34 57 56 108.5 q22 51.5 35.5 110.5 q13.5 59 19 131.5 q5.5 72.5 5.5 170.5 l0 279 l502 0 l0 -242 l-433 0 l0 -46 q0 -16 0 -31.5 q0 -15.5 -1 -29.5 l194 0 l0 84 l68 -2 l0 -82 l222 0 l0 -61 l-222 0 ZM456 681 l0 -115 l363 0 l0 115 l-363 0 ZM806 160 l-245 0 l0 -146 l245 0 l0 146 Z" /><glyph glyph-name="uni64CD" unicode="&#x64cd;" d="M315 349 q-17 -7 -39 -16 q-22 -9 -47 -19 l0 -288 q0 -30 -4 -49.5 q-4 -19.5 -15.5 -31.5 q-11.5 -12 -31 -17.5 q-19.5 -5.5 -50.5 -8.5 l-46 -4 l-22 74 l49 4 q17 1 27 4.5 q10 3.5 15.5 10 q5.5 6.5 7.5 17 q2 10.5 2 26.5 l0 237 q-35 -13 -67 -24 q-32 -11 -55 -18 l-23 71 q29 8 66.5 19.5 q37.5 11.5 78.5 25.5 l0 195 l-102 0 l0 68 l102 0 l0 170 l68 -3 l0 -167 l100 0 l0 -68 l-100 0 l0 -171 q20 8 39 15.5 q19 7.5 35 15.5 l6 -39 l6 -29 ZM811 563 l-412 0 l0 200 l412 0 l0 -200 ZM743 705 l-277 0 l0 -82 l277 0 l0 82 ZM572 311 l-236 0 l0 199 l236 0 l0 -199 ZM632 510 l240 0 l0 -199 l-240 0 l0 199 ZM512 453 l-116 0 l0 -84 l116 0 l0 84 ZM691 369 l122 0 l0 84 l-122 0 l0 -84 ZM915 -66 q-91 40 -156.5 83 q-65.5 43 -119.5 97 l0 -216 l-70 0 l0 214 q-56 -52 -124 -97 q-68 -45 -162 -83 l-38 63 q101 34 170.5 75.5 q69.5 41.5 123.5 90.5 l-234 0 l0 64 l264 0 l0 64 l70 -3 l0 -61 l266 0 l0 -64 l-235 0 q55 -52 124 -94 q69 -42 156 -70 l-35 -63 Z" /><glyph glyph-name="uni653F" unicode="&#x653f;" d="M729 173 q42 -55 96.5 -106 q54.5 -51 125.5 -102 l-49 -66 q-136 100 -219 211 q-47 -57 -109.5 -109 q-62.5 -52 -146.5 -106 l-52 62 q90 54 154.5 107 q64.5 53 110.5 110 q-39 66 -65 138.5 q-26 72.5 -42 153.5 q-11 -15 -22 -30.5 q-11 -15.5 -23 -30.5 l-50 52 q28 35 54 78 q26 43 47.5 89 q21.5 46 37.5 94 q16 48 25 93 l71 -14 q-10 -41 -21.5 -79 q-11.5 -38 -25.5 -74 l307 0 l0 -73 l-78 0 q-15 -125 -44.5 -221 q-29.5 -96 -81.5 -177 ZM480 49 q-11 -3 -43 -9 q-32 -6 -75.5 -14 q-43.5 -8 -93 -16.5 q-49.5 -8.5 -94 -16.5 q-44.5 -8 -78.5 -14.5 q-34 -6.5 -48 -8.5 l-11 75 l77 13 l0 456 l70 -3 l0 -441 q23 5 47.5 8.5 q24.5 3.5 49.5 8.5 l0 557 l-203 0 l0 68 l410 0 l0 -68 l-136 0 l0 -237 l120 0 l0 -71 l-120 0 l0 -236 q46 8 80 15 q34 7 45 9 l1 -35 l2 -40 ZM586 555 q11 -92 35 -169.5 q24 -77.5 65 -146.5 q42 70 64.5 151 q22.5 81 34.5 181 l-191 0 q-3 -8 -8 -16 Z" /><glyph glyph-name="uni6570" unicode="&#x6570;" d="M753 148 q71 -101 194 -194 l-52 -54 q-57 46 -102 91.5 q-45 45.5 -80 93.5 q-37 -49 -87 -95 q-50 -46 -118 -95 l-46 56 q72 48 123 95.5 q51 47.5 86 101.5 q-39 68 -62.5 141 q-23.5 73 -36.5 157 q-8 -14 -16.5 -28.5 q-8.5 -14.5 -17.5 -28.5 l-56 36 q28 39 52.5 86.5 q24.5 47.5 44 97.5 q19.5 50 33.5 99.5 q14 49.5 22 91.5 l70 -17 q-8 -36 -18.5 -71.5 q-10.5 -35.5 -23.5 -71.5 l260 0 l0 -72 l-68 0 q-6 -68 -14 -127 q-8 -59 -19.5 -110 q-11.5 -51 -28 -96.5 q-16.5 -45.5 -39.5 -86.5 ZM31 362 q69 34 123 76.5 q54 42.5 96 89.5 l-188 0 l0 61 l205 0 l0 205 l67 -4 l0 -201 l180 0 l0 -61 l-180 0 l0 -186 l-67 0 l0 123 q-38 -44 -87.5 -83.5 q-49.5 -39.5 -112.5 -73.5 l-36 54 ZM502 746 q-7 -16 -17 -35 q-10 -19 -21.5 -38.5 q-11.5 -19.5 -23.5 -37.5 q-12 -18 -22 -31 l-50 28 q9 12 20 29 q11 17 21.5 35.5 q10.5 18.5 20 38 q9.5 19.5 16.5 36.5 l56 -25 ZM162 605 q-5 16 -12.5 35.5 q-7.5 19.5 -16.5 38.5 q-9 19 -18 36 q-9 17 -16 30 l53 20 q7 -11 16 -28 q9 -17 18 -36.5 q9 -19.5 17 -39.5 q8 -20 14 -37 l-55 -19 ZM620 540 q11 -95 32 -173.5 q21 -78.5 58 -148.5 q33 72 50 156.5 q17 84.5 27 193.5 l-155 0 l-12 -28 ZM471 326 q-29 35 -61.5 69.5 q-32.5 34.5 -64.5 62.5 l40 37 q26 -20 61 -54.5 q35 -34.5 65 -68.5 l-40 -46 ZM444 -43 q-28 17 -58 32.5 q-30 15.5 -61 31.5 q-43 -32 -103.5 -61 q-60.5 -29 -148.5 -58 l-35 63 q75 22 128.5 43.5 q53.5 21.5 92.5 45.5 q-77 37 -149 64 q14 23 28 47 q14 24 27 48 l-116 0 l0 60 l146 0 q9 19 16.5 36.5 q7.5 17.5 13.5 33.5 l64 -21 q-5 -13 -10 -25 q-5 -12 -10 -24 l208 0 l0 -57 q-20 -42 -43 -79 q-23 -37 -56 -70 q22 -11 45 -21.5 q23 -10.5 48 -22.5 l-27 -66 ZM201 142 q27 -11 55 -22.5 q28 -11.5 59 -25.5 q30 26 50.5 55 q20.5 29 37.5 64 l-163 0 q-9 -19 -19 -36.5 q-10 -17.5 -20 -34.5 Z" /><glyph glyph-name="uni65BD" unicode="&#x65bd;" d="M512 618 q-22 -43 -46 -83 q-24 -40 -50 -75 l-52 41 q51 65 92 148.5 q41 83.5 64 163.5 l69 -12 q-10 -29 -21 -57.5 q-11 -28.5 -24 -57.5 l374 0 l0 -68 l-406 0 ZM200 446 l152 0 q0 -8 -1 -41 q-1 -33 -2 -78.5 q-1 -45.5 -2 -97 q-1 -51.5 -2 -96 q-1 -44.5 -2 -76 q-1 -31.5 -1 -36.5 q-1 -24 -6.5 -39.5 q-5.5 -15.5 -17 -25 q-11.5 -9.5 -30 -14.5 q-18.5 -5 -45.5 -8 l-37 -4 l-23 64 l46 5 q16 2 25.5 5 q9.5 3 15.5 9 q6 6 8 16 q2 10 3 25 q0 8 1 33.5 q1 25.5 2 60 q1 34.5 2 72.5 q1 38 2 72 q1 34 1.5 59 q0.5 25 0.5 32 l-90 0 q-1 -86 -8 -150.5 q-7 -64.5 -21 -119 q-14 -54.5 -34 -105.5 q-20 -51 -47 -110 l-60 26 q26 57 46 107.5 q20 50.5 33.5 106 q13.5 55.5 20.5 121.5 q7 66 7 155 l0 166 l-81 0 l0 67 l153 0 q-4 17 -8.5 37.5 q-4.5 20.5 -9.5 40 q-5 19.5 -10 36.5 q-5 17 -8 28 l62 11 q4 -13 9.5 -33 q5.5 -20 11 -41.5 q5.5 -21.5 10.5 -42.5 q5 -21 8 -36 l117 0 l0 -67 l-191 0 l0 -134 ZM942 87 q-4 -28 -7.5 -53.5 q-3.5 -25.5 -11.5 -50.5 q-4 -12 -12 -21.5 q-8 -9.5 -23.5 -16.5 q-15.5 -7 -39 -11 q-23.5 -4 -57.5 -5 q-113 -5 -226 0 q-33 1 -56 6.5 q-23 5.5 -38 20 q-15 14.5 -22 39 q-7 24.5 -7 63.5 l0 245 l-59 -17 l-15 63 l74 22 l0 122 l63 -2 l0 -102 l116 35 l0 164 l64 -2 l0 -143 l194 57 q0 -4 -1 -25 q-1 -21 -2 -50.5 q-1 -29.5 -2 -63 q-1 -33.5 -2 -62.5 q-1 -29 -2 -50.5 q-1 -21.5 -1 -25.5 q-2 -50 -21.5 -70 q-19.5 -20 -72.5 -24 l-36 -4 l-22 66 l39 4 q15 1 24 4 q9 3 13.5 9 q4.5 6 6.5 16 q2 10 4 26 q1 7 2 30 q1 23 2 49 q1 26 1.5 49 q0.5 23 0.5 31 l-125 -36 l0 -311 l-64 0 l0 293 l-116 -34 l0 -242 q0 -27 3.5 -43 q3.5 -16 13 -24.5 q9.5 -8.5 25.5 -11.5 q16 -3 40 -4 q90 -5 181 0 q52 2 72.5 8.5 q20.5 6.5 24.5 26.5 q5 20 8 39.5 q3 19.5 5 40.5 l64 -24 Z" /><glyph glyph-name="uni65E5" unicode="&#x65e5;" d="M803 733 l0 -822 l-75 0 l0 67 l-465 0 l0 -67 l-75 0 l0 822 l615 0 ZM263 663 l0 -259 l465 0 l0 259 l-465 0 ZM728 51 l0 282 l-465 0 l0 -282 l465 0 Z" /><glyph glyph-name="uni65F6" unicode="&#x65f6;" d="M943 532 l-130 0 l0 -483 q0 -37 -6.5 -61.5 q-6.5 -24.5 -24.5 -39.5 q-18 -15 -48.5 -23 q-30.5 -8 -78.5 -11 l-55 -4 l-26 81 l70 4 q31 2 48.5 6 q17.5 4 26.5 12.5 q9 8.5 11 23 q2 14.5 2 37.5 l0 458 l-301 0 l0 73 l301 0 l0 197 l81 -3 l0 -194 l130 0 l0 -73 ZM104 720 l295 0 l0 -732 l-295 0 l0 732 ZM173 644 l0 -250 l157 0 l0 250 l-157 0 ZM600 172 q-10 27 -26.5 63 q-16.5 36 -35 72 q-18.5 36 -37.5 68.5 q-19 32.5 -34 54.5 l61 34 q15 -22 34.5 -54.5 q19.5 -32.5 38.5 -68 q19 -35.5 35.5 -69.5 q16.5 -34 26.5 -58 l-63 -42 ZM330 65 l0 257 l-157 0 l0 -257 l157 0 Z" /><glyph glyph-name="uni662F" unicode="&#x662f;" d="M780 415 l-600 0 l0 343 l600 0 l0 -343 ZM255 697 l0 -79 l450 0 l0 79 l-450 0 ZM705 476 l0 80 l-450 0 l0 -80 l450 0 ZM549 -11 q94 -4 191 -3 q97 1 193 6 l-18 -67 q-91 -4 -182 -4.5 q-91 -0.5 -182 3.5 q-56 2 -101 10 q-45 8 -83 23.5 q-38 15.5 -69 40.5 q-31 25 -58 61 q-23 -49 -56 -90.5 q-33 -41.5 -80 -81.5 l-61 48 q39 33 68.5 66.5 q29.5 33.5 51 70 q21.5 36.5 36.5 78 q15 41.5 25 90.5 l74 -10 q-6 -27 -13 -52 q-7 -25 -15 -48 q35 -56 80 -86.5 q45 -30.5 106 -43.5 l0 276 l-388 0 l0 63 l836 0 l0 -63 l-374 0 l0 -104 l303 0 l0 -61 l-303 0 l0 -121 q5 0 9.5 -0.5 q4.5 -0.5 9.5 -0.5 Z" /><glyph glyph-name="uni667A" unicode="&#x667a;" d="M315 433 q-28 -51 -84 -88 q-56 -37 -148 -77 l-32 62 q98 34 150 74.5 q52 40.5 70 100.5 l-204 0 l0 58 l215 0 q0 5 0.5 9.5 q0.5 4.5 0.5 9.5 q1 13 1 36.5 q0 23.5 1 43.5 l-83 0 q-14 -23 -29 -45 q-15 -22 -32 -43 l-53 40 q40 48 70.5 103 q30.5 55 47.5 100 l61 -22 q-12 -35 -32 -73 l269 0 l0 -60 l-152 0 q0 -20 -0.5 -42.5 q-0.5 -22.5 -1.5 -33.5 q0 -6 -0.5 -12 q-0.5 -6 -0.5 -11 l177 0 l0 -58 l-185 0 q-2 -12 -4 -19 q22 -11 48 -25.5 q26 -14.5 51.5 -29.5 q25.5 -15 48.5 -29 q23 -14 39 -26 l-36 -59 q-18 14 -39.5 30 q-21.5 16 -44 31 q-22.5 15 -45.5 29.5 q-23 14.5 -44 25.5 ZM876 729 l0 -359 l-315 0 l0 359 l315 0 ZM808 662 l-180 0 l0 -226 l180 0 l0 226 ZM190 307 l605 0 l0 -406 l-77 0 l0 46 l-451 0 l0 -48 l-77 0 l0 408 ZM267 246 l0 -87 l451 0 l0 87 l-451 0 ZM718 9 l0 89 l-451 0 l0 -89 l451 0 Z" /><glyph glyph-name="uni6709" unicode="&#x6709;" d="M416 621 q-16 -27 -32.5 -53 q-16.5 -26 -34.5 -51 l465 0 l0 -494 q0 -30 -6 -49 q-6 -19 -20 -30.5 q-14 -11.5 -37 -18 q-23 -6.5 -57 -10.5 l-67 -8 l-24 72 l65 5 q23 2 37 4.5 q14 2.5 21.5 8.5 q7.5 6 10 17 q2.5 11 2.5 29 l0 58 l-435 0 l0 -195 l-74 0 l0 472 q-35 -35 -73 -68 q-38 -33 -81 -66 l-49 59 q94 71 168.5 149 q74.5 78 131.5 169 l-257 0 l0 70 l296 0 q28 55 51 117 l79 -17 q-10 -26 -21 -51 q-11 -25 -22 -49 l482 0 l0 -70 l-519 0 ZM739 451 l-435 0 l0 -112 l435 0 l0 112 ZM739 166 l0 109 l-435 0 l0 -109 l435 0 Z" /><glyph glyph-name="uni672C" unicode="&#x672c;" d="M589 564 q28 -69 63.5 -130 q35.5 -61 80.5 -117 q45 -56 100.5 -109 q55.5 -53 123.5 -105 l-57 -69 q-69 59 -125 117 q-56 58 -101 118 q-45 60 -80.5 123 q-35.5 63 -62.5 131 l0 -374 l204 0 l0 -74 l-204 0 l0 -186 l-79 0 l0 186 l-201 0 l0 74 l201 0 l0 378 q-29 -69 -64 -131 q-35 -62 -79.5 -121.5 q-44.5 -59.5 -99.5 -119 q-55 -59.5 -124 -122.5 l-61 63 q70 58 126.5 113.5 q56.5 55.5 101 112 q44.5 56.5 79.5 116 q35 59.5 64 126.5 l-298 0 l0 75 l355 0 l0 161 l79 -4 l0 -157 l357 0 l0 -75 l-299 0 Z" /><glyph glyph-name="uni672F" unicode="&#x672f;" d="M540 528 q70 -138 171.5 -247.5 q101.5 -109.5 245.5 -206.5 l-53 -71 q-74 52 -132 105.5 q-58 53.5 -103.5 106.5 q-45.5 53 -79.5 105.5 q-34 52.5 -60 103.5 l0 -521 l-78 0 l0 519 q-53 -107 -142 -209.5 q-89 -102.5 -224 -209.5 l-58 65 q67 46 127.5 100 q60.5 54 112.5 113 q52 59 94.5 121.5 q42.5 62.5 72.5 125.5 l-343 0 l0 68 l360 0 l0 202 l78 -4 l0 -198 l365 0 l0 -68 l-354 0 ZM754 606 q-35 42 -68 78.5 q-33 36.5 -64 63.5 l45 45 q15 -12 32.5 -27.5 q17.5 -15.5 35.5 -33 q18 -17.5 35.5 -35.5 q17.5 -18 32.5 -35 l-49 -56 Z" /><glyph glyph-name="uni673A" unicode="&#x673a;" d="M382 233 q-27 38 -53 71.5 q-26 33.5 -48 58.5 l0 -466 l-72 0 l0 497 q-52 -136 -134 -253 l-51 52 q51 74 98 164.5 q47 90.5 76 186.5 l-131 0 l0 72 l142 0 l0 187 l72 -3 l0 -184 l137 0 l0 -72 l-137 0 l0 -134 l21 21 q11 -10 26 -25.5 q15 -15.5 32 -34 q17 -18.5 35 -39 q18 -20.5 35 -40.5 l-48 -59 ZM944 146 q0 -11 -1 -27 q-1 -16 -2 -33 q-1 -17 -2.5 -33 q-1.5 -16 -2.5 -26 q-3 -29 -7.5 -47.5 q-4.5 -18.5 -14 -29.5 q-9.5 -11 -26 -17 q-16.5 -6 -43.5 -9 q-12 -2 -28.5 -2 q-16.5 0 -33.5 2 q-23 2 -39.5 7 q-16.5 5 -27 16 q-10.5 11 -15 29 q-4.5 18 -4.5 47 l0 638 l-167 0 l0 -262 q0 -100 -6.5 -171.5 q-6.5 -71.5 -24 -128.5 q-17.5 -57 -48.5 -105 q-31 -48 -80 -100 l-64 44 q47 49 76 91.5 q29 42.5 45 93 q16 50.5 21.5 116.5 q5.5 66 5.5 161 l0 336 l317 0 l0 -692 q0 -14 1 -22.5 q1 -8.5 5 -13.5 q4 -5 11 -7.5 q7 -2.5 18 -3.5 q11 -1 23 0 q19 2 24.5 11.5 q5.5 9.5 10.5 41.5 q1 8 2.5 24.5 q1.5 16.5 2.5 35 q1 18.5 1.5 35 q0.5 16.5 0.5 24.5 l72 -23 Z" /><glyph glyph-name="uni676D" unicode="&#x676d;" d="M903 588 l-515 0 l0 74 l204 0 q-4 16 -9 34 q-5 18 -10.5 36 q-5.5 18 -10.5 33.5 q-5 15.5 -9 25.5 l74 14 q4 -11 10.5 -29.5 q6.5 -18.5 12.5 -39 q6 -20.5 12 -40.5 q6 -20 10 -34 l231 0 l0 -74 ZM363 259 q-20 29 -49 61.5 q-29 32.5 -55 57.5 l0 -475 l-68 0 l0 482 q-23 -66 -53 -129 q-30 -63 -60 -109 l-57 53 q23 33 46.5 74.5 q23.5 41.5 45.5 86.5 q22 45 40 92 q18 47 31 92 l-118 0 l0 72 l125 0 l0 187 l68 -3 l0 -184 l109 0 l0 -72 l-109 0 l0 -117 l20 24 q13 -11 31 -28 q18 -17 36 -35.5 q18 -18.5 34.5 -37 q16.5 -18.5 27.5 -33.5 l-45 -59 ZM937 133 q0 -10 -1 -24.5 q-1 -14.5 -3 -30.5 q-2 -16 -4 -32 q-2 -16 -4 -28 q-8 -53 -26.5 -73.5 q-18.5 -20.5 -65.5 -20.5 l-47 0 q-42 0 -63 20.5 q-21 20.5 -21 74.5 l0 369 l-176 0 l0 -89 q0 -81 -7 -137 q-7 -56 -24.5 -99.5 q-17.5 -43.5 -46 -81 q-28.5 -37.5 -71.5 -82.5 l-61 51 q43 42 69.5 74.5 q26.5 32.5 41.5 71 q15 38.5 20.5 91.5 q5.5 53 5.5 135 l0 140 l321 0 l0 -420 q0 -31 6 -39 q6 -8 27 -8 l22 0 q14 0 19.5 10 q5.5 10 11.5 42 q1 8 3 21 q2 13 3.5 28.5 q1.5 15.5 2.5 31 q1 15.5 1 28.5 l67 -23 Z" /><glyph glyph-name="uni6790" unicode="&#x6790;" d="M384 245 q-9 18 -22 38.5 q-13 20.5 -27.5 41.5 q-14.5 21 -29.5 40.5 q-15 19.5 -28 33.5 l0 -499 l-71 0 l0 483 q-29 -66 -62 -124.5 q-33 -58.5 -65 -106.5 l-56 43 q22 32 47 72 q25 40 49 85 q24 45 46 93 q22 48 38 95 l-130 0 l0 73 l133 0 l0 186 l71 -2 l0 -184 l134 0 l0 -73 l-134 0 l0 -108 l31 29 q13 -14 30.5 -35 q17.5 -21 35.5 -44 q18 -23 34 -45.5 q16 -22.5 26 -38.5 l-50 -53 ZM934 376 l-153 0 l0 -471 l-77 0 l0 471 l-176 0 q-1 -90 -7.5 -155.5 q-6.5 -65.5 -22 -119.5 q-15.5 -54 -42.5 -102.5 q-27 -48.5 -68 -103.5 l-67 40 q43 55 69.5 101 q26.5 46 41.5 98.5 q15 52.5 20 118 q5 65.5 5 160.5 l0 296 q103 8 207 24 q104 16 204 39 l19 -74 q-42 -10 -88 -19 q-46 -9 -92.5 -16.5 q-46.5 -7.5 -92 -13.5 q-45.5 -6 -86.5 -10 l0 -192 l406 0 l0 -71 Z" /><glyph glyph-name="uni6838" unicode="&#x6838;" d="M938 667 l0 -68 l-309 0 q-14 -23 -29 -46.5 q-15 -23.5 -30.5 -46 q-15.5 -22.5 -31 -42 q-15.5 -19.5 -28.5 -34.5 l173 7 q22 29 42.5 59.5 q20.5 30.5 41.5 64.5 l61 -35 q-85 -143 -199 -253 q-114 -110 -266 -197 l-43 62 q100 55 173 109.5 q73 54.5 132 119.5 q-24 -1 -50 -2 q-26 -1 -49 -2.5 q-23 -1.5 -41 -2.5 q-18 -1 -25 -1 q-14 -1 -27 -2.5 q-13 -1.5 -25 -4.5 l-18 65 q19 6 27 11 q8 5 15 13 q11 12 25 29.5 q14 17.5 29.5 38.5 q15.5 21 30.5 44 q15 23 29 46 l-169 0 l0 68 l240 0 q-4 15 -9.5 33.5 q-5.5 18.5 -11 36.5 q-5.5 18 -10.5 33.5 q-5 15.5 -9 25.5 l69 13 q4 -11 10 -29.5 q6 -18.5 12.5 -39 q6.5 -20.5 12.5 -40.5 q6 -20 10 -33 l247 0 ZM352 240 q-8 13 -18.5 28.5 q-10.5 15.5 -22.5 32 q-12 16.5 -24.5 32.5 q-12.5 16 -24.5 30 l0 -473 l-69 0 l0 494 q-27 -68 -57.5 -128.5 q-30.5 -60.5 -62.5 -108.5 l-55 48 q24 33 48 74 q24 41 46.5 86 q22.5 45 42 91.5 q19.5 46.5 34.5 89.5 l-123 0 l0 71 l127 0 l0 186 l69 -3 l0 -183 l108 0 l0 -71 l-108 0 l0 -127 l23 21 q12 -12 28 -29.5 q16 -17.5 32.5 -36.5 q16.5 -19 32 -38 q15.5 -19 24.5 -34 l-50 -52 ZM722 119 q25 -17 53.5 -37 q28.5 -20 56.5 -41.5 q28 -21.5 52 -42 q24 -20.5 41 -37.5 l-45 -73 q-18 21 -43.5 46 q-25.5 25 -54.5 50 q-29 25 -58 48 q-29 23 -54 41 q-60 -51 -132.5 -95.5 q-72.5 -44.5 -161.5 -90.5 l-43 61 q90 43 161.5 86.5 q71.5 43.5 131 92.5 q59.5 49 109 106.5 q49.5 57.5 96.5 128.5 l55 -37 q-36 -60 -76 -110.5 q-40 -50.5 -88 -95.5 Z" /><glyph glyph-name="uni68B0" unicode="&#x68b0;" d="M945 127 q-2 -22 -5 -42 q-3 -20 -10 -57 q-7 -38 -17 -60.5 q-10 -22.5 -22.5 -34.5 q-12.5 -12 -26.5 -15.5 q-14 -3.5 -27 -3.5 q-27 0 -52.5 22.5 q-25.5 22.5 -51.5 86.5 q-5 12 -9.5 25.5 q-4.5 13.5 -9.5 28.5 q-35 -45 -81 -93 l-48 48 q33 33 59.5 64 q26.5 31 48.5 62 q-17 80 -30 182 q-13 102 -22 230 l-285 0 l0 70 l280 0 q-2 31 -3 61.5 q-1 30.5 -3 54.5 q-2 28 -3 54 l68 -3 q1 -24 3 -51 q2 -23 3 -53.5 q1 -30.5 3 -62.5 l210 0 l0 -70 l-205 0 q6 -99 14.5 -179.5 q8.5 -80.5 19.5 -146.5 q26 54 44 115.5 q18 61.5 34 139.5 l62 -16 q-13 -54 -25.5 -100 q-12.5 -46 -26.5 -86.5 q-14 -40.5 -30.5 -77 q-16.5 -36.5 -37.5 -71.5 q13 -54 30 -97 q14 -34 24 -45 q10 -11 20 -11 q12 0 22 13 q10 13 18 55 q5 25 7 47 q2 22 4 45 l57 -28 ZM287 321 q-26 41 -53 72 l0 -490 l-66 0 l0 471 q-45 -119 -100 -213 l-55 41 q22 33 44.5 74.5 q22.5 41.5 42.5 86.5 q20 45 37 91.5 q17 46.5 29 89.5 l-115 0 l0 71 l117 0 l0 187 l66 -3 l0 -184 l99 0 l0 -71 l-99 0 l0 -109 l23 21 q18 -19 37 -39.5 q19 -20.5 36 -40.5 l-43 -55 ZM832 651 q-8 12 -19.5 27 q-11.5 15 -25.5 30 q-14 15 -28 29 q-14 14 -26 24 l42 40 q13 -11 27 -23.5 q14 -12.5 27.5 -26 q13.5 -13.5 24.5 -27 q11 -13.5 19 -25.5 l-41 -48 ZM575 252 l0 -315 l-63 0 l0 315 l-73 0 q-2 -58 -8 -103.5 q-6 -45.5 -19.5 -84.5 q-13.5 -39 -34.5 -76 q-21 -37 -51 -77 l-59 32 q29 37 49 70.5 q20 33.5 32.5 68.5 q12.5 35 19 76 q6.5 41 8.5 94 l-75 0 l0 65 l76 0 l0 189 l63 -3 l0 -186 l72 0 l0 191 l63 -3 l0 -188 l72 0 l0 -65 l-72 0 Z" /><glyph glyph-name="uni6B66" unicode="&#x6b66;" d="M939 123 q-9 -35 -19 -69.5 q-10 -34.5 -21 -66.5 q-11 -32 -37.5 -51.5 q-26.5 -19.5 -54.5 -19.5 q-32 0 -65 21.5 q-33 21.5 -59 80.5 q-23 54 -48 166 q-25 112 -39 289 l-534 0 l0 69 l529 0 q-2 30 -4 67.5 q-2 37.5 -4 74 q-2 36.5 -3.5 68.5 q-1.5 32 -2.5 51 l72 0 l15 -261 l260 0 l0 -69 l-256 0 q12 -169 37.5 -275 q25.5 -106 44.5 -151 q13 -29 27.5 -38.5 q14.5 -9.5 28.5 -9.5 q17 0 26 12.5 q9 12.5 17 38.5 q8 30 14 56 q6 26 11 54 l65 -37 ZM831 566 q-11 18 -28.5 40 q-17.5 22 -37 44 q-19.5 22 -39 42 q-19.5 20 -33.5 32 l49 46 q14 -12 33.5 -31 q19.5 -19 39 -40 q19.5 -21 37 -42 q17.5 -21 28.5 -36 l-49 -55 ZM528 658 l-389 0 l0 68 l389 0 l0 -68 ZM611 55 l1 -36 q-54 -9 -128 -18.5 q-74 -9.5 -151 -19.5 q-77 -10 -148.5 -18 q-71.5 -8 -121.5 -14 l-16 74 l106 10 l0 354 l72 -2 l0 -344 q30 4 60.5 7 q30.5 3 61.5 8 l0 389 l73 -2 l0 -131 l151 0 l0 -68 l-151 0 l0 -179 q54 7 103 14 q49 7 87 14 l1 -38 Z" /><glyph glyph-name="uni6BD4" unicode="&#x6bd4;" d="M914 170 q-2 -38 -5.5 -76 q-3.5 -38 -10.5 -75 q-7 -36 -37.5 -57 q-30.5 -21 -103.5 -25 q-62 -3 -123 0 q-32 1 -55 8 q-23 7 -37.5 21.5 q-14.5 14.5 -21.5 39 q-7 24.5 -7 61.5 l0 725 l78 -5 l0 -366 q33 22 68 48.5 q35 26.5 69.5 56 q34.5 29.5 67 60 q32.5 30.5 59.5 61.5 l52 -60 q-33 -36 -72.5 -72 q-39.5 -36 -81.5 -70 q-42 -34 -84 -64 q-42 -30 -78 -54 l0 -234 q0 -23 3 -37.5 q3 -14.5 11 -23 q8 -8.5 22 -12.5 q14 -4 37 -5 q40 -3 80 0 q43 3 61 13 q18 10 24 41 q12 63 12 129 l73 -28 ZM228 40 q15 6 48 20.5 q33 14.5 70 30.5 q37 16 69 29.5 q32 13.5 44 18.5 l7 -82 q-18 -7 -52 -21.5 q-34 -14.5 -70.5 -30.5 q-36.5 -16 -69.5 -29.5 q-33 -13.5 -48 -19.5 q-15 -7 -37 -18 q-22 -11 -38 -20 l-33 78 q20 13 26.5 22.5 q6.5 9.5 6.5 26.5 l0 737 l77 -3 l0 -271 l232 0 l0 -75 l-232 0 l0 -393 Z" /><glyph glyph-name="uni6C5F" unicode="&#x6c5f;" d="M317 570 q-19 19 -46 42.5 q-27 23.5 -55.5 45 q-28.5 21.5 -54.5 40 q-26 18.5 -43 28.5 l42 61 q21 -12 48.5 -30.5 q27.5 -18.5 56 -39 q28.5 -20.5 54.5 -40 q26 -19.5 42 -34.5 l-44 -73 ZM936 31 l0 -74 l-631 0 l0 74 l284 0 l0 609 l-203 0 l0 74 l509 0 l0 -74 l-224 0 l0 -609 l265 0 ZM262 339 q-22 22 -51 46 q-29 24 -58 46 q-29 22 -54 39.5 q-25 17.5 -40 26.5 l44 62 q17 -11 43.5 -28 q26.5 -17 55 -37.5 q28.5 -20.5 56.5 -41.5 q28 -21 49 -39 l-45 -74 ZM319 244 q-13 -33 -33 -78 q-20 -45 -42.5 -92.5 q-22.5 -47.5 -46 -92 q-23.5 -44.5 -43.5 -77.5 l-70 38 q19 28 43 72 q24 44 48 91.5 q24 47.5 44 94 q20 46.5 32 81.5 l35 -18 l33 -19 Z" /><glyph glyph-name="uni6D4B" unicode="&#x6d4b;" d="M737 -9 q22 1 35.5 4.5 q13.5 3.5 20.5 11 q7 7.5 9 19.5 q2 12 2 31 l0 726 l67 -3 l0 -746 q0 -31 -6 -51 q-6 -20 -20 -32.5 q-14 -12.5 -38 -18.5 q-24 -6 -60 -9 l-48 -4 l-21 68 l59 4 ZM115 781 q15 -11 35 -26.5 q20 -15.5 40.5 -32.5 q20.5 -17 40 -34 q19.5 -17 32.5 -30 l-41 -69 q-14 17 -34.5 37 q-20.5 20 -42 39.5 q-21.5 19.5 -41 36 q-19.5 16.5 -31.5 26.5 l42 53 ZM530 672 l-181 0 l0 -513 l-66 0 l0 581 l314 0 l0 -578 l-67 0 l0 510 ZM730 695 l0 -564 l-66 0 l0 567 l66 -3 ZM199 -37 q66 48 107 85.5 q41 37.5 63.5 79.5 q22.5 42 30.5 95.5 q8 53.5 8 132.5 l0 260 l65 -3 l0 -257 q0 -60 -3.5 -105 q-3.5 -45 -12.5 -81 q-9 -36 -25 -66.5 q-16 -30.5 -41 -60 q-25 -29.5 -60.5 -61.5 q-35.5 -32 -83.5 -72 l-48 53 ZM78 560 q16 -11 38 -28.5 q22 -17.5 44.5 -36.5 q22.5 -19 43 -38 q20.5 -19 34.5 -33 l-45 -64 q-13 17 -33.5 38 q-20.5 21 -42.5 41.5 q-22 20.5 -43.5 39 q-21.5 18.5 -37.5 30.5 l42 51 ZM44 -62 q15 31 31 77.5 q16 46.5 31 96 q15 49.5 26.5 97 q11.5 47.5 16.5 81.5 l34 -12 l29 -9 q-6 -35 -17.5 -82.5 q-11.5 -47.5 -25.5 -97 q-14 -49.5 -29 -95.5 q-15 -46 -27 -77 l-69 21 ZM479 153 q39 -33 82.5 -76 q43.5 -43 75.5 -87 l-48 -57 q-31 50 -69 94 q-38 44 -76 78 l35 48 Z" /><glyph glyph-name="uni6D59" unicode="&#x6d59;" d="M545 341 q-21 -8 -48 -18 q-27 -10 -57 -20 l0 -282 q0 -27 -4.5 -44.5 q-4.5 -17.5 -16 -28 q-11.5 -10.5 -31.5 -16 q-20 -5.5 -51 -9.5 l-51 -7 l-26 73 l57 7 q17 2 27 5 q10 3 15.5 8.5 q5.5 5.5 7.5 15 q2 9.5 2 25.5 l0 229 q-31 -11 -59 -19.5 q-28 -8.5 -48 -14.5 l-15 68 q24 6 55.5 15.5 q31.5 9.5 66.5 20.5 l0 201 l-98 0 l0 70 l98 0 l0 184 l71 -3 l0 -181 l100 0 l0 -70 l-100 0 l0 -176 q26 9 50 18 q24 9 43 17 l5 -27 l7 -41 ZM943 400 l-112 0 l0 -496 l-74 0 l0 496 l-110 0 q0 -94 -5.5 -163 q-5.5 -69 -20 -125.5 q-14.5 -56.5 -38.5 -107 q-24 -50.5 -62 -108.5 l-67 38 q38 55 62 101 q24 46 37 98.5 q13 52.5 17.5 118.5 q4.5 66 4.5 162 l0 297 q81 8 161.5 24 q80.5 16 151.5 39 l22 -70 q-59 -20 -130 -35 q-71 -15 -133 -23 l0 -177 l296 0 l0 -69 ZM227 582 q-14 16 -32.5 35 q-18.5 19 -38.5 37 q-20 18 -39 34 q-19 16 -33 27 l40 48 q16 -11 36 -26.5 q20 -15.5 40 -32.5 q20 -17 37.5 -34 q17.5 -17 29.5 -31 l-40 -57 ZM185 365 q-14 18 -33 38 q-19 20 -38.5 38.5 q-19.5 18.5 -38 35 q-18.5 16.5 -33.5 28.5 l42 52 q16 -13 36 -29.5 q20 -16.5 40 -34 q20 -17.5 38 -35 q18 -17.5 31 -30.5 l-44 -63 ZM239 267 q-7 -34 -20 -82 q-13 -48 -29 -98 q-16 -50 -32.5 -96.5 q-16.5 -46.5 -30.5 -77.5 l-69 22 q14 30 31 76.5 q17 46.5 33.5 97 q16.5 50.5 29.5 98.5 q13 48 20 83 l67 -23 Z" /><glyph glyph-name="uni6DF1" unicode="&#x6df1;" d="M246 563 q-14 18 -35 38.5 q-21 20.5 -44 40.5 q-23 20 -45.5 37.5 q-22.5 17.5 -39.5 28.5 l43 56 q17 -11 40 -27.5 q23 -16.5 46 -35.5 q23 -19 44.5 -37.5 q21.5 -18.5 35.5 -32.5 l-45 -68 ZM380 558 l-68 0 l0 179 l575 0 l0 -180 l-69 0 l0 113 l-438 0 l0 -112 ZM561 547 q-17 -18 -44.5 -42 q-27.5 -24 -58.5 -48 q-31 -24 -62 -46 q-31 -22 -55 -36 l-40 60 q22 12 51.5 31.5 q29.5 19.5 59.5 42.5 q30 23 58 47 q28 24 46 45 l45 -54 ZM670 598 q23 -13 54 -31.5 q31 -18.5 63.5 -39.5 q32.5 -21 61.5 -41.5 q29 -20.5 49 -37.5 l-41 -64 q-19 20 -47.5 42.5 q-28.5 22.5 -60 44 q-31.5 21.5 -62.5 40 q-31 18.5 -53 30.5 l36 57 ZM222 332 q-15 18 -37 40 q-22 22 -46 43 q-24 21 -47.5 39.5 q-23.5 18.5 -40.5 29.5 l43 56 q18 -11 41.5 -28.5 q23.5 -17.5 47.5 -37.5 q24 -20 46 -40 q22 -20 37 -35 l-44 -67 ZM657 264 q56 -74 129 -132.5 q73 -58.5 171 -111.5 l-47 -65 q-94 57 -162 117.5 q-68 60.5 -118 133.5 l0 -309 l-71 0 l0 302 q-25 -36 -53.5 -68.5 q-28.5 -32.5 -62.5 -63 q-34 -30.5 -75 -59.5 q-41 -29 -92 -59 l-48 64 q55 31 98.5 59 q43.5 28 79.5 57.5 q36 29.5 66 62.5 q30 33 58 72 l-232 0 l0 66 l261 0 l0 119 l71 -2 l0 -117 l276 0 l0 -66 l-249 0 ZM248 249 q-6 -33 -18 -78.5 q-12 -45.5 -26.5 -93.5 q-14.5 -48 -30.5 -92.5 q-16 -44.5 -29 -74.5 l-69 22 q13 29 29 73 q16 44 31 91.5 q15 47.5 27 93.5 q12 46 18 79 l36 -9 l32 -11 Z" /><glyph glyph-name="uni7279" unicode="&#x7279;" d="M931 485 l0 -66 l-571 0 l0 66 l240 0 l0 122 l-188 0 l0 68 l188 0 l0 126 l72 -2 l0 -124 l209 0 l0 -68 l-209 0 l0 -122 l259 0 ZM385 292 q-19 -9 -43.5 -20 q-24.5 -11 -52.5 -22 l0 -345 l-70 0 l0 317 q-50 -19 -96 -36 q-46 -17 -78 -28 l-22 75 q35 11 88 29 q53 18 108 39 l0 219 l-80 0 q-8 -51 -17.5 -96 q-9.5 -45 -18.5 -75 l-67 25 q9 29 18.5 73.5 q9.5 44.5 18 93.5 q8.5 49 14 96.5 q5.5 47.5 5.5 82.5 l68 -7 q0 -25 -2.5 -56.5 q-2.5 -31.5 -7.5 -66.5 l69 0 l0 206 l70 -2 l0 -204 l109 0 l0 -70 l-109 0 l0 -191 q23 10 42.5 19 q19.5 9 35.5 17 l12 -44 l6 -29 ZM791 308 l120 0 l0 -67 l-120 0 l0 -206 q0 -33 -4.5 -54.5 q-4.5 -21.5 -18.5 -35 q-14 -13.5 -39.5 -20.5 q-25.5 -7 -67.5 -11 l-55 -5 l-23 70 l67 6 q25 2 38.5 6.5 q13.5 4.5 20.5 13 q7 8.5 8.5 22 q1.5 13.5 1.5 34.5 l0 180 l-308 0 l0 67 l308 0 l0 81 l72 -2 l0 -79 ZM472 219 q13 -12 32 -30.5 q19 -18.5 38.5 -39 q19.5 -20.5 37 -40.5 q17.5 -20 27.5 -34 l-51 -58 q-11 17 -28 39 q-17 22 -36 44 q-19 22 -37.5 41.5 q-18.5 19.5 -31.5 31.5 l49 46 Z" /><glyph glyph-name="uni72B6" unicode="&#x72b6;" d="M656 448 q19 -148 95 -266.5 q76 -118.5 195 -217.5 l-58 -60 q-89 75 -156 170 q-67 95 -104 203 q-29 -103 -86 -197 q-57 -94 -154 -179 l-52 62 q67 60 112 117 q45 57 73.5 116.5 q28.5 59.5 42 124.5 q13.5 65 16.5 140 l-204 0 l0 70 l206 0 l0 274 l77 -3 l0 -270 l0 -1 l262 0 l0 -70 l-264 0 q0 -3 -0.5 -6.5 q-0.5 -3.5 -0.5 -6.5 ZM261 803 l74 -3 l0 -898 l-74 0 l0 345 q-18 -16 -42 -35 q-24 -19 -50 -38.5 q-26 -19.5 -53 -39 q-27 -19.5 -52 -36.5 l-41 67 q30 19 63 43 q33 24 65.5 49 q32.5 25 61 48.5 q28.5 23.5 48.5 40.5 l0 457 ZM837 556 q-14 24 -31 49 q-17 25 -35 48 q-18 23 -35.5 42 q-17.5 19 -30.5 32 l51 45 q14 -13 33 -34 q19 -21 37.5 -44 q18.5 -23 35 -45.5 q16.5 -22.5 25.5 -37.5 l-50 -55 ZM181 386 q-10 32 -24 68 q-14 36 -30 72 q-16 36 -32 69.5 q-16 33.5 -30 60.5 l63 30 q16 -30 32.5 -64.5 q16.5 -34.5 32 -69.5 q15.5 -35 29 -69.5 q13.5 -34.5 23.5 -65.5 l-64 -31 Z" /><glyph glyph-name="uni7406" unicode="&#x7406;" d="M940 3 l0 -69 l-611 0 l0 69 l270 0 l0 117 l-212 0 l0 67 l212 0 l0 110 l-198 0 l0 449 l469 0 l0 -449 l-200 0 l0 -110 l227 0 l0 -67 l-227 0 l0 -117 l270 0 ZM365 51 q-30 -9 -72.5 -19.5 q-42.5 -10.5 -87.5 -20.5 q-45 -10 -87.5 -18.5 q-42.5 -8.5 -71.5 -13.5 l-10 70 q27 4 64.5 11.5 q37.5 7.5 78.5 16.5 l0 272 l-115 0 l0 70 l115 0 l0 227 l-125 0 l0 69 l306 0 l0 -69 l-111 0 l0 -227 l106 0 l0 -70 l-106 0 l0 -256 q32 8 60.5 15 q28.5 7 49.5 14 l6 -71 ZM472 678 l0 -123 l127 0 l0 123 l-127 0 ZM801 678 l-131 0 l0 -123 l131 0 l0 123 ZM599 365 l0 123 l-127 0 l0 -123 l127 0 ZM801 365 l0 123 l-131 0 l0 -123 l131 0 Z" /><glyph glyph-name="uni751F" unicode="&#x751f;" d="M929 24 l0 -75 l-848 0 l0 75 l392 0 l0 235 l-307 0 l0 73 l307 0 l0 202 l-241 0 q-24 -51 -51.5 -97.5 q-27.5 -46.5 -59.5 -95.5 l-66 48 q62 88 110 177.5 q48 89.5 76 199.5 l71 -19 q-11 -38 -22.5 -72 q-11.5 -34 -24.5 -66 l208 0 l0 194 l79 -3 l0 -191 l334 0 l0 -75 l-334 0 l0 -202 l301 0 l0 -73 l-301 0 l0 -235 l377 0 Z" /><glyph glyph-name="uni7528" unicode="&#x7528;" d="M856 747 l0 -720 q0 -32 -6.5 -53 q-6.5 -21 -21 -33 q-14.5 -12 -38 -18 q-23.5 -6 -56.5 -8 l-61 -4 l-25 75 l61 4 q23 1 37 4 q14 3 21.5 9.5 q7.5 6.5 9.5 18 q2 11.5 2 30.5 l0 139 l-242 0 l0 -273 l-76 0 l0 273 l-238 0 q-5 -44 -13.5 -81.5 q-8.5 -37.5 -22 -72.5 q-13.5 -35 -32 -70.5 q-18.5 -35.5 -43.5 -74.5 l-71 33 q33 51 54.5 91 q21.5 40 34 84.5 q12.5 44.5 17.5 101 q5 56.5 5 139.5 l0 406 l704 0 ZM228 675 l0 -174 l233 0 l0 174 l-233 0 ZM779 675 l-242 0 l0 -174 l242 0 l0 174 ZM461 265 l0 162 l-233 0 l0 -113 q0 -13 0 -25 q0 -12 -1 -24 l234 0 ZM779 265 l0 162 l-242 0 l0 -162 l242 0 Z" /><glyph glyph-name="uni7535" unicode="&#x7535;" d="M942 129 q-4 -36 -8.5 -70.5 q-4.5 -34.5 -12.5 -67.5 q-8 -33 -43 -49.5 q-35 -16.5 -109 -18.5 q-99 -3 -197 0 q-41 1 -68 7.5 q-27 6.5 -43.5 22 q-16.5 15.5 -23.5 41.5 q-7 26 -7 67 l0 81 l-298 0 l0 521 l298 0 l0 130 l76 -4 l0 -126 l307 0 l0 -521 l-307 0 l0 -67 q0 -47 18 -62.5 q18 -15.5 62 -16.5 q79 -3 158 0 q56 2 79.5 11 q23.5 9 28.5 35 q7 27 10 56.5 q3 29.5 5 58.5 l75 -28 ZM208 595 l0 -155 l222 0 l0 155 l-222 0 ZM506 595 l0 -155 l230 0 l0 155 l-230 0 ZM430 214 l0 158 l-222 0 l0 -158 l222 0 ZM736 214 l0 158 l-230 0 l0 -158 l230 0 Z" /><glyph glyph-name="uni754C" unicode="&#x754c;" d="M915 111 q-54 18 -112 43.5 q-58 25.5 -115 55.5 l0 -310 l-77 0 l0 321 l62 -2 q-55 30 -102 63.5 q-47 33.5 -79 68.5 q-31 -32 -77 -65 q-46 -33 -105 -64 l73 -3 l0 -51 q0 -42 -9.5 -80 q-9.5 -38 -33 -73 q-23.5 -35 -64 -67.5 q-40.5 -32.5 -101.5 -63.5 l-45 63 q55 26 90 50.5 q35 24.5 54.5 50.5 q19.5 26 26.5 55 q7 29 7 65 l0 53 q-54 -29 -115 -55.5 q-61 -26.5 -127 -49.5 l-40 66 q125 35 227.5 86 q102.5 51 171.5 110 l-273 0 l0 385 l679 0 l0 -385 l-276 0 q37 -33 83.5 -63.5 q46.5 -30.5 98 -56 q51.5 -25.5 106.5 -46 q55 -20.5 108 -33.5 l-36 -68 ZM225 698 l0 -99 l232 0 l0 99 l-232 0 ZM758 698 l-232 0 l0 -99 l232 0 l0 99 ZM225 442 l232 0 l0 97 l-232 0 l0 -97 ZM758 442 l0 97 l-232 0 l0 -97 l232 0 Z" /><glyph glyph-name="uni7968" unicode="&#x7968;" d="M351 694 l-263 0 l0 61 l805 0 l0 -61 l-260 0 l0 -76 l217 0 l0 -208 l-718 0 l0 208 l219 0 l0 76 ZM565 694 l-146 0 l0 -76 l146 0 l0 76 ZM204 468 l147 0 l0 91 l-147 0 l0 -91 ZM419 468 l146 0 l0 91 l-146 0 l0 -91 ZM633 559 l0 -91 l146 0 l0 91 l-146 0 ZM153 278 l0 61 l678 0 l0 -61 l-678 0 ZM532 148 l0 -125 q0 -29 -5.5 -47 q-5.5 -18 -20 -29.5 q-14.5 -11.5 -39 -16.5 q-24.5 -5 -62.5 -8 l-46 -3 l-23 62 l59 4 q23 1 36.5 4.5 q13.5 3.5 20 10 q6.5 6.5 8.5 17.5 q2 11 2 29 l0 102 l-395 0 l0 63 l850 0 l0 -63 l-385 0 ZM346 65 q-23 -16 -57.5 -35.5 q-34.5 -19.5 -72 -38 q-37.5 -18.5 -73 -34.5 q-35.5 -16 -60.5 -25 l-34 61 q25 8 60.5 23.5 q35.5 15.5 73 34 q37.5 18.5 71.5 38 q34 19.5 57 35.5 l35 -59 ZM662 116 q25 -9 61.5 -24.5 q36.5 -15.5 74.5 -33.5 q38 -18 73 -36 q35 -18 58 -33 l-28 -63 q-25 17 -60 37 q-35 20 -72.5 38.5 q-37.5 18.5 -72.5 34.5 q-35 16 -60 25 l26 55 Z" /><glyph glyph-name="uni7A0E" unicode="&#x7a0e;" d="M949 109 q-2 -35 -5 -65.5 q-3 -30.5 -11 -62.5 q-6 -32 -27.5 -43 q-21.5 -11 -66.5 -13 q-37 -1 -74 0 q-46 2 -67 20 q-21 18 -21 72 l0 252 l-102 0 q-2 -80 -15 -134.5 q-13 -54.5 -39 -95 q-26 -40.5 -66 -73 q-40 -32.5 -97 -67.5 l-43 62 q52 30 87.5 57 q35.5 27 57.5 60.5 q22 33.5 32.5 78.5 q10.5 45 12.5 112 l-97 0 l0 332 l121 0 q-8 18 -19.5 39 q-11.5 21 -24 42 q-12.5 21 -26 39.5 q-13.5 18.5 -23.5 32.5 l57 37 q12 -14 25.5 -32.5 q13.5 -18.5 27 -38.5 q13.5 -20 25.5 -40 q12 -20 20 -36 l-57 -43 l129 0 q14 20 29.5 46 q15.5 26 30.5 53.5 q15 27.5 28 53.5 q13 26 21 46 l64 -36 q-7 -15 -17 -35.5 q-10 -20.5 -21.5 -42 q-11.5 -21.5 -24 -44 q-12.5 -22.5 -24.5 -41.5 l115 0 l0 -332 l-120 0 l0 -228 q0 -14 2 -22.5 q2 -8.5 7.5 -13 q5.5 -4.5 14 -7 q8.5 -2.5 22.5 -3.5 q14 -1 29 0 q26 3 37.5 9 q11.5 6 15.5 30 q7 49 9 99 l68 -24 ZM352 179 q-8 14 -20 30.5 q-12 16.5 -25.5 33.5 q-13.5 17 -27.5 33 q-14 16 -26 29 l0 -406 l-62 0 l0 429 q-28 -66 -60.5 -125.5 q-32.5 -59.5 -62.5 -105.5 l-50 43 q22 32 44.5 69 q22.5 37 43 76.5 q20.5 39.5 38.5 80 q18 40.5 31 81.5 l-115 0 l0 71 l131 0 l0 140 q-34 -6 -65 -11.5 q-31 -5.5 -55 -8.5 l-8 66 q29 4 68.5 10.5 q39.5 6.5 81.5 14.5 q42 8 82 17 q40 9 70 17 l11 -66 q-25 -7 -56.5 -13.5 q-31.5 -6.5 -66.5 -13.5 l0 -152 l117 0 l0 -71 l-117 0 l0 -108 l29 28 q12 -11 28.5 -27.5 q16.5 -16.5 32.5 -35 q16 -18.5 31 -36.5 q15 -18 24 -31 l-46 -58 ZM478 338 l316 0 l0 193 l-316 0 l0 -193 Z" /><glyph glyph-name="uni7B97" unicode="&#x7b97;" d="M225 671 q-25 -35 -52.5 -67.5 q-27.5 -32.5 -57.5 -61.5 l-57 39 q27 24 53.5 55 q26.5 31 50.5 63.5 q24 32.5 43.5 63.5 q19.5 31 32.5 57 l67 -17 q-19 -37 -41 -73 l239 0 l0 -59 l-162 0 q9 -17 18 -33.5 q9 -16.5 17 -33.5 l-56 -30 q-11 28 -22.5 52.5 q-11.5 24.5 -23.5 44.5 l-49 0 ZM461 599 q41 51 77 108.5 q36 57.5 62 111.5 l68 -17 q-10 -19 -19.5 -37 q-9.5 -18 -20.5 -35 l294 0 l0 -59 l-174 0 q9 -17 18.5 -34.5 q9.5 -17.5 17.5 -34.5 l-56 -31 q-11 29 -23 54 q-12 25 -25 46 l-88 0 q-16 -25 -32.5 -49 q-16.5 -24 -34.5 -47 l-64 24 ZM938 46 l-234 0 l0 -144 l-70 0 l0 144 l-283 0 q-19 -53 -69 -90 q-50 -37 -127 -67 l-37 56 q68 27 104.5 50.5 q36.5 23.5 52.5 50.5 l-231 0 l0 61 l247 0 q1 11 1 35.5 q0 24.5 1 47.5 l-121 0 l0 376 l640 0 l0 -376 l-108 0 l0 -83 l234 0 l0 -61 ZM242 510 l0 -55 l500 0 l0 55 l-500 0 ZM742 405 l-500 0 l0 -55 l500 0 l0 55 ZM242 248 l500 0 l0 53 l-500 0 l0 -53 ZM634 107 l0 83 l-270 0 q0 -23 -0.5 -49 q-0.5 -26 -1.5 -34 l272 0 Z" /><glyph glyph-name="uni7BA1" unicode="&#x7ba1;" d="M216 655 q-22 -32 -46 -62.5 q-24 -30.5 -49 -58.5 l-58 43 q50 51 91.5 111.5 q41.5 60.5 67.5 120.5 l77 -13 q-10 -20 -20.5 -39 q-10.5 -19 -22.5 -39 l251 0 l0 -63 l-164 0 q12 -23 23.5 -47 q11.5 -24 19.5 -40 l-63 -26 q-9 23 -24 55.5 q-15 32.5 -28 57.5 l-55 0 ZM920 718 l0 -63 l-159 0 q14 -22 26.5 -45 q12.5 -23 19.5 -37 l-58 -30 q-9 20 -26.5 52.5 q-17.5 32.5 -35.5 59.5 l-88 0 q-10 -18 -21 -35.5 q-11 -17.5 -24 -36.5 l-66 32 q19 25 33.5 48.5 q14.5 23.5 27 46.5 q12.5 23 23 47 q10.5 24 21.5 51 l75 -11 q-9 -21 -17.5 -40.5 q-8.5 -19.5 -18.5 -38.5 l288 0 ZM501 606 q7 -14 15 -35.5 q8 -21.5 16 -41.5 l351 0 l0 -145 l-76 0 l0 85 l-630 0 l0 -85 l-76 0 l0 145 l363 0 q-7 19 -14 36.5 q-7 17.5 -12 28.5 l63 12 ZM266 135 l542 0 l0 -239 l-75 0 l0 40 l-467 0 l0 -43 l-77 0 l0 502 l597 0 l0 -188 l-520 0 l0 -72 ZM266 337 l0 -70 l446 0 l0 70 l-446 0 ZM266 76 l0 -83 l467 0 l0 83 l-467 0 Z" /><glyph glyph-name="uni7CFB" unicode="&#x7cfb;" d="M801 233 q-60 -2 -125 -3.5 q-65 -1.5 -133 -3.5 l0 -203 q0 -32 -5 -51.5 q-5 -19.5 -19.5 -31 q-14.5 -11.5 -40 -17 q-25.5 -5.5 -67.5 -9.5 l-57 -5 l-25 74 l70 6 q23 2 37 5 q14 3 21 9 q7 6 9 15.5 q2 9.5 2 25.5 l0 179 q-66 -2 -128 -4.5 q-62 -2.5 -118 -6.5 q-17 -1 -44.5 -3.5 q-27.5 -2.5 -47.5 -4.5 l-15 76 q17 2 38.5 6 q21.5 4 35.5 9 q69 24 139.5 61.5 q70.5 37.5 139.5 83.5 q-34 -1 -72.5 -2 q-38.5 -1 -73.5 -2 q-35 -1 -63.5 -2 q-28.5 -1 -41.5 -2 q-13 0 -31 -1.5 q-18 -1.5 -41 -3.5 l-14 66 q34 5 49.5 9 q15.5 4 27.5 11 q44 25 95.5 63 q51.5 38 99.5 82 q-82 -5 -156 -9 q-74 -4 -131 -6 l-13 73 q50 1 112.5 3.5 q62.5 2.5 131 6.5 q68.5 4 139.5 8.5 q71 4.5 138.5 9.5 q67.5 5 128.5 11 q61 6 108 12 l12 -73 q-39 -4 -87.5 -8.5 q-48.5 -4.5 -102.5 -8.5 q-54 -4 -111.5 -8 q-57.5 -4 -115.5 -8 l21 -25 q-46 -44 -86.5 -76.5 q-40.5 -32.5 -85.5 -60.5 q13 0 45 1 q32 1 70 2.5 q38 1.5 76 3 q38 1.5 65 2.5 q42 32 81 65.5 q39 33.5 74 67.5 l48 -56 q-46 -43 -97.5 -84.5 q-51.5 -41.5 -105.5 -79.5 q-54 -38 -107.5 -71.5 q-53.5 -33.5 -103.5 -59.5 q39 1 87 3 q48 2 99 4 q51 2 103 4 q52 2 98 4 q-25 26 -48.5 49 q-23.5 23 -41.5 39 l54 46 q21 -18 49.5 -46 q28.5 -28 57.5 -59 q29 -31 55 -61.5 q26 -30.5 42 -52.5 l-52 -56 q-20 31 -52 69 ZM361 123 q-29 -24 -64 -50 q-35 -26 -72.5 -51 q-37.5 -25 -76 -48.5 q-38.5 -23.5 -72.5 -42.5 l-37 63 q32 17 69.5 39.5 q37.5 22.5 75 47 q37.5 24.5 72 50.5 q34.5 26 61.5 51 l44 -59 ZM654 179 q27 -14 64.5 -34.5 q37.5 -20.5 77.5 -44.5 q40 -24 79 -49 q39 -25 68 -47 l-35 -71 q-24 21 -62.5 47.5 q-38.5 26.5 -80 52.5 q-41.5 26 -81.5 49 q-40 23 -67 37 l37 60 Z" /><glyph glyph-name="uni7ECF" unicode="&#x7ecf;" d="M108 433 q-10 -1 -20 -2.5 q-10 -1.5 -26 -3.5 l-17 68 q17 6 23 10.5 q6 4.5 15 15.5 q17 22 37.5 53.5 q20.5 31.5 41 68 q20.5 36.5 40 75.5 q19.5 39 34.5 75 l66 -27 q-14 -32 -32 -68 q-18 -36 -38 -71 q-20 -35 -40.5 -67 q-20.5 -32 -38.5 -56 q6 0 22 1 q16 1 35.5 2 q19.5 1 39.5 2 q20 1 34 1 q19 31 36.5 60 q17.5 29 31.5 55 l62 -32 q-23 -41 -53 -89.5 q-30 -48.5 -60.5 -94 q-30.5 -45.5 -58.5 -84.5 q-28 -39 -47 -62 q15 2 43.5 6 q28.5 4 58 8 q29.5 4 53.5 7.5 q24 3.5 30 4.5 l1 -73 q-9 -1 -41.5 -5.5 q-32.5 -4.5 -71 -9.5 q-38.5 -5 -73 -9.5 q-34.5 -4.5 -47.5 -6.5 q-16 -2 -30.5 -4.5 q-14.5 -2.5 -31.5 -7.5 l-17 71 q23 8 33 14 q10 6 21 20 q24 28 54.5 71 q30.5 43 62.5 92 l-132 -8 ZM355 389 q53 18 109.5 47.5 q56.5 29.5 109.5 66 q53 36.5 98.5 78 q45.5 41.5 76.5 83.5 l-316 0 l0 72 l411 0 l0 -70 q-30 -40 -63 -75.5 q-33 -35.5 -69 -68.5 q24 -11 53.5 -25.5 q29.5 -14.5 62 -31 q32.5 -16.5 65 -34.5 q32.5 -18 61.5 -36 l-35 -66 q-30 21 -66.5 42.5 q-36.5 21.5 -72.5 41.5 q-36 20 -68.5 36.5 q-32.5 16.5 -54.5 27.5 q-114 -88 -260 -154 l-42 66 ZM683 16 l240 0 l0 -68 l-547 0 l0 68 l233 0 l0 203 l-174 0 l0 70 l434 0 l0 -70 l-186 0 l0 -203 ZM35 35 q25 5 67 13.5 q42 8.5 87.5 18 q45.5 9.5 89.5 19.5 q44 10 73 18 l4 -71 q-31 -8 -71.5 -17.5 q-40.5 -9.5 -83 -19 q-42.5 -9.5 -82.5 -18.5 q-40 -9 -70 -15 l-14 72 Z" /><glyph glyph-name="uni7EDF" unicode="&#x7edf;" d="M935 111 q-2 -32 -4.5 -63 q-2.5 -31 -9.5 -60 q-7 -30 -29 -45.5 q-22 -15.5 -75 -18.5 q-28 -2 -55 0 q-26 1 -44 6 q-18 5 -30 16 q-12 11 -17.5 30.5 q-5.5 19.5 -5.5 50.5 l0 315 l-110 -6 q0 -17 0 -34.5 q0 -17.5 -1 -29.5 q-2 -71 -13 -125.5 q-11 -54.5 -36 -99.5 q-25 -45 -67 -83.5 q-42 -38.5 -106 -77.5 l-45 61 q60 35 97.5 66 q37.5 31 59.5 67 q22 36 30.5 83.5 q8.5 47.5 10.5 115.5 q1 8 1 23 q0 15 0 31 q-32 -2 -42 -3 q-5 0 -14.5 -1 q-9.5 -1 -19.5 -2 q-10 -1 -20 -2.5 q-10 -1.5 -16 -2.5 l-19 65 q14 4 26 10 q12 6 18 14 q14 15 32.5 38 q18.5 23 38.5 51 q20 28 40 57.5 q20 29.5 38 56.5 l-178 0 l0 69 l235 0 q-8 32 -20.5 66 q-12.5 34 -21.5 54 l72 13 q5 -12 11 -28.5 q6 -16.5 12.5 -35 q6.5 -18.5 12.5 -36.5 q6 -18 10 -33 l229 0 l0 -69 l-283 0 q-17 -27 -37 -58 q-20 -31 -40.5 -60 q-20.5 -29 -39.5 -54.5 q-19 -25.5 -34 -41.5 q13 0 48.5 1.5 q35.5 1.5 79.5 3.5 q44 2 89.5 4 q45.5 2 79.5 4 q-23 34 -46.5 64.5 q-23.5 30.5 -40.5 50.5 l54 37 q18 -20 41 -50 q23 -30 46.5 -62.5 q23.5 -32.5 44 -64 q20.5 -31.5 32.5 -54.5 l-53 -54 q-7 15 -16.5 32 q-9.5 17 -20.5 36 q-14 0 -35 -1 q-21 -1 -47 -2 l0 -305 q0 -16 2 -25 q2 -9 7 -14 q5 -5 13.5 -7 q8.5 -2 21.5 -3 q16 -2 33 0 q26 2 37.5 10 q11.5 8 16.5 31 q6 29 7.5 50.5 q1.5 21.5 2.5 50.5 l62 -22 ZM108 442 q-10 -1 -21.5 -3 q-11.5 -2 -21.5 -5 l-15 71 q12 4 19 9 q7 5 15 16 q13 18 31 49.5 q18 31.5 37.5 69.5 q19.5 38 38.5 79 q19 41 33 78 l65 -29 q-14 -33 -32 -70.5 q-18 -37.5 -37 -74 q-19 -36.5 -37.5 -68 q-18.5 -31.5 -32.5 -51.5 l119 6 q15 28 29.5 55 q14.5 27 25.5 52 l62 -32 q-19 -41 -44 -87.5 q-25 -46.5 -50.5 -91 q-25.5 -44.5 -50 -83.5 q-24.5 -39 -43.5 -65 l165 23 l1 -71 q-6 -1 -22 -3.5 q-16 -2.5 -38 -5.5 q-22 -3 -46.5 -7 q-24.5 -4 -47 -7.5 q-22.5 -3.5 -41 -6.5 q-18.5 -3 -26.5 -4 q-10 -1 -26.5 -4 q-16.5 -3 -30.5 -7 l-17 69 q14 4 28 12.5 q14 8.5 22 21.5 q22 31 50.5 76 q28.5 45 58.5 96 q-17 -1 -36 -2 q-19 -1 -35.5 -2 q-16.5 -1 -29.5 -2 q-13 -1 -19 -1 ZM383 42 q-31 -7 -76.5 -16.5 q-45.5 -9.5 -93.5 -19 q-48 -9.5 -93.5 -18 q-45.5 -8.5 -75.5 -13.5 l-13 71 q31 5 77 13.5 q46 8.5 95 18 q49 9.5 94.5 19.5 q45.5 10 76.5 18 l5 -44 l4 -29 Z" /><glyph glyph-name="uni7EF4" unicode="&#x7ef4;" d="M936 -23 l-440 0 l0 -73 l-67 0 l0 556 q-29 -52 -62 -100 l-51 58 q61 85 104 184.5 q43 99.5 69 209.5 l74 -11 q-11 -39 -23 -77.5 q-12 -38.5 -26 -76.5 l172 0 q-10 38 -23.5 76.5 q-13.5 38.5 -24.5 61.5 l71 16 q6 -14 13 -33 q7 -19 14.5 -40 q7.5 -21 14 -42 q6.5 -21 11.5 -39 l151 0 l0 -67 l-181 0 l0 -132 l165 0 l0 -65 l-165 0 l0 -130 l165 0 l0 -67 l-165 0 l0 -142 l204 0 l0 -67 ZM109 448 q-18 -2 -43 -7 l-19 71 q16 5 23 10.5 q7 5.5 15 17.5 q13 19 30.5 50 q17.5 31 36 68 q18.5 37 37 76.5 q18.5 39.5 33.5 75.5 l67 -27 q-14 -34 -32.5 -72.5 q-18.5 -38.5 -38 -74.5 q-19.5 -36 -37 -67 q-17.5 -31 -29.5 -49 l107 6 q20 37 37 70 q17 33 28 57 l63 -29 q-17 -37 -43 -86 q-26 -49 -54.5 -98.5 q-28.5 -49.5 -55.5 -93.5 q-27 -44 -46 -71 q12 1 35.5 5 q23.5 4 48 8 q24.5 4 45.5 8 q21 4 30 6 l1 -70 q-11 -2 -38.5 -7 q-27.5 -5 -59.5 -10.5 q-32 -5.5 -61 -10.5 q-29 -5 -42 -8 q-14 -2 -28 -4.5 q-14 -2.5 -28 -6.5 l-19 77 q17 6 26.5 11.5 q9.5 5.5 17.5 17.5 q23 31 50 75 q27 44 55 92 q-15 -1 -32.5 -2.5 q-17.5 -1.5 -33.5 -2.5 q-16 -1 -28 -2.5 q-12 -1.5 -18 -2.5 ZM663 580 l-167 0 l0 -132 l167 0 l0 132 ZM663 383 l-167 0 l0 -130 l167 0 l0 130 ZM496 44 l167 0 l0 142 l-167 0 l0 -142 ZM387 84 l3 -37 q-31 -8 -77 -17 q-46 -9 -95 -18 q-49 -9 -94.5 -17 q-45.5 -8 -76.5 -13 l-12 70 q32 4 79 12 q47 8 96.5 17.5 q49.5 9.5 95.5 19 q46 9.5 78 17.5 l3 -34 Z" /><glyph glyph-name="uni7F16" unicode="&#x7f16;" d="M889 389 l0 -385 q0 -27 -4 -44 q-4 -17 -13 -27.5 q-9 -10.5 -24 -16.5 q-15 -6 -38 -9 l-21 -3 l-22 66 l28 4 q23 2 28.5 10.5 q5.5 8.5 5.5 35.5 l0 109 l-76 0 l0 -177 l-57 0 l0 177 l-76 0 l0 -177 l-56 0 l0 177 l-71 0 l0 -223 l-61 0 l0 422 q-10 -123 -38 -225.5 q-28 -102.5 -77 -178.5 l-65 34 q18 24 32.5 49.5 q14.5 25.5 26.5 53.5 q-24 -7 -58 -15.5 q-34 -8.5 -70 -17 q-36 -8.5 -69.5 -15 q-33.5 -6.5 -57.5 -10.5 l-18 72 q27 3 63.5 10 q36.5 7 73.5 15.5 q37 8.5 72 17 q35 8.5 59 15.5 l3 -39 l3 -31 q34 82 46.5 189 q12.5 107 12.5 249 l0 204 l224 0 q-7 26 -15 50.5 q-8 24.5 -15 43.5 l66 15 q9 -23 18 -52 q9 -29 17 -57 l206 0 l0 -225 l-434 0 q0 -23 -0.5 -45.5 q-0.5 -22.5 -1.5 -45.5 l453 0 ZM106 448 q-8 -1 -16.5 -2.5 q-8.5 -1.5 -22.5 -4.5 l-15 68 q11 5 17.5 9.5 q6.5 4.5 14.5 15.5 q13 20 30 50.5 q17 30.5 34 66 q17 35.5 33.5 72.5 q16.5 37 28.5 70 l64 -27 q-14 -34 -31.5 -71.5 q-17.5 -37.5 -35.5 -72 q-18 -34.5 -35.5 -63.5 q-17.5 -29 -29.5 -47 q7 1 19.5 2 q12.5 1 27.5 1.5 q15 0.5 31 1.5 q16 1 30 1 q14 27 27.5 53.5 q13.5 26.5 24.5 51.5 l55 -29 q-15 -35 -35.5 -76 q-20.5 -41 -43 -82.5 q-22.5 -41.5 -45.5 -81.5 q-23 -40 -44 -73 q12 2 31 5.5 q19 3.5 40 7.5 q21 4 40.5 7.5 q19.5 3.5 31.5 6.5 l2 -72 q-6 -1 -30.5 -4.5 q-24.5 -3.5 -54 -8 q-29.5 -4.5 -58 -9 q-28.5 -4.5 -44.5 -7.5 q-13 -2 -26.5 -5 q-13.5 -3 -25.5 -7 l-16 75 q17 5 26 10.5 q9 5.5 16 18.5 q17 22 42 63 q25 41 53 92 q-15 0 -32 -1 q-17 -1 -32.5 -2 q-15.5 -1 -28 -2 q-12.5 -1 -17.5 -1 ZM438 643 l0 -100 l368 0 l0 100 l-368 0 ZM564 189 l0 139 l-71 0 l0 -139 l71 0 ZM696 189 l0 139 l-76 0 l0 -139 l76 0 ZM829 189 l0 139 l-76 0 l0 -139 l76 0 Z" /><glyph glyph-name="uni7F18" unicode="&#x7f18;" d="M107 449 q-8 -1 -18.5 -2.5 q-10.5 -1.5 -21.5 -5.5 l-17 71 q14 6 21 11.5 q7 5.5 15 17.5 q15 22 31.5 51.5 q16.5 29.5 33 64 q16.5 34.5 32 72.5 q15.5 38 29.5 76 l62 -21 q-14 -36 -30.5 -73.5 q-16.5 -37.5 -33.5 -72.5 q-17 -35 -33 -65.5 q-16 -30.5 -29 -52.5 q7 1 20 2 q13 1 28 1.5 q15 0.5 30.5 1.5 q15.5 1 27.5 2 q20 36 37 70 q17 34 29 62 l59 -27 q-18 -40 -45.5 -91.5 q-27.5 -51.5 -56.5 -102.5 q-29 -51 -55.5 -95.5 q-26.5 -44.5 -42.5 -68.5 q13 2 33.5 5 q20.5 3 42 6.5 q21.5 3.5 39.5 6.5 q18 3 26 5 l1 -71 q-11 -2 -35.5 -5.5 q-24.5 -3.5 -53 -8 q-28.5 -4.5 -54.5 -8.5 q-26 -4 -38 -7 q-14 -3 -26 -5.5 q-12 -2.5 -28 -6.5 l-18 75 q18 6 27 10.5 q9 4.5 18 18.5 q20 29 46.5 73 q26.5 44 55.5 95 l-108 -8 ZM771 264 q14 -41 31.5 -73.5 q17.5 -32.5 39 -62 q21.5 -29.5 48.5 -58 q27 -28.5 60 -59.5 l-44 -47 q-33 32 -60.5 63 q-27.5 31 -50.5 63 q-23 32 -41.5 66.5 q-18.5 34.5 -33.5 74.5 q-8 -5 -14.5 -9 q-6.5 -4 -13.5 -8 q8 -35 11.5 -73.5 q3.5 -38.5 3.5 -83.5 q0 -39 -5.5 -64.5 q-5.5 -25.5 -19 -41 q-13.5 -15.5 -37 -23 q-23.5 -7.5 -60.5 -11.5 l-40 -4 l-23 62 l43 4 q25 2 40.5 7 q15.5 5 23.5 16 q8 11 10.5 29 q2.5 18 2.5 47 q0 17 -0.5 32 q-0.5 15 -1.5 29 q-64 -58 -147 -111.5 q-83 -53.5 -169 -92.5 l-29 61 q86 35 174 93 q88 58 159 124 q-3 11 -6.5 22.5 q-3.5 11.5 -7.5 22.5 q-56 -42 -124 -82 q-68 -40 -138 -72 l-27 61 q32 13 67 30.5 q35 17.5 69.5 36.5 q34.5 19 67.5 39.5 q33 20.5 61 40.5 q-5 11 -11.5 21.5 q-6.5 10.5 -13.5 21.5 q-53 -30 -106.5 -57 q-53.5 -27 -99.5 -46 l-20 62 q57 20 119 51 q62 31 113 63 l-216 0 l0 58 l371 0 l12 67 l-319 0 l57 251 l63 -10 l-15 -60 l311 0 l-41 -248 l133 0 l0 -58 l-246 0 q-15 -11 -31.5 -21 q-16.5 -10 -33.5 -21 q18 -29 32 -55.5 q14 -26.5 25 -52.5 q23 13 47.5 28.5 q24.5 15.5 48 31.5 q23.5 16 44.5 32 q21 16 38 30 l38 -52 q-22 -17 -53 -39.5 q-31 -22.5 -65 -44.5 ZM748 608 l13 71 l-250 0 l-17 -71 l254 0 ZM335 43 q-67 -17 -141 -31.5 q-74 -14.5 -150 -26.5 l-9 68 q72 10 147 24.5 q75 14.5 149 33.5 l2 -38 l2 -30 Z" /><glyph glyph-name="uni7F51" unicode="&#x7f51;" d="M869 748 l0 -705 q0 -38 -6 -62 q-6 -24 -22.5 -39 q-16.5 -15 -45.5 -21.5 q-29 -6.5 -75 -8.5 l-60 -4 l-25 74 l73 4 q28 1 45.5 4.5 q17.5 3.5 27.5 12 q10 8.5 13.5 23.5 q3.5 15 3.5 38 l0 614 l-616 0 l0 -768 l-70 0 l0 838 l757 0 ZM438 124 q-10 31 -25 68 q-15 37 -33 78 q-32 -65 -66.5 -124 q-34.5 -59 -69.5 -111 l-55 41 q41 60 80 128.5 q39 68.5 74 144.5 q-30 63 -61 119 q-31 56 -56 94 l53 32 q21 -31 46.5 -75 q25.5 -44 51.5 -94 q21 48 39.5 97.5 q18.5 49.5 34.5 99.5 l65 -23 q-22 -65 -47 -128 q-25 -63 -53 -124 q25 -51 45.5 -97.5 q20.5 -46.5 33.5 -81.5 l-57 -44 ZM733 56 q-14 42 -39 97 q-25 55 -54 113 q-63 -128 -144 -246 l-55 40 q45 66 85 137 q40 71 75 145 q-28 53 -55 99.5 q-27 46.5 -50 78.5 l53 38 q19 -26 41 -62.5 q22 -36.5 45 -78.5 q42 99 72 195 l64 -23 q-20 -64 -43.5 -125.5 q-23.5 -61.5 -51.5 -122.5 q35 -66 65.5 -130.5 q30.5 -64.5 47.5 -111.5 l-56 -43 Z" /><glyph glyph-name="uni7F72" unicode="&#x7f72;" d="M854 567 l-725 0 l0 203 l725 0 l0 -203 ZM198 621 l153 0 l0 93 l-153 0 l0 -93 ZM418 714 l0 -93 l148 0 l0 93 l-148 0 ZM786 714 l-153 0 l0 -93 l153 0 l0 93 ZM619 314 q-38 -20 -80.5 -39 q-42.5 -19 -90.5 -38 l345 0 l0 -337 l-71 0 l0 46 l-420 0 l0 -46 l-71 0 l0 263 q-40 -13 -82.5 -25 q-42.5 -12 -88.5 -25 l-25 63 q136 35 242 68 q106 33 193 70 l-414 0 l0 58 l357 0 l0 67 l-250 0 l0 56 l250 0 l0 55 l72 -2 l0 -53 l220 0 l0 -49 q29 22 55 44.5 q26 22.5 52 48.5 l49 -46 q-64 -67 -145 -121 l221 0 l0 -58 l-318 0 ZM589 372 q58 32 106 67 l-210 0 l0 -67 l104 0 ZM722 183 l-420 0 l0 -63 l420 0 l0 63 ZM722 1 l0 65 l-420 0 l0 -65 l420 0 Z" /><glyph glyph-name="uni8054" unicode="&#x8054;" d="M682 285 q13 -51 37.5 -98.5 q24.5 -47.5 58.5 -89 q34 -41.5 76 -74.5 q42 -33 91 -55 l-45 -63 q-82 41 -145.5 109.5 q-63.5 68.5 -99.5 152.5 q-28 -75 -83.5 -139 q-55.5 -64 -149.5 -123 l-48 56 q113 65 170.5 145 q57.5 80 68.5 184 l-207 0 l0 73 l210 0 l-2 174 l-184 0 l0 72 l252 0 q13 21 27 46.5 q14 25.5 27 52 q13 26.5 24.5 51.5 q11.5 25 19.5 46 l68 -27 q-14 -32 -38 -78.5 q-24 -46.5 -49 -90.5 l132 0 l0 -72 l-207 0 l0 -174 l237 0 l0 -73 l-240 0 q0 -2 -0.5 -2.5 q-0.5 -0.5 -0.5 -2.5 ZM553 617 q-5 13 -14 35 q-9 22 -20.5 45 q-11.5 23 -22.5 43.5 q-11 20.5 -18 30.5 l59 27 q6 -7 17.5 -27.5 q11.5 -20.5 24 -44.5 q12.5 -24 23 -46.5 q10.5 -22.5 15.5 -33.5 l-64 -29 ZM446 77 q-10 -2 -30 -5.5 q-20 -3.5 -47 -7.5 l0 -163 l-67 0 l0 154 q-37 -5 -76 -9.5 q-39 -4.5 -74.5 -8.5 q-35.5 -4 -65 -7.5 q-29.5 -3.5 -47.5 -5.5 l-7 74 q15 1 34 2.5 q19 1.5 42 3.5 l0 573 l-57 0 l0 69 l377 0 l0 -69 l-59 0 l0 -541 q23 4 42 7 q19 3 33 6 l2 -72 ZM171 677 l0 -142 l131 0 l0 142 l-131 0 ZM171 334 l131 0 l0 136 l-131 0 l0 -136 ZM171 111 q32 4 65.5 7.5 q33.5 3.5 65.5 8.5 l0 142 l-131 0 l0 -158 Z" /><glyph glyph-name="uni80A1" unicode="&#x80a1;" d="M911 -105 q-78 36 -139 72 q-61 36 -110 77 q-48 -40 -108 -77.5 q-60 -37.5 -137 -72.5 l-38 52 q-11 -17 -33.5 -24.5 q-22.5 -7.5 -60.5 -10.5 l-42 -4 l-24 77 l50 4 q19 1 30.5 4 q11.5 3 18 9 q6.5 6 8.5 15.5 q2 9.5 2 25.5 l0 178 l-134 0 q-2 -55 -9.5 -97.5 q-7.5 -42.5 -20 -79 q-12.5 -36.5 -29.5 -70.5 q-17 -34 -38 -72 l-67 30 q28 44 47 82.5 q19 38.5 30.5 87 q11.5 48.5 16.5 114 q5 65.5 5 163.5 l0 371 l263 0 l0 -740 q0 -25 -4 -40 q138 58 222 124 q-41 44 -72 95 q-31 51 -56 114 l54 29 l-99 0 l0 71 l416 0 l0 -71 q-21 -69 -54.5 -127.5 q-33.5 -58.5 -84.5 -111.5 q87 -72 237 -130 l-40 -67 ZM582 618 q0 -33 -5 -59.5 q-5 -26.5 -17 -50 q-12 -23.5 -32 -45.5 q-20 -22 -50 -46 l-55 39 q34 27 53 48.5 q19 21.5 27.5 42.5 q8.5 21 10 43.5 q1.5 22.5 1.5 51.5 l0 104 l290 0 l0 -170 q0 -27 9 -36.5 q9 -9.5 35 -10.5 q36 -2 72 0 l-7 -65 q-47 -3 -94 0 q-22 1 -37.5 5 q-15.5 4 -26 12.5 q-10.5 8.5 -15.5 23.5 q-5 15 -5 39 l0 133 l-154 0 l0 -59 ZM195 681 l0 -166 l133 0 l0 166 l-133 0 ZM328 289 l0 159 l-133 0 l0 -159 l133 0 ZM546 331 q23 -57 51 -103.5 q28 -46.5 66 -88.5 q43 44 70.5 91 q27.5 47 44.5 101 l-232 0 Z" /><glyph glyph-name="uni80FD" unicode="&#x80fd;" d="M378 730 q16 -17 37 -42.5 q21 -25.5 42.5 -54 q21.5 -28.5 41 -56 q19.5 -27.5 31.5 -47.5 l-54 -49 q-7 14 -16 29.5 q-9 15.5 -20 32.5 q-26 -1 -69.5 -3 q-43.5 -2 -88 -4.5 q-44.5 -2.5 -82.5 -4.5 q-38 -2 -54 -3 q-13 -1 -26 -2.5 q-13 -1.5 -33 -6.5 l-17 69 q16 4 25 9 q9 5 14 11 q17 16 37.5 40.5 q20.5 24.5 41 52 q20.5 27.5 39 56 q18.5 28.5 30.5 54.5 l68 -33 q-14 -23 -31 -48.5 q-17 -25.5 -35 -50.5 q-18 -25 -36.5 -47.5 q-18.5 -22.5 -33.5 -40.5 q16 0 42 1.5 q26 1.5 55 3 q29 1.5 59 3.5 q30 2 54 4 q-19 26 -37.5 49.5 q-18.5 23.5 -32.5 39.5 l49 38 ZM648 386 q-42 3 -62.5 24.5 q-20.5 21.5 -20.5 72.5 l0 316 l69 -2 l0 -162 q29 11 61.5 25 q32.5 14 64 29.5 q31.5 15.5 60 30.5 q28.5 15 48.5 28 l32 -65 q-23 -15 -56 -32 q-33 -17 -69.5 -34 q-36.5 -17 -73.5 -31.5 q-37 -14.5 -67 -24.5 l0 -53 q0 -32 10.5 -41.5 q10.5 -9.5 38.5 -12.5 q50 -6 101 0 q32 4 46 9 q14 5 19 22 q7 20 8.5 42.5 q1.5 22.5 3.5 44.5 l68 -28 q-5 -25 -8.5 -52 q-3.5 -27 -11.5 -52 q-6 -24 -29 -37 q-23 -13 -73 -17 q-80 -6 -159 0 ZM119 462 l350 0 l0 -452 q0 -28 -5 -45 q-5 -17 -17 -27.5 q-12 -10.5 -32 -15.5 q-20 -5 -51 -8 l-41 -4 l-20 70 l48 4 q18 1 28.5 4 q10.5 3 15 9 q4.5 6 5.5 16 q1 10 1 25 l0 67 l-215 0 l0 -194 l-67 0 l0 551 ZM186 390 l0 -78 l215 0 l0 78 l-215 0 ZM934 109 q-5 -29 -9 -57.5 q-4 -28.5 -12 -55.5 q-8 -27 -32 -41.5 q-24 -14.5 -77 -19.5 q-75 -6 -150 0 q-45 4 -66.5 26 q-21.5 22 -21.5 73 l0 322 l68 -2 l0 -159 q30 12 63.5 27.5 q33.5 15.5 66 32.5 q32.5 17 62 33.5 q29.5 16.5 50.5 30.5 l34 -66 q-24 -15 -59 -34 q-35 -19 -73 -37.5 q-38 -18.5 -75.5 -35 q-37.5 -16.5 -68.5 -26.5 l0 -62 q0 -32 13.5 -42.5 q13.5 -10.5 43.5 -14.5 q45 -6 91 0 q35 5 50 13 q15 8 20 30 q5 22 9 45.5 q4 23.5 6 44.5 l67 -25 ZM401 169 l0 78 l-215 0 l0 -78 l215 0 Z" /><glyph glyph-name="uni81F4" unicode="&#x81f4;" d="M720 157 q42 -54 95.5 -102 q53.5 -48 122.5 -96 l-46 -66 q-67 51 -119.5 100 q-52.5 49 -94.5 102 q-40 -54 -94 -104 q-54 -50 -126 -103 l-47 61 q77 52 131.5 102 q54.5 50 93.5 104 q-38 60 -64.5 127.5 q-26.5 67.5 -43.5 148.5 q-5 -8 -9 -15 q-4 -7 -9 -14 l-46 56 q46 71 80 159 q34 88 54 187 l68 -13 q-8 -38 -18.5 -76 q-10.5 -38 -23.5 -76 l294 0 l0 -71 l-80 0 q-8 -65 -18 -122 q-10 -57 -24 -107.5 q-14 -50.5 -32.5 -95.5 q-18.5 -45 -43.5 -86 ZM464 9 q-22 -4 -57 -8.5 q-35 -4.5 -75.5 -9.5 q-40.5 -5 -84.5 -10 q-44 -5 -84.5 -9 q-40.5 -4 -75 -7.5 q-34.5 -3.5 -56.5 -5.5 l-5 68 q33 2 90 7.5 q57 5.5 120 12.5 l0 150 l-165 0 l0 67 l165 0 l0 137 l-100 -6 q-14 -1 -27.5 -2.5 q-13.5 -1.5 -31.5 -6.5 l-15 66 q14 5 18.5 7.5 q4.5 2.5 10.5 9.5 q10 13 25 36 q15 23 31.5 49.5 q16.5 26.5 32.5 55 q16 28.5 29 54.5 l-152 0 l0 70 l430 0 l0 -70 l-201 0 q-14 -26 -30 -54 q-16 -28 -32.5 -55.5 q-16.5 -27.5 -31.5 -51.5 q-15 -24 -27 -40 q12 0 36 1 q24 1 53 2.5 q29 1.5 60 3 q31 1.5 57 3.5 q-15 29 -30.5 54 q-15.5 25 -29.5 45 l53 33 q15 -21 31.5 -46.5 q16.5 -25.5 33 -52.5 q16.5 -27 31.5 -54.5 q15 -27.5 27 -51.5 l-57 -43 q-5 12 -11.5 25.5 q-6.5 13.5 -13.5 27.5 l-97 -5 l0 -141 l164 0 l0 -67 l-164 0 l0 -142 q48 6 89 11.5 q41 5.5 67 10.5 l0 -68 ZM576 521 q12 -91 37 -164.5 q25 -73.5 64 -137.5 q39 73 59.5 157.5 q20.5 84.5 33.5 191.5 l-173 0 l-21 -47 Z" /><glyph glyph-name="uni82D2" unicode="&#x82d2;" d="M291 654 l-231 0 l0 67 l231 0 l0 87 l69 -3 l0 -84 l267 0 l0 87 l69 -3 l0 -84 l230 0 l0 -67 l-230 0 l0 -77 l-69 0 l0 77 l-267 0 l0 -77 l-69 0 l0 77 ZM937 104 l-121 0 l0 -75 q0 -32 -6.5 -52.5 q-6.5 -20.5 -21 -33.5 q-14.5 -13 -38 -19 q-23.5 -6 -58.5 -8 l-62 -4 l-25 71 l66 4 q43 3 59 15 q16 12 16 48 l0 54 l-506 0 l0 -198 l-70 0 l0 198 l-121 0 l0 65 l121 0 l0 355 l288 0 l0 82 l71 -3 l0 -79 l287 0 l0 -355 l121 0 l0 -65 ZM240 458 l0 -110 l218 0 l0 110 l-218 0 ZM529 458 l0 -110 l217 0 l0 110 l-217 0 ZM240 169 l218 0 l0 113 l-218 0 l0 -113 ZM746 169 l0 113 l-217 0 l0 -113 l217 0 Z" /><glyph glyph-name="uni834F" unicode="&#x834f;" d="M309 634 l-249 0 l0 71 l249 0 l0 101 l72 -3 l0 -98 l226 0 l0 101 l72 -3 l0 -98 l247 0 l0 -71 l-247 0 l0 -75 l-72 0 l0 75 l-226 0 l0 -75 l-72 0 l0 75 ZM347 527 q-17 -32 -36 -64.5 q-19 -32.5 -42 -63.5 l0 -492 l-72 0 l0 400 q-29 -32 -58.5 -62.5 q-29.5 -30.5 -60.5 -56.5 l-43 72 q34 28 69 63 q35 35 68 74 q33 39 61.5 82 q28.5 43 50.5 87 l63 -39 ZM661 200 l0 -180 l238 0 l0 -69 l-559 0 l0 69 l247 0 l0 180 l-275 0 l0 70 l275 0 l0 153 q-60 -5 -117.5 -9.5 q-57.5 -4.5 -110.5 -6.5 l-5 71 q60 3 127.5 7.5 q67.5 4.5 135.5 11 q68 6.5 132.5 15 q64.5 8.5 120.5 18.5 l15 -70 q-50 -9 -107 -16.5 q-57 -7.5 -117 -13.5 l0 -160 l276 0 l0 -70 l-276 0 Z" /><glyph glyph-name="uni836F" unicode="&#x836f;" d="M929 705 l0 -67 l-251 0 l0 -75 l-73 0 l0 75 l-220 0 l0 -73 l-72 0 l0 73 l-256 0 l0 67 l256 0 l0 104 l72 -3 l0 -101 l220 0 l0 104 l73 -3 l0 -101 l251 0 ZM307 561 q-32 -54 -65 -97.5 q-33 -43.5 -59 -70.5 q8 0 25.5 0.5 q17.5 0.5 37.5 1.5 q20 1 41 2 q21 1 36 2 q21 28 41 55.5 q20 27.5 37 53.5 l55 -39 q-23 -33 -50.5 -70 q-27.5 -37 -56 -72 q-28.5 -35 -57 -67 q-28.5 -32 -53.5 -56 q15 1 44 4 q29 3 59.5 6.5 q30.5 3.5 56.5 6.5 q26 3 36 5 l-2 -65 q-10 -1 -44 -4.5 q-34 -3.5 -74.5 -8 q-40.5 -4.5 -77.5 -9 q-37 -4.5 -53 -5.5 q-17 -2 -33.5 -4.5 q-16.5 -2.5 -32.5 -5.5 l-16 67 q13 3 21.5 5 q8.5 2 14.5 5 q6 3 11.5 7 q5.5 4 11.5 10 q56 49 112 118 l-135 -8 q-11 -1 -22 -2.5 q-11 -1.5 -26 -3.5 l-16 65 q17 5 23.5 8.5 q6.5 3.5 14.5 11.5 q15 13 32.5 34 q17.5 21 36 46 q18.5 25 37 52.5 q18.5 27.5 34.5 55.5 l55 -34 ZM625 550 q-8 -18 -15.5 -36 q-7.5 -18 -16.5 -35 l273 0 q0 -6 -1 -37.5 q-1 -31.5 -2.5 -76 q-1.5 -44.5 -3.5 -95.5 q-2 -51 -3.5 -96 q-1.5 -45 -3 -78.5 q-1.5 -33.5 -1.5 -41.5 q-2 -38 -8 -61.5 q-6 -23.5 -21 -37 q-15 -13.5 -40.5 -20 q-25.5 -6.5 -67.5 -9.5 l-64 -5 l-25 70 l64 4 q30 2 48 6 q18 4 27.5 14 q9.5 10 13 27 q3.5 17 4.5 46 l13 324 l-237 0 q-42 -73 -92 -137 l-59 37 q51 64 90 130.5 q39 66.5 65 131.5 l63 -24 ZM658 128 q-11 15 -31 36.5 q-20 21.5 -42.5 44 q-22.5 22.5 -45 43 q-22.5 20.5 -38.5 32.5 l42 47 q16 -12 38 -30.5 q22 -18.5 44.5 -39 q22.5 -20.5 43 -41 q20.5 -20.5 32.5 -35.5 l-43 -57 ZM461 29 l2 -25 q-34 -8 -88.5 -17 q-54.5 -9 -113 -17.5 q-58.5 -8.5 -113 -15 q-54.5 -6.5 -87.5 -9.5 l-8 66 q34 3 89 9.5 q55 6.5 114 15 q59 8.5 114 18 q55 9.5 89 17.5 l2 -42 Z" /><glyph glyph-name="uni840C" unicode="&#x840c;" d="M935 717 l0 -65 l-253 0 l0 -65 l-72 0 l0 65 l-232 0 l0 -65 l-73 0 l0 65 l-255 0 l0 65 l255 0 l0 91 l73 -2 l0 -89 l232 0 l0 91 l72 -2 l0 -89 l253 0 ZM503 549 l353 0 l0 -522 q0 -31 -5 -51 q-5 -20 -19 -32.5 q-14 -12.5 -39.5 -19 q-25.5 -6.5 -65.5 -10.5 l-45 -4 l-22 67 l54 4 q25 2 40 5 q15 3 23 9.5 q8 6.5 10.5 17.5 q2.5 11 2.5 29 l0 93 l-228 0 q-7 -39 -19.5 -71 q-12.5 -32 -33 -61 q-20.5 -29 -50 -57 q-29.5 -28 -69.5 -59 l-51 51 q57 42 89.5 74.5 q32.5 32.5 49 70.5 q16.5 38 21 88.5 q4.5 50.5 4.5 128.5 l0 249 ZM397 28 l-275 0 l0 509 l275 0 l0 -509 ZM571 484 l0 -114 l219 0 l0 114 l-219 0 ZM188 472 l0 -156 l145 0 l0 156 l-145 0 ZM790 196 l0 112 l-219 0 l0 -35 q0 -21 -0.5 -40.5 q-0.5 -19.5 -1.5 -36.5 l221 0 ZM333 93 l0 158 l-145 0 l0 -158 l145 0 Z" /><glyph glyph-name="uni8425" unicode="&#x8425;" d="M930 742 l0 -62 l-260 0 l0 -59 l-73 0 l0 59 l-221 0 l0 -59 l-73 0 l0 59 l-260 0 l0 62 l260 0 l0 82 l73 -4 l0 -78 l221 0 l0 82 l73 -4 l0 -78 l260 0 ZM99 596 l774 0 l0 -173 l-71 0 l0 114 l-630 0 l0 -114 l-73 0 l0 173 ZM758 465 l0 -199 l-542 0 l0 199 l542 0 ZM686 408 l-398 0 l0 -85 l398 0 l0 85 ZM150 191 l673 0 l0 -274 l-76 0 l0 46 l-521 0 l0 -45 l-76 0 l0 273 ZM226 131 l0 -108 l521 0 l0 108 l-521 0 Z" /><glyph glyph-name="uni845B" unicode="&#x845b;" d="M927 735 l0 -61 l-250 0 l0 -50 l-72 0 l0 50 l-228 0 l0 -49 l-70 0 l0 49 l-250 0 l0 61 l250 0 l0 72 l70 -3 l0 -69 l228 0 l0 72 l72 -3 l0 -69 l250 0 ZM354 340 q-9 -14 -19 -26 q-10 -12 -21 -24 l544 0 q-4 -59 -7 -110 q-2 -22 -3 -44 q-1 -22 -2 -42 q-1 -20 -2 -36.5 q-1 -16.5 -2 -25.5 q-2 -36 -9 -60 q-7 -24 -23 -39.5 q-16 -15.5 -42.5 -24 q-26.5 -8.5 -67.5 -12.5 l-61 -6 l-24 66 l69 5 q24 2 40 7 q16 5 26 15 q10 10 15 25.5 q5 15.5 7 38.5 q1 7 3 32 q2 25 3.5 55 q1.5 30 3 57 q1.5 27 1.5 38 l-293 0 l49 -25 l-12 -17 q23 -8 50 -18 q27 -10 53.5 -20.5 q26.5 -10.5 50.5 -21 q24 -10.5 41 -19.5 l-26 -63 q-18 13 -45 27 q-27 14 -56 27.5 q-29 13.5 -57.5 25 q-28.5 11.5 -50.5 19.5 q-38 -33 -87 -54 q-49 -21 -108 -38 l-33 59 q84 19 136 46.5 q52 27.5 82 71.5 l-229 0 q-11 -9 -23 -17.5 q-12 -8.5 -24 -16.5 l39 0 l0 -159 l453 0 l0 -61 l-519 0 l0 203 q-23 -14 -47 -27.5 q-24 -13.5 -50 -25.5 l-39 53 q78 38 136.5 82.5 q58.5 44.5 97.5 91.5 l-84 0 l0 257 l608 0 l0 -257 l-477 0 l35 -12 ZM261 558 l0 -52 l463 0 l0 52 l-463 0 ZM261 404 l463 0 l0 53 l-463 0 l0 -53 Z" /><glyph glyph-name="uni8584" unicode="&#x8584;" d="M929 731 l0 -58 l-255 0 l0 -41 l-74 0 l0 41 l-210 0 l0 -61 l-73 0 l0 61 l-261 0 l0 58 l261 0 l0 72 l73 -4 l0 -68 l210 0 l0 72 l74 -4 l0 -68 l255 0 ZM613 621 l0 -46 l158 0 q-14 16 -29.5 30.5 q-15.5 14.5 -26.5 22.5 l41 38 q7 -6 18 -15.5 q11 -9.5 22 -19.5 q11 -10 21 -20 q10 -10 17 -17 l-16 -19 l91 0 l0 -49 l-296 0 l0 -55 l234 0 l0 -310 l-67 0 l0 56 l-167 0 l0 -57 l-66 0 l0 57 l-157 0 l0 -58 l-67 0 l0 312 l224 0 l0 55 l-256 0 l0 49 l256 0 l0 49 l66 -3 ZM127 616 q17 -9 38.5 -22.5 q21.5 -13.5 43 -28.5 q21.5 -15 42 -30 q20.5 -15 35.5 -27 l-38 -65 q-15 14 -35 30.5 q-20 16.5 -42 33 q-22 16.5 -43 31 q-21 14.5 -38 24.5 l37 54 ZM90 436 q16 -9 37 -23 q21 -14 42 -30 q21 -16 41 -32 q20 -16 35 -29 l-40 -67 q-14 16 -33.5 34 q-19.5 18 -41 35.5 q-21.5 17.5 -42.5 32.5 q-21 15 -37 25 l39 54 ZM390 424 l0 -53 l157 0 l0 53 l-157 0 ZM613 424 l0 -53 l167 0 l0 53 l-167 0 ZM547 266 l0 56 l-157 0 l0 -56 l157 0 ZM780 266 l0 56 l-167 0 l0 -56 l167 0 ZM214 208 l31 -14 q-7 -29 -19.5 -69 q-12.5 -40 -27 -82 q-14.5 -42 -29.5 -81 q-15 -39 -28 -65 l-76 28 q15 26 32 64.5 q17 38.5 33 80.5 q16 42 28.5 82.5 q12.5 40.5 19.5 70.5 l36 -15 ZM773 130 l150 0 l0 -55 l-150 0 l0 -69 q0 -28 -4 -46.5 q-4 -18.5 -17.5 -30.5 q-13.5 -12 -39 -17.5 q-25.5 -5.5 -67.5 -8.5 l-46 -3 l-22 61 l55 4 q26 2 40.5 5 q14.5 3 22 9 q7.5 6 9.5 17 q2 11 2 28 l0 51 l-290 0 q14 -9 30 -20.5 q16 -11.5 32 -23.5 q16 -12 30.5 -23.5 q14.5 -11.5 24.5 -20.5 l-37 -58 q-12 14 -29.5 30 q-17.5 16 -36.5 31.5 q-19 15.5 -37.5 28.5 q-18.5 13 -31.5 21 l26 35 l-126 0 l0 55 l445 0 l0 56 l67 -3 l0 -53 Z" /><glyph glyph-name="uni8776" unicode="&#x8776;" d="M345 -3 q-2 12 -3.5 25.5 q-1.5 13.5 -4.5 27.5 q-32 -8 -71.5 -17.5 q-39.5 -9.5 -79 -18 q-39.5 -8.5 -76 -16 q-36.5 -7.5 -61.5 -11.5 l-16 70 q33 5 79.5 12.5 q46.5 7.5 94.5 17.5 l0 164 l-114 0 l0 390 l114 0 l0 157 l61 -3 l0 -154 l114 0 l0 -390 l-114 0 l0 -151 l56 14 q-6 29 -12.5 55 q-6.5 26 -13.5 46 l58 14 q7 -21 14.5 -47.5 q7.5 -26.5 14.5 -54.5 q7 -28 12.5 -54.5 q5.5 -26.5 8.5 -47.5 l-61 -28 ZM726 183 q45 -49 105.5 -96 q60.5 -47 128.5 -84 l-36 -64 q-68 50 -127.5 97.5 q-59.5 47.5 -104.5 99.5 l0 -238 l-66 0 l0 232 q-19 -24 -40 -47 q-21 -23 -46 -45.5 q-25 -22.5 -55.5 -45.5 q-30.5 -23 -68.5 -48 l-41 58 q38 23 69.5 45 q31.5 22 58 44 q26.5 22 50 44.5 q23.5 22.5 45.5 47.5 l-190 0 l0 62 l218 0 l0 83 l-162 0 l0 283 l-63 0 l0 61 l63 0 l0 106 l62 -3 l0 -103 l86 0 l0 125 l64 -3 l0 -122 l98 0 l0 124 l60 -3 l0 -121 l96 0 l0 -61 l-96 0 l0 -159 l-222 0 l0 159 l-86 0 l0 -222 l371 0 l0 -61 l-205 0 l0 -83 l233 0 l0 -62 l-199 0 ZM676 611 l0 -97 l98 0 l0 97 l-98 0 ZM207 324 l0 245 l-53 0 l0 -245 l53 0 ZM268 569 l0 -245 l56 0 l0 245 l-56 0 Z" /><glyph glyph-name="uni884C" unicode="&#x884c;" d="M354 751 q-24 -32 -55 -66 q-31 -34 -64.5 -67.5 q-33.5 -33.5 -68.5 -64.5 q-35 -31 -66 -56 l-42 62 q28 21 61 50.5 q33 29.5 65 62 q32 32.5 61.5 66 q29.5 33.5 52.5 63.5 l56 -50 ZM887 673 l-457 0 l0 72 l457 0 l0 -72 ZM356 503 q-17 -30 -41 -62 q-24 -32 -51 -64 l0 -468 l-75 0 l0 386 q-31 -32 -62 -60.5 q-31 -28.5 -60 -51.5 l-44 63 q39 29 79 66.5 q40 37.5 76.5 77.5 q36.5 40 67.5 81 q31 41 52 77 l58 -45 ZM937 385 l-168 0 l0 -345 q0 -34 -7 -56.5 q-7 -22.5 -23 -36.5 q-16 -14 -41.5 -21 q-25.5 -7 -62.5 -10 l-74 -7 l-23 77 l79 6 q22 1 36 4.5 q14 3.5 22 11 q8 7.5 11 20.5 q3 13 3 34 l0 323 l-318 0 l0 72 l566 0 l0 -72 Z" /><glyph glyph-name="uni8868" unicode="&#x8868;" d="M469 276 q-23 -22 -47 -42 q-24 -20 -49 -38 l0 -207 q11 4 37.5 12.5 q26.5 8.5 59 19 q32.5 10.5 64.5 21.5 q32 11 54 19 l11 -69 q-17 -5 -50.5 -15 q-33.5 -10 -70 -22 q-36.5 -12 -69 -22.5 q-32.5 -10.5 -45.5 -14.5 q-8 -3 -18.5 -6.5 q-10.5 -3.5 -21.5 -8 q-11 -4.5 -21.5 -9.5 q-10.5 -5 -17.5 -9 l-27 58 q20 11 31 25.5 q11 14.5 11 29.5 l0 147 q-51 -32 -107.5 -61 q-56.5 -29 -125.5 -60 l-41 68 q65 25 120.5 51 q55.5 26 104 54.5 q48.5 28.5 91.5 60.5 q43 32 83 68 l-355 0 l0 62 l384 0 l0 91 l-293 0 l0 64 l293 0 l0 94 l-333 0 l0 62 l333 0 l0 100 l75 -3 l0 -97 l333 0 l0 -62 l-333 0 l0 -94 l293 0 l0 -64 l-293 0 l0 -91 l385 0 l0 -62 l-393 0 q21 -47 44.5 -84 q23.5 -37 52.5 -68 q26 12 54.5 27 q28.5 15 56 31.5 q27.5 16.5 51.5 33.5 q24 17 41 32 l42 -62 q-16 -12 -38.5 -26.5 q-22.5 -14.5 -48 -30 q-25.5 -15.5 -52 -30 q-26.5 -14.5 -49.5 -26.5 q49 -35 114 -62.5 q65 -27.5 154 -52.5 l-36 -67 q-93 32 -161.5 64.5 q-68.5 32.5 -119.5 71.5 q-51 39 -88.5 87 q-37.5 48 -68.5 112 Z" /><glyph glyph-name="uni89E3" unicode="&#x89e3;" d="M436 661 q-32 -56 -71 -110 l103 0 l0 -555 q0 -23 -4 -37 q-4 -14 -13.5 -22 q-9.5 -8 -26.5 -12.5 q-17 -4.5 -42 -7.5 l-31 -4 l-19 61 l34 4 q14 1 22 3.5 q8 2.5 12 6.5 q4 4 5 11 q1 7 1 18 l0 125 l-85 0 l0 -185 l-62 0 l0 185 l-87 0 q-3 -39 -9 -71 q-6 -32 -14.5 -60.5 q-8.5 -28.5 -20 -56 q-11.5 -27.5 -26.5 -56.5 l-63 29 q22 44 37 80 q15 36 23 77 q8 41 11.5 92 q3.5 51 3.5 125 l0 220 l-42 -45 l-48 47 q62 60 114.5 133 q52.5 73 87.5 154 l68 -16 q-9 -20 -18.5 -39.5 q-9.5 -19.5 -19.5 -37.5 l180 0 l0 -56 ZM477 475 q34 25 55.5 45.5 q21.5 20.5 35.5 41 q14 20.5 22 43 q8 22.5 14 50.5 q2 6 3 14 q1 8 3 17 l-107 0 l0 61 l386 0 q-3 -44 -6 -80 q-2 -31 -4 -59.5 q-2 -28.5 -3 -35.5 q-2 -29 -8 -47.5 q-6 -18.5 -19.5 -29.5 q-13.5 -11 -36 -17 q-22.5 -6 -57.5 -9 l-34 -3 l-22 63 l45 4 q21 2 33.5 5 q12.5 3 19 9.5 q6.5 6.5 8.5 17 q2 10.5 4 27.5 q1 7 2.5 20.5 q1.5 13.5 3 27.5 q1.5 14 2.5 27 q1 13 1 19 l-141 0 q-2 -14 -4 -27 q-2 -13 -4 -24 q-6 -32 -17 -59.5 q-11 -27.5 -29 -52 q-18 -24.5 -43 -48.5 q-25 -24 -59 -50 l-44 50 ZM219 656 q-19 -28 -38.5 -54 q-19.5 -26 -40.5 -51 l149 0 q17 25 33.5 51.5 q16.5 26.5 32.5 53.5 l-136 0 ZM176 488 l0 -110 l83 0 l0 110 l-83 0 ZM406 488 l-85 0 l0 -110 l85 0 l0 110 ZM941 95 l-183 0 l0 -196 l-66 0 l0 196 l-200 0 l0 65 l200 0 l0 121 l-105 0 q-10 -28 -20 -54.5 q-10 -26.5 -21 -49.5 l-59 22 q12 25 23.5 54.5 q11.5 29.5 22 60.5 q10.5 31 18.5 61.5 q8 30.5 14 57.5 l62 -10 q-4 -19 -9 -37.5 q-5 -18.5 -10 -38.5 l84 0 l0 100 l66 -2 l0 -98 l149 0 l0 -66 l-149 0 l0 -121 l183 0 l0 -65 ZM259 206 l0 108 l-83 0 l0 -41 q0 -18 0 -34.5 q0 -16.5 -1 -32.5 l84 0 ZM406 206 l0 108 l-85 0 l0 -108 l85 0 Z" /><glyph glyph-name="uni8BA1" unicode="&#x8ba1;" d="M280 568 q-13 22 -30.5 46.5 q-17.5 24.5 -37 49.5 q-19.5 25 -39.5 48.5 q-20 23.5 -38 43.5 l53 45 q18 -17 39 -40.5 q21 -23.5 41.5 -48.5 q20.5 -25 38.5 -49 q18 -24 30 -43 l-57 -52 ZM940 392 l-264 0 l0 -487 l-78 0 l0 487 l-246 0 l0 76 l246 0 l0 327 l78 -3 l0 -324 l264 0 l0 -76 ZM269 72 q7 5 21 15 q14 10 31.5 23 q17.5 13 36.5 27 q19 14 36 26.5 q17 12.5 30.5 23 q13.5 10.5 20.5 15.5 l27 -74 q-12 -9 -42 -30 q-30 -21 -63 -44.5 q-33 -23.5 -62 -44.5 q-29 -21 -40 -29 q-14 -10 -30 -23.5 q-16 -13.5 -28 -26.5 l-48 56 q20 17 26 29 q6 12 6 31 l0 371 l-140 0 l0 75 l218 0 l0 -420 Z" /><glyph glyph-name="uni8BC1" unicode="&#x8bc1;" d="M224 564 q-11 16 -27.5 39.5 q-16.5 23.5 -35.5 48.5 q-19 25 -37.5 47.5 q-18.5 22.5 -33.5 37.5 l60 43 q14 -15 32 -36.5 q18 -21.5 36.5 -44 q18.5 -22.5 35 -44.5 q16.5 -22 27.5 -38 l-57 -53 ZM935 25 l0 -73 l-640 0 l0 73 l111 0 l0 493 l77 -4 l0 -489 l127 0 l0 637 l-250 0 l0 77 l550 0 l0 -77 l-222 0 l0 -258 l201 0 l0 -77 l-201 0 l0 -302 l247 0 ZM353 107 q-9 -7 -27 -21.5 q-18 -14.5 -38.5 -31 q-20.5 -16.5 -38.5 -32 q-18 -15.5 -26 -23.5 q-10 -9 -21 -19.5 q-11 -10.5 -23 -23.5 l-44 56 q27 24 27 59 l0 345 l-129 0 l0 76 l201 0 l0 -397 q7 6 19.5 17.5 q12.5 11.5 26 23.5 q13.5 12 25.5 23 q12 11 18 16 l30 -68 Z" /><glyph glyph-name="uni8BF8" unicode="&#x8bf8;" d="M687 434 q-29 -26 -60.5 -51 q-31.5 -25 -66.5 -50 l277 0 l0 -428 l-71 0 l0 49 l-288 0 l0 -50 l-70 0 l0 334 q-25 -14 -51 -28.5 q-26 -14.5 -55 -29.5 l-35 66 q97 48 173 93.5 q76 45.5 138 94.5 l-266 0 l0 68 l207 0 l0 122 l-151 0 l0 66 l151 0 l0 114 l73 -3 l0 -111 l162 0 l0 -66 l-162 0 l0 -122 l63 0 q55 54 99.5 115 q44.5 61 83.5 135 l63 -35 q-34 -63 -70 -115 q-36 -52 -78 -100 l179 0 l0 -68 l-245 0 ZM232 560 q-11 24 -27 49.5 q-16 25.5 -34 50 q-18 24.5 -37 46 q-19 21.5 -35 38.5 l53 43 q16 -16 35.5 -37.5 q19.5 -21.5 38 -45 q18.5 -23.5 35 -47 q16.5 -23.5 28.5 -43.5 l-57 -54 ZM235 65 q8 6 23 19 q15 13 31 26.5 q16 13.5 30 25.5 q14 12 19 16 l21 -76 q-7 -5 -26 -20.5 q-19 -15.5 -41 -33.5 q-22 -18 -42.5 -35 q-20.5 -17 -29.5 -24 q-11 -8 -20 -17 q-9 -9 -21 -22 l-50 61 q20 17 26.5 29 q6.5 12 6.5 30 l0 376 l-110 0 l0 75 l183 0 l0 -430 ZM766 269 l-288 0 l0 -94 l288 0 l0 94 ZM766 17 l0 95 l-288 0 l0 -95 l288 0 Z" /><glyph glyph-name="uni8C6A" unicode="&#x8c6a;" d="M901 677 l-827 0 l0 53 l383 0 q-6 18 -12.5 35 q-6.5 17 -11.5 28 l70 18 q8 -14 17.5 -37 q9.5 -23 17.5 -44 l363 0 l0 -53 ZM780 630 l0 -137 l-586 0 l0 137 l586 0 ZM709 585 l-443 0 l0 -48 l443 0 l0 48 ZM799 303 l0 97 l-624 0 l0 -96 l-73 0 l0 146 l770 0 l0 -147 l-73 0 ZM682 167 q21 -31 45.5 -55 q24.5 -24 55.5 -43.5 q31 -19.5 69.5 -37 q38.5 -17.5 87.5 -35.5 l-41 -55 q-51 22 -91.5 43 q-40.5 21 -74.5 44.5 q-34 23.5 -61.5 51.5 q-27.5 28 -51.5 65 q-31 -11 -57 -17 q13 -45 13 -102 q0 -33 -7.5 -55.5 q-7.5 -22.5 -26 -37.5 q-18.5 -15 -50 -22.5 q-31.5 -7.5 -77.5 -9.5 l-61 -3 l-23 60 l77 4 q60 2 80 18.5 q20 16.5 19 57.5 q0 14 -1 27 q-1 13 -3 25 q-83 -50 -191.5 -91 q-108.5 -41 -240.5 -83 l-25 52 q278 73 442 174 q-5 16 -18 35 q-77 -42 -172.5 -79.5 q-95.5 -37.5 -202.5 -65.5 l-21 55 q105 25 199 58 q94 33 167 71 q-13 17 -28 30 q-42 -15 -85 -29.5 q-43 -14.5 -83.5 -27 q-40.5 -12.5 -77.5 -22.5 q-37 -10 -66 -16 l-21 54 q35 5 80 15.5 q45 10.5 94 24 q49 13.5 97 29.5 q48 16 89 33 l-231 0 l0 46 l557 0 l0 -46 l-204 0 q-19 -9 -41 -18 q-22 -9 -45 -19 q45 -45 68 -90 q30 8 65.5 20.5 q35.5 12.5 70.5 26.5 q35 14 66.5 28.5 q31.5 14.5 54.5 26.5 l28 -51 q-26 -15 -65 -32 q-39 -17 -81 -32 Z" /><glyph glyph-name="uni8D22" unicode="&#x8d22;" d="M939 541 l-116 0 l0 -497 q0 -35 -6.5 -57.5 q-6.5 -22.5 -22.5 -36.5 q-16 -14 -43.5 -21 q-27.5 -7 -70.5 -11 l-47 -4 l-25 76 l59 5 q26 2 42.5 6.5 q16.5 4.5 25.5 13 q9 8.5 12 23 q3 14.5 3 36.5 l0 349 q-52 -99 -118 -183 q-66 -84 -154 -167 l-54 55 q107 89 183.5 195.5 q76.5 106.5 127.5 217.5 l-243 0 l0 71 l258 0 l0 190 l73 -3 l0 -187 l116 0 l0 -71 ZM181 163 l-69 0 l0 580 l327 0 l0 -569 l-68 0 l0 497 l-190 0 l0 -508 ZM309 346 q0 -87 -11 -148.5 q-11 -61.5 -37 -110.5 q-26 -49 -70.5 -92.5 q-44.5 -43.5 -110.5 -95.5 l-50 54 q67 46 108.5 86 q41.5 40 65 85.5 q23.5 45.5 32 102.5 q8.5 57 8.5 137 l0 251 l65 -3 l0 -266 ZM320 140 q41 -35 86 -76 q45 -41 85 -83 l-49 -63 q-41 51 -86 94.5 q-45 43.5 -81 78.5 l45 49 Z" /><glyph glyph-name="uni8D26" unicode="&#x8d26;" d="M724 351 q13 -62 33 -112.5 q20 -50.5 47.5 -94 q27.5 -43.5 64 -81.5 q36.5 -38 81.5 -74 l-54 -54 q-91 76 -149.5 174.5 q-58.5 98.5 -87.5 241.5 l-75 0 l0 -337 q13 6 31.5 15 q18.5 9 37.5 18.5 q19 9.5 36.5 18.5 q17.5 9 29.5 15 l5 -76 q-15 -6 -35.5 -16 q-20.5 -10 -42.5 -20.5 q-22 -10.5 -41 -20.5 q-19 -10 -31 -16 q-14 -6 -26 -12.5 q-12 -6.5 -26 -17.5 l-35 69 q17 11 23 20.5 q6 9.5 6 22.5 l0 337 l-71 0 l0 68 l71 0 l0 380 l68 -3 l0 -377 l336 0 l0 -68 l-196 0 ZM889 696 q-25 -24 -56 -51.5 q-31 -27.5 -65 -54.5 q-34 -27 -68.5 -52 q-34.5 -25 -65.5 -45 l-39 59 q31 19 66 44 q35 25 68 52 q33 27 62.5 54.5 q29.5 27.5 50.5 51.5 l47 -58 ZM166 169 l-63 0 l0 583 l315 0 l0 -579 l-64 0 l0 513 l-188 0 l0 -517 ZM295 300 q0 -68 -12 -120 q-12 -52 -38 -97 q-26 -45 -66.5 -87 q-40.5 -42 -98.5 -90 l-48 54 q57 43 95.5 81.5 q38.5 38.5 62 79.5 q23.5 41 33 88 q9.5 47 9.5 108 l0 304 l63 -3 l0 -318 ZM304 159 q42 -37 82 -79 q40 -42 72 -80 l-47 -54 q-36 48 -72 90 q-36 42 -75 77 l40 46 Z" /><glyph glyph-name="uni8EAB" unicode="&#x8eab;" d="M939 378 q-32 -42 -71.5 -79.5 q-39.5 -37.5 -87.5 -72.5 l0 -184 q0 -35 -7 -58.5 q-7 -23.5 -26 -38.5 q-19 -15 -52.5 -22.5 q-33.5 -7.5 -86.5 -9.5 l-70 -3 l-30 74 l91 4 q34 1 55 5 q21 4 32.5 12.5 q11.5 8.5 15 23.5 q3.5 15 3.5 39 l0 107 q-128 -79 -289.5 -140.5 q-161.5 -61.5 -350.5 -109.5 l-32 73 q172 37 317.5 86 q145.5 49 265.5 115 l-549 0 l0 66 l130 0 l0 444 l185 0 q14 25 27 54.5 q13 29.5 21 49.5 l83 -15 q-7 -17 -19 -41.5 q-12 -24.5 -24 -47.5 l310 0 l0 -398 q65 54 113 114 l46 -47 ZM272 644 l0 -83 l433 0 l0 83 l-433 0 ZM705 497 l-433 0 l0 -84 l433 0 l0 84 ZM272 265 l433 0 l0 84 l-433 0 l0 -84 Z" /><glyph glyph-name="uni8FD0" unicode="&#x8fd0;" d="M236 556 q-14 20 -31 42.5 q-17 22.5 -35.5 45 q-18.5 22.5 -37 43.5 q-18.5 21 -34.5 36 l56 48 q41 -38 76 -79.5 q35 -41.5 61 -76.5 l-55 -59 ZM858 673 l-488 0 l0 69 l488 0 l0 -69 ZM387 211 q44 55 76.5 114 q32.5 59 61.5 125 l-212 0 l0 68 l600 0 l0 -68 l-301 0 q-36 -77 -68.5 -134.5 q-32.5 -57.5 -67.5 -111.5 q19 2 52 4.5 q33 2.5 72 5.5 q39 3 81 6 q42 3 79 6 q-20 41 -36.5 71.5 q-16.5 30.5 -27.5 47.5 l64 29 q11 -16 26.5 -43.5 q15.5 -27.5 33.5 -62 q18 -34.5 36.5 -74 q18.5 -39.5 35.5 -80.5 l-69 -40 q-8 22 -16.5 43.5 q-8.5 21.5 -16.5 41.5 q-58 -5 -123.5 -11 q-65.5 -6 -126.5 -11.5 q-61 -5.5 -109.5 -11 q-48.5 -5.5 -72.5 -9.5 l-14 76 q11 1 24 6 q13 5 19 13 ZM595 9 q89 -2 177 0 q88 2 168 7 l-17 -75 q-32 -1 -72.5 -2 q-40.5 -1 -82.5 -2 q-42 -1 -82.5 -1 q-40.5 0 -71.5 1 q-78 2 -135.5 6 q-57.5 4 -104 17 q-46.5 13 -86 37 q-39.5 24 -80.5 66 q-14 -16 -26.5 -30.5 q-12.5 -14.5 -26 -30 q-13.5 -15.5 -29.5 -33 q-16 -17.5 -37 -38.5 l-53 56 q41 38 77 74.5 q36 36.5 64 71.5 l0 268 l-108 0 l0 71 l181 0 l0 -354 q36 -35 70 -55.5 q34 -20.5 73 -32 q39 -11.5 87.5 -16 q48.5 -4.5 114.5 -5.5 Z" /><glyph glyph-name="uni9001" unicode="&#x9001;" d="M304 115 q70 30 115.5 56.5 q45.5 26.5 73 54.5 q27.5 28 40.5 58 q13 30 18 67 l-232 0 l0 68 l236 0 l0 29 l0 122 l-194 0 l0 67 l127 0 q-22 42 -47.5 81 q-25.5 39 -44.5 60 l57 38 q8 -10 19.5 -25 q11.5 -15 24 -33 q12.5 -18 25.5 -38 q13 -20 24 -39 l-56 -44 l148 0 q15 19 30.5 43 q15.5 24 30 48.5 q14.5 24.5 27 48.5 q12.5 24 21.5 44 l66 -34 q-17 -30 -42.5 -71 q-25.5 -41 -51.5 -79 l142 0 l0 -67 l-227 0 l0 -129 l0 -22 l266 0 l0 -68 l-269 0 q-2 -13 -3.5 -24.5 q-1.5 -11.5 -4.5 -22.5 q21 -14 56.5 -39.5 q35.5 -25.5 73.5 -54.5 q38 -29 72.5 -57.5 q34.5 -28.5 52.5 -48.5 l-45 -65 q-17 19 -46.5 46 q-29.5 27 -63.5 55.5 q-34 28.5 -67 55 q-33 26.5 -56 43.5 q-14 -25 -34.5 -48 q-20.5 -23 -50.5 -46 q-30 -23 -70.5 -46.5 q-40.5 -23.5 -93.5 -49.5 l-47 66 ZM222 553 q-12 19 -30 44 q-18 25 -37.5 51 q-19.5 26 -39 50.5 q-19.5 24.5 -35.5 41.5 l53 43 q18 -20 38.5 -44 q20.5 -24 40 -48 q19.5 -24 37 -46 q17.5 -22 29.5 -39 l-56 -53 ZM591 -5 q89 -2 179.5 0 q90.5 2 170.5 7 l-17 -75 q-32 -1 -73.5 -2 q-41.5 -1 -84.5 -2 q-43 -1 -84 -1 q-41 0 -72 1 q-78 2 -135.5 6 q-57.5 4 -104 16 q-46.5 12 -86 36 q-39.5 24 -80.5 66 q-14 -16 -26.5 -30.5 q-12.5 -14.5 -26 -29.5 q-13.5 -15 -29.5 -32 q-16 -17 -37 -38 l-53 56 q41 38 77 73.5 q36 35.5 64 70.5 l0 277 l-108 0 l0 71 l180 0 l0 -363 q36 -35 70 -55 q34 -20 73.5 -31.5 q39.5 -11.5 88 -15.5 q48.5 -4 114.5 -5 Z" /><glyph glyph-name="uni90E8" unicode="&#x90e8;" d="M462 615 q-7 -35 -18 -85 q-11 -50 -21 -91 l131 0 l0 -68 l-510 0 l0 68 l143 0 q-3 22 -7 46.5 q-4 24.5 -8 48 q-4 23.5 -8.5 45 q-4.5 21.5 -7.5 36.5 l-77 0 l0 68 l201 0 q-3 12 -7 28.5 q-4 16.5 -8.5 33 q-4.5 16.5 -9 30 q-4.5 13.5 -6.5 18.5 l71 14 q1 -3 6 -19 q5 -16 11 -35.5 q6 -19.5 11 -39.5 q5 -20 8 -30 l172 0 l0 -68 l-66 0 ZM824 420 q15 -20 32 -43.5 q17 -23.5 32 -53 q15 -29.5 25 -66 q10 -36.5 10 -83.5 q0 -38 -5.5 -64 q-5.5 -26 -17.5 -42 q-12 -16 -31 -24.5 q-19 -8.5 -46 -12.5 l-68 -9 l-28 71 l59 6 q32 4 49.5 16 q17.5 12 17.5 50 q0 39 -10.5 74.5 q-10.5 35.5 -26 66 q-15.5 30.5 -34.5 57 q-19 26.5 -36 48.5 q13 29 26.5 62 q13.5 33 26 67 q12.5 34 23 67.5 q10.5 33.5 16.5 64.5 l-167 0 l0 -776 l-72 0 l0 844 l309 0 l0 -68 q-14 -62 -36 -127 q-22 -65 -48 -125 ZM222 615 q3 -16 7 -38 q4 -22 8.5 -46 q4.5 -24 8 -48 q3.5 -24 6.5 -44 l104 0 q5 19 10 41.5 q5 22.5 10.5 46 q5.5 23.5 10 46 q4.5 22.5 7.5 42.5 l-172 0 ZM124 286 l362 0 l0 -342 l-362 0 l0 342 ZM195 11 l220 0 l0 210 l-220 0 l0 -210 Z" /><glyph glyph-name="uni91D1" unicode="&#x91d1;" d="M530 801 q68 -91 176.5 -168.5 q108.5 -77.5 250.5 -125.5 l-40 -70 q-60 24 -120 56.5 q-60 32.5 -115.5 70.5 q-55.5 38 -103.5 81 q-48 43 -84 87 q-67 -86 -174.5 -162 q-107.5 -76 -246.5 -139 l-44 65 q151 62 257.5 138 q106.5 76 173.5 167 l70 0 ZM531 11 l383 0 l0 -70 l-842 0 l0 70 l385 0 l0 236 l-332 0 l0 71 l332 0 l0 121 l-221 0 l0 70 l513 0 l0 -70 l-218 0 l0 -121 l338 0 l0 -71 l-338 0 l0 -236 ZM615 75 q14 13 32.5 34 q18.5 21 37.5 44 q19 23 35.5 46 q16.5 23 27.5 40 l57 -43 q-11 -18 -28.5 -41.5 q-17.5 -23.5 -37 -47.5 q-19.5 -24 -39 -46 q-19.5 -22 -34.5 -36 l-51 50 ZM315 21 q-11 19 -27.5 43 q-16.5 24 -35 47.5 q-18.5 23.5 -37 44.5 q-18.5 21 -32.5 34 l49 46 q14 -13 33 -34 q19 -21 38.5 -44 q19.5 -23 36.5 -45.5 q17 -22.5 28 -38.5 l-53 -53 Z" /><glyph glyph-name="uni95F4" unicode="&#x95f4;" d="M174 803 q15 -12 36 -31.5 q21 -19.5 42 -41 q21 -21.5 40.5 -42 q19.5 -20.5 31.5 -35.5 l-49 -64 q-12 18 -31 41 q-19 23 -39.5 45.5 q-20.5 22.5 -41 42.5 q-20.5 20 -36.5 33 l47 52 ZM876 738 l0 -688 q0 -41 -6.5 -65.5 q-6.5 -24.5 -23.5 -39.5 q-17 -15 -45.5 -22 q-28.5 -7 -73.5 -11 l-51 -5 l-25 75 l63 4 q27 2 44 6 q17 4 26 12.5 q9 8.5 12 24 q3 15.5 3 41.5 l0 594 l-443 0 l0 74 l520 0 ZM110 621 l75 -3 l0 -706 l-75 0 l0 709 ZM676 60 l-369 0 l0 478 l369 0 l0 -478 ZM378 468 l0 -134 l228 0 l0 134 l-228 0 ZM606 132 l0 131 l-228 0 l0 -131 l228 0 Z" /><glyph glyph-name="uni9650" unicode="&#x9650;" d="M96 757 l267 0 l0 -68 q-13 -70 -33.5 -127.5 q-20.5 -57.5 -46.5 -116.5 q11 -23 24 -46 q13 -23 23.5 -51 q10.5 -28 17.5 -62 q7 -34 7 -79 q0 -30 -3.5 -51 q-3.5 -21 -12.5 -35.5 q-9 -14.5 -25.5 -22.5 q-16.5 -8 -41.5 -11 l-60 -8 l-23 67 l47 5 q15 3 25.5 6.5 q10.5 3.5 16.5 10.5 q6 7 9 18.5 q3 11.5 3 29.5 q0 40 -7 71.5 q-7 31.5 -18.5 57.5 q-11.5 26 -25.5 48 q-14 22 -28 43 q26 58 50.5 125 q24.5 67 35.5 128 l-133 0 l0 -778 l-68 0 l0 846 ZM742 134 q38 -43 88.5 -76.5 q50.5 -33.5 120.5 -63.5 l-46 -63 q-71 36 -123.5 74.5 q-52.5 38.5 -92 85.5 q-39.5 47 -67.5 105 q-28 58 -50 134 l-85 0 l0 -329 q13 5 34 14 q21 9 44.5 19.5 q23.5 10.5 46.5 22 q23 11.5 40 21.5 l11 -67 q-21 -11 -50 -24.5 q-29 -13.5 -57.5 -26 q-28.5 -12.5 -53 -22.5 q-24.5 -10 -35.5 -15 q-12 -5 -24.5 -11 q-12.5 -6 -26.5 -14 l-33 65 q21 11 27.5 19.5 q6.5 8.5 6.5 25.5 l0 744 l436 0 l0 -422 l-214 0 q14 -42 29.5 -78 q15.5 -36 35.5 -67 q35 20 77.5 51 q42.5 31 80.5 68 l43 -51 q-41 -36 -82.5 -66 q-41.5 -30 -80.5 -53 ZM487 688 l0 -115 l296 0 l0 115 l-296 0 ZM487 394 l296 0 l0 114 l-296 0 l0 -114 Z" /><glyph glyph-name="uni9662" unicode="&#x9662;" d="M447 510 l-68 0 l0 189 l222 0 q-8 27 -17.5 55.5 q-9.5 28.5 -16.5 45.5 l74 14 q8 -19 19 -53 q11 -34 19 -62 l222 0 l0 -191 l-69 0 l0 124 l-385 0 l0 -122 ZM362 228 q0 -39 -6 -65.5 q-6 -26.5 -19.5 -43.5 q-13.5 -17 -35.5 -25.5 q-22 -8.5 -54 -12.5 l-36 -4 l-27 73 l50 5 q19 2 30.5 6 q11.5 4 17.5 14 q6 10 8 26 q2 16 2 42 q0 45 -18 92 q-18 47 -60 104 q23 59 41.5 120 q18.5 61 31.5 124 l-120 0 l0 -782 l-68 0 l0 851 l253 0 l0 -71 q-14 -58 -31 -115.5 q-17 -57.5 -39 -112.5 q42 -63 61 -116 q19 -53 19 -109 ZM454 433 l0 65 l369 0 l0 -65 l-369 0 ZM943 83 q-2 -22 -4 -41 q-2 -19 -7 -44 q-8 -47 -28 -60 q-20 -13 -54 -15 q-7 0 -19.5 -0.5 q-12.5 -0.5 -27 -0.5 q-14.5 0 -30 0 q-15.5 0 -28.5 0 q-45 2 -61 23 q-16 21 -16 65 l0 237 l-98 0 q0 -57 -11.5 -104.5 q-11.5 -47.5 -37.5 -90 q-26 -42.5 -68.5 -81.5 q-42.5 -39 -105.5 -79 l-48 58 q61 31 100.5 64.5 q39.5 33.5 62 70 q22.5 36.5 31.5 77 q9 40.5 9 85.5 l-119 0 l0 68 l527 0 l0 -68 l-170 0 l0 -218 q0 -16 6 -26 q6 -10 20 -12 q15 -2 31.5 -2 q16.5 0 42.5 2 q16 2 21.5 9 q5.5 7 8.5 26 q5 26 6.5 44.5 q1.5 18.5 2.5 40.5 l64 -28 Z" /><glyph glyph-name="uni9884" unicode="&#x9884;" d="M326 209 q17 40 30.5 80.5 q13.5 40.5 21.5 82.5 l-102 0 l0 -348 q0 -32 -4 -51 q-4 -19 -15.5 -30 q-11.5 -11 -31 -16 q-19.5 -5 -49.5 -8 l-62 -6 l-26 71 q13 1 25 2 q11 1 21.5 1.5 q10.5 0.5 17.5 1.5 q18 2 29 4.5 q11 2.5 16.5 8.5 q5.5 6 7 16.5 q1.5 10.5 1.5 29.5 l0 324 l-160 0 l0 69 l191 0 q-32 48 -62.5 85.5 q-30.5 37.5 -61.5 72.5 l46 35 q15 -16 31 -34.5 q16 -18.5 33 -39.5 q13 15 26.5 33 q13.5 18 26 35.5 q12.5 17.5 23 33.5 q10.5 16 18.5 28 l-240 0 l0 66 l321 0 l0 -74 q-9 -12 -25 -35 q-16 -23 -35 -48.5 q-19 -25.5 -38 -50.5 q-19 -25 -34 -41 q8 -11 15.5 -21 q7.5 -10 14.5 -20 l-31 -25 l180 0 l0 -67 q-6 -36 -21 -82 q-15 -46 -38 -103 l-60 20 ZM935 756 l0 -69 l-219 0 q-5 -24 -10.5 -55 q-5.5 -31 -11.5 -60 l184 0 l0 -438 l-72 0 l0 374 l-258 0 l0 -375 l-71 0 l0 439 l139 0 q7 29 12.5 59.5 q5.5 30.5 10.5 55.5 l-208 0 l0 69 l504 0 ZM706 288 q0 -71 -9 -124 q-9 -53 -38.5 -97 q-29.5 -44 -84.5 -84.5 q-55 -40.5 -148 -86.5 l-45 55 q88 43 139 79 q51 36 77 75.5 q26 39.5 33 86.5 q7 47 7 112 l0 150 l69 -4 l0 -162 ZM726 136 q49 -36 102 -79 q53 -43 107 -95 l-39 -62 q-47 54 -104 100 q-57 46 -108 85 l42 51 Z" /></font>
</defs>
</svg>
